<?xml version="1.0" encoding="UTF-8"?><svg id="Layer_2" xmlns="http://www.w3.org/2000/svg" viewBox="0 0 687.11 1367.68"><defs><style>.cls-1{fill:#d705f2;}.cls-2{fill:#d926a9;}</style></defs><path class="cls-2" d="M684.33,90.11c-8.66-20.07-32.96-30.12-53.37-32.22-30.1-3.11-61.48,8.08-90.59-3.93-22.06-9.11-37.37-28.74-57.67-40.69-4.84-2.85-9.94-5.14-15.27-6.6-.15-.56-15.3-1.55-15.54-1.31-23.59-1.48-47.01-6.95-70.68-4.91-13.14,1.14-25.99,5.01-36.64,12.99-11.06,8.28-19.01,19.74-28.78,29.37-10.58,10.42-23.69,17.03-37.03,23.21-12.81,5.95-25.46,11.94-36.86,20.39-21.05,15.63-37.5,36.76-49.53,59.93-6.15,11.84-11.2,24.25-15.21,36.97-4.51,14.34-7.5,29.43-15,42.63-11.62,20.46-33.9,31.21-47.87,49.67-6.83,9.02-10.63,19.9-9.2,31.28,1.69,13.41,9.65,25.05,18.13,35.16,4.57,5.45,9.33,10.85,14.32,16.05,1.01,1.06,2.03,2.1,3.07,3.14,4.04,4.08,8.23,7.99,12.55,11.67,10.36,8.82,22.04,15.61,35.39,18.65,26.7,6.09,54.17-.5,81.11,2.6,6.54,.76,13.03,2.17,19.19,4.54,7.24,2.78,13.45,7.12,19.48,11.93,5.46,4.36,10.9,8.75,17.25,11.77,5.55,2.63,11.46,4.3,17.54,5.06,26.42,3.31,53.01-9.88,73.47-25.44,21.76-16.56,39.83-37.59,62.84-52.59,11.22-7.32,23.38-12.79,36.56-15.42,12.46-2.5,25.2-3.08,37.7-5.35,11.41-2.08,22.92-5.78,31.53-13.89,8.97-8.44,12.99-20.07,14.38-32.05,1.52-13.16,.31-26.43,.55-39.63,.26-13.83,2.88-27.39,8.16-40.21,5.34-12.95,13.21-24.9,23.06-34.86,8.77-8.88,19.25-15.69,29.09-23.28,3.37-2.61,6.77-5.34,9.96-8.28,1.29-1.2,2.55-2.43,3.75-3.7,3.57-3.76,6.7-7.89,9.01-12.55,4.66-9.4,5.34-20.41,1.15-30.1Zm-6.71,33.65c-.73,1.08-1.51,2.12-2.32,3.14-1.22,1.54-2.52,3.02-3.9,4.44-5.91,6.17-12.99,11.3-19.79,16.31-9.74,7.18-19.35,14.38-27.31,23.6-17.03,19.74-26.51,44.94-27.13,70.96-.57,24.12,5.12,54.89-16.15,72.27-9.3,7.59-21.47,10.35-33.07,12.1-12.26,1.84-24.73,2.52-36.81,5.42-25.55,6.13-46.18,23.29-65.25,40.49-20.15,18.18-39.86,37.02-65.76,46.7-12.25,4.58-25.67,7.15-38.71,5.02-6.12-.99-12.04-3-17.45-6.02-6.47-3.6-11.96-8.6-17.83-13.05-10.52-7.99-22.55-12.27-35.6-13.87-13.01-1.6-26.17-.84-39.23-.37-13.54,.49-27.32,.88-40.65-1.94-13.86-2.93-25.85-9.87-36.47-19.11-10.38-9.03-20.01-19.37-28.85-29.92-8.85-10.57-17.39-23.23-17.57-37.53-.31-23.6,21.79-38.19,37.47-52.24,8.77-7.85,16.63-16.41,21.81-27.1,6.26-12.91,9.16-27.07,13.55-40.66,8.1-25.05,20.34-49.11,37.38-69.29,8.51-10.07,18.21-19.18,29.05-26.69,11.21-7.78,23.59-13.27,35.89-19.04,12.67-5.93,24.94-12.55,34.99-22.45,9.9-9.75,17.91-21.58,29.32-29.74,22.96-16.4,52.6-12.48,78.9-9.36,12.28,1.45,24.58,2.93,36.95,2.89,18.73,3.6,33.88,18.53,48.39,30.22,8.66,6.98,17.74,13.67,28.11,17.91,13.86,5.67,29.07,6.24,43.84,5.58,14.68-.66,29.45-2.68,44.16-1.82,11.47,.67,22.99,3.92,33.05,9.49,9.21,5.1,17.85,12.64,21.59,22.74,3.87,10.48,1.56,21.84-4.6,30.92Z"/><path class="cls-2" d="M250.37,393.29c-.73-.97-1.44-1.95-2.13-2.94-1.88-2.67-3.68-5.41-5.38-8.2-10.26-16.86-17.21-35.77-20.26-55.27-1.49-9.56-2.74-19.82-.99-29.42,1.5-8.23,6.17-14.88,12.85-19.78,12.88-9.42,29.59-12.1,41.11-23.64,12.19-12.21,17.44-29.48,24.37-44.84,3.6-7.98,7.78-15.59,13.19-22.5,5.43-6.94,11.84-13.05,18.94-18.25,14.04-10.3,30.85-16.82,48.2-18.38,21.43-1.93,42.49,4.07,63.06,9.24,10.93,2.75,21.91,5.2,33.1,6.6,11.09,1.39,22.28,1.94,33.45,1.65,11.24-.29,22.45-1.45,33.51-3.45,9.06-1.64,18.06-3.59,27.17-4.85,17.18-2.4,35.67-2.39,49.81,9.06,1.5,1.22-.63,3.33-2.12,2.12-3.29-2.66-6.99-4.8-10.95-6.29-16.68-6.27-35.54-2.4-52.44,.84-9.76,1.86-19.5,3.66-29.4,4.62-10.99,1.06-22.06,1.3-33.1,.72-10.78-.57-21.53-1.91-32.11-4.03-10.45-2.09-20.73-4.91-31.06-7.46-19.56-4.81-39.74-8.47-59.74-4.1-16.89,3.7-32.69,12.18-45.18,24.12-6.32,6.05-11.77,12.96-16.09,20.57-4.23,7.45-7.47,15.4-10.81,23.28-6.33,14.93-13.41,30.41-27.34,39.74-6.41,4.3-13.64,7.16-20.62,10.37-6.68,3.06-13.53,6.48-18.52,12.03-6.49,7.22-7.38,16.84-6.93,26.15,.46,9.78,1.97,19.51,4.4,28.99,4.62,18.08,12.63,35.19,23.53,50.32,.63,.88,1.28,1.75,1.93,2.62,.09,.12,.16,.24,.2,.36h-3.65Z"/><path class="cls-2" d="M537.42,329.25c13.11-16.88,25.42-35.76,28.32-57.4,2.3-17.19-2.4-36.45-15.19-48.72-7.06-6.77-16.22-10.64-25.89-11.71-10.41-1.15-21.04,.84-30.89,4.17-20.77,7.02-38.43,20.83-59.19,27.87-19.22,6.52-39.53,4.78-59.45,4.21-18.68-.54-38.79-.08-54.77,10.9-13.61,9.35-20.81,25.07-21.4,41.35-.58,16.17,5.23,32.8,17.02,44.09,6.35,6.08,14.96,11.44,18.25,19.98,3.87,10.05-2.63,20.84,1.39,30.94,3.18,7.99,10.84,13.03,18.79,15.49,10.29,3.19,21.04,1.59,31.51,.3,5.85-.72,11.72-1.33,17.62-1.03,1.93,.1,1.92-2.9,0-3-11.84-.61-23.44,2.51-35.24,2.63-8.43,.08-17.43-1.97-24-7.54-2.98-2.52-5.34-5.72-6.42-9.5-1.46-5.11-.36-10.47,.25-15.63s.54-10.05-1.56-14.8c-1.79-4.02-4.75-7.43-7.89-10.46s-6.86-6.01-10.18-9.14c-2.85-2.69-5.38-5.66-7.52-8.93-4.28-6.55-7.03-14-8.3-21.7-2.48-15.05,.91-31.71,11.15-43.34,12.16-13.81,30.91-17.37,48.46-17.72,19.2-.39,38.48,2.26,57.6-.5,21.13-3.05,39-14.8,57.68-24.26,17.64-8.94,39.64-16.44,59-8.34,16.45,6.88,25.29,24.25,26.56,41.36,1.51,20.25-7.59,39.39-18.67,55.75-2.91,4.29-5.99,8.46-9.16,12.55-1.17,1.51,.94,3.64,2.12,2.12h0Z"/><path class="cls-2" d="M501.35,334.57c4.94-17.19,4.84-38.66-7.16-53.05-6.98-8.37-17.32-12.14-27.94-13.1-11.49-1.03-23.39,.37-34.61,2.92s-22.42,6.73-32.71,12.24-19.65,12.01-27.5,20.28c-7.37,7.77-13.65,17.29-15.8,27.92-2.09,10.35,.3,20.84,6.83,29.16,6.2,7.9,15.34,13.31,24.9,16.12,12.34,3.62,25.5,3.09,38.14,1.72,3.15-.34,6.29-.74,9.43-1.15,1.89-.24,1.91-3.25,0-3-21.87,2.83-47.19,5.35-65.11-10.32-7.34-6.42-12.03-15.31-11.97-25.18,.07-10.28,4.93-20,11.17-27.92,6.76-8.57,15.37-15.41,24.62-21.11s19.84-10.5,30.59-13.7,21.74-4.99,32.87-5.24c10.55-.24,21.93,1.1,30.41,7.97,13.93,11.28,15.74,31.77,12.51,48.22-.42,2.16-.95,4.31-1.56,6.43-.53,1.86,2.36,2.65,2.89,.8h0Z"/><path class="cls-2" d="M675.3,126.9c-.38,1.95-.75,3.91-1.13,5.86-1.29,6.73-2.59,13.46-3.88,20.19-4.93,25.7-9.87,51.4-14.81,77.1-.37,1.94-.74,3.87-1.11,5.81-1.58,8.2-3.16,16.4-4.73,24.6-3.33,17.34-6.35,34.77-10.07,52.03-2.94,13.62-7.46,26.98-17.03,37.43-14.67,16.01-36.72,22.08-57.12,26.94-21.42,5.11-44.4,8.87-63.13,21.18-10.01,6.59-17.44,15.63-22.9,26.23-5.76,11.21-9.57,23.27-14.7,34.75-4.85,10.88-11.11,21.29-20.79,28.52-11.03,8.25-25.1,10.8-38.61,9.7-30.42-2.49-54.73-21.24-81.37-34.02-14.07-6.74-28.63-10.86-44.26-11.45-6.91-.26-13.81-.04-20.71,.39-1.02,.06-2.05,.12-3.07,.19-6.99,.47-13.98,1.09-20.97,1.55-13.97,.91-28.29,1.26-41.98-2.17-12.82-3.21-24.49-10.05-33.11-20.12-17.03-19.89-21.54-47.74-22.32-73.1,0-.15,.01-.28,.04-.41,.34-1.51,2.9-1.36,2.96,.41,.03,.91,.06,1.82,.11,2.73,.22,5.47,.64,10.92,1.33,16.35,3.25,25.55,13,52.74,36.99,65.61,23.11,12.4,50.69,8.15,76.11,6.25,1.02-.08,2.03-.15,3.04-.23,1.72-.11,3.43-.21,5.13-.29,14.3-.68,28.72-.2,42.53,3.91,14.4,4.29,27.63,11.65,40.68,18.95,24.27,13.58,53.03,29.05,81.7,20.36,26.48-8.03,34.06-35.55,43.6-58.3,4.52-10.81,9.92-21.39,18.32-29.74,7.34-7.3,16.36-12.58,25.87-16.54,20.42-8.51,42.59-11.36,63.74-17.51,10.11-2.94,20.12-6.63,29-12.39,9.9-6.41,17.55-15.38,22.16-26.26,6.4-15.11,8.33-32.15,11.4-48.15,3.36-17.48,6.72-34.96,10.08-52.44,6.05-31.45,12.08-62.91,18.13-94.36,.32-1.71,.65-3.41,.98-5.12,1.38-1.42,2.68-2.9,3.9-4.44Z"/><path class="cls-2" d="M660.22,328.39c-2.8,21.01-9.32,41.49-20.69,59.48-10.51,16.62-25.15,30.94-43.26,39-19.13,8.51-42.89,8.94-58.79,23.83-4.77,4.47-8.46,9.8-11.97,15.27-.61,.96-1.21,1.92-1.81,2.88-1.98,3.14-3.94,6.28-6.05,9.29-5.36,7.64-11.77,14.49-19.09,20.28-14.4,11.41-31.64,18.62-49.48,22.65-18.91,4.28-38.5,5.21-57.81,4.04-18.97-1.15-37.98-4.17-56.25-9.48-18-5.23-35.77-12.78-50.71-24.27-13.09-10.06-23.48-23.25-28.43-39.01-.3-.95-.58-1.92-.84-2.9,1.02-.08,2.03-.15,3.04-.23,.27,.98,.56,1.97,.87,2.94,.86,2.67,1.87,5.3,3.06,7.84,7.61,16.23,21.36,28.48,36.68,37.33,16.08,9.29,33.99,15.25,52.08,19.2,18.56,4.05,37.65,6.15,56.65,6.04,18.68-.11,37.5-2.44,55.26-8.4,17.19-5.78,33.18-15.23,45.39-28.77,5.4-5.99,9.58-12.78,13.92-19.5,.6-.93,1.2-1.87,1.81-2.8,.75-1.14,1.52-2.28,2.3-3.41,5.95-8.63,13.2-15.59,22.72-20.13,9.45-4.51,19.71-6.85,29.74-9.7,9.89-2.81,19.35-6.39,28.01-12,16.49-10.69,28.96-26.72,37.46-44.28,20.73-42.83,15.78-91.89,10.34-137.72-.18-1.48-.36-2.94-.53-4.41-.13-1.09,.79-1.55,1.64-1.4,.65,.12,1.26,.59,1.36,1.4,.76,6.38,1.52,12.76,2.21,19.14,2.81,25.8,4.61,51.97,1.17,77.8Z"/><path class="cls-1" d="M433.71,377.83l11.08-1.17c.81-.08,1.5-.63,1.5-1.5,0-.75-.69-1.59-1.5-1.5l-11.08,1.17c-.81,.08-1.5,.63-1.5,1.5,0,.75,.69,1.59,1.5,1.5h0Z"/><g><path class="cls-1" d="M496.59,336.83c.08-.08,.16-.17,.23-.26,.12-.13,.22-.27,.33-.41h.01s.05-.08,.07-.1c.08-.11,.15-.21,.22-.31,.35-.48,.67-.99,.95-1.51,.12-.2,.23-.4,.33-.6s.2-.41,.29-.61c.04-.09,.08-.18,.12-.28,0,0,0-.01,.01-.02,.01-.02,.02-.05,.02-.05,.15-.39,.29-.79,.42-1.18,.26-.81,.44-1.64,.57-2.48,.13-.83,1.13-1.21,1.85-1.05,.38,.09,.65,.31,.82,.61,.22,.36,.29,.81,.22,1.24-.27,1.77-.83,3.5-1.62,5.11-.82,1.65-1.89,3.18-3.17,4.5l-1.67-2.6Z"/><path class="cls-1" d="M496.7,340.08c-.29-.05-.57-.19-.8-.4-.6-.54-.55-1.56,0-2.12,.24-.24,.47-.48,.69-.73,.08-.08,.16-.17,.23-.26,.12-.13,.22-.27,.33-.41h.01s.01-.02,.04-.05l-.5,3.97Z"/></g><path class="cls-2" d="M531.96,477.75c-2.03-3.99-4.19-7.91-6.45-11.78-.56-.96-1.13-1.92-1.71-2.87-.61,.93-1.21,1.87-1.81,2.8,.57,.98,1.15,1.96,1.71,2.95,26.26,45.87,36.7,99.7,32.27,152.27-4.64,55-25.63,109.12-61.82,151.08-42.99,49.85-104.65,77.23-155.2,118.02-52.95,42.73-94.11,98.71-132.9,154.06-32.29,46.07-62.17,94.41-84.29,146.22-.5,.54-1.01,1.07-1.51,1.61-.37,.4-.74,.81-1.05,1.25-.01,.01-.02,.03-.04,.04-.07,.07-.15,.13-.22,.21-.13,.14-.26,.3-.38,.45-.15,.08-.29,.18-.43,.34-.42,.48-.84,.97-1.26,1.45-7.64,7.45-17.13,20.39-24.2,32.18-2.7,4.17-5.3,8.41-7.72,12.75-1.15,2.07-2.22,4.22-3.01,6.44-.15,.11-.27,.25-.37,.42-.1,.17-.22,.33-.34,.49-.29,.36-.62,.68-.98,.97-.01,0-.03,.02-.04,.03-.21,.02-.42,.1-.64,.24-10.13,6.69-20.87,12.44-32.03,17.16-3.46,.27-6.92,.3-10.38,.07-12.95-2.52-25.02-8.69-34.57-17.81-1.4-1.33-3.52,.79-2.12,2.12,10.02,9.56,22.74,16.13,36.37,18.68,.16,.03,.31,.03,.45,.02,.75,.05,1.5,.09,2.25,.11-4.32,1.61-8.69,3.08-13.12,4.38-5.32,1.57-10.71,2.91-16.14,4.03-1.89,.39-1.09,3.28,.8,2.89,12.75-2.64,25.24-6.52,37.24-11.57,.24-.05,.46-.14,.65-.27,6.03-2.56,11.93-5.4,17.68-8.54,4.81-2.62,9.5-5.45,14.08-8.45-.22,1.76-.19,3.55,.16,5.37,.6,3.11,2.08,6.04,4.15,8.44-4.44,11.84-13.89,20.88-23.28,28.96-9.87,8.5-20.58,16.42-28.38,26.99-4.19,5.68-7.25,12.16-8.42,19.15-.31,1.89,2.58,2.7,2.89,.8,2.11-12.69,10.56-22.51,19.79-30.92,3.26-2.97,6.64-5.81,10.03-8.64-8.68,14.24-10.62,32.24-5.12,47.99,.63,1.81,3.53,1.03,2.89-.8-5.26-15.07-3.47-32.15,4.87-45.77,.08-.14,.14-.27,.17-.41,.44-.48,.72-1.08,.91-1.7,.14-.46,.24-.94,.4-1.39,.16-.33,.35-.65,.54-.96,.29-.47,.52-.94,.72-1.46,0-.01,0-.03,0-.04,4.94-4.21,9.75-8.57,14.04-13.46,4.23-4.83,7.84-10.16,10.28-16.09,.59,.48,1.2,.93,1.84,1.33,4.31,2.65,9.74,3.12,14.53,1.58,.12-.04,.23-.09,.35-.13-.9,8.52-.76,17.15,.41,25.66,.34,2.47,.77,4.94,1.29,7.39-.06,.1-.11,.21-.15,.33-3.7,12.03-9.06,23.48-15.93,34.03-1.06,1.62,1.54,3.13,2.59,1.51,6.17-9.47,11.13-19.69,14.81-30.37,4.25,15.99,12.24,31.07,23.71,42.99,8.8,9.15,20.99,16.96,34.21,14.68,1.9-.33,1.09-3.22-.8-2.89-7.85,1.35-15.39-1.49-21.87-5.88,11.65-2.14,23.63-2.37,35.35-.57,1.89,.29,2.7-2.6,.8-2.89-13.11-2.01-26.45-1.67-39.44,1.04-1.54-1.23-3.01-2.53-4.39-3.86-7.22-6.99-13.07-15.43-17.55-24.41-8.91-17.86-12.3-38.38-9.92-58.17,3.4-1.96,6.05-4.98,7.65-8.68,.02-.05,.03-.09,.05-.14,2.46,8.1,6.44,15.72,11.66,22.39-.1,7.6-1.89,15.08-5.24,21.9-.85,1.73,1.74,3.25,2.59,1.51,3.09-6.29,4.96-13.07,5.49-20.03,2.07,2.32,4.29,4.52,6.67,6.53,3.1,2.64,6.44,5,9.96,7.04,1.67,.97,3.19-1.62,1.51-2.59-11.94-6.91-21.44-17.63-27.05-30.22-1.61-3.6-2.84-7.36-3.76-11.2-.05-.21-.14-.39-.24-.53,.73-3.48,.94-7.08,1.06-10.61,.03-.84,.05-1.69,.08-2.53,3.79-16.56,8.71-42.72,7.36-49.95,.01-.12,.03-.23,.05-.35,.11-.44,.23-.87,.41-1.28-.02,.04-.03,.08-.05,.12,.13-.32,.2-.63,.12-.98,.16-.46,.33-.91,.4-1.39,.01-.07,.02-.14,.02-.22,19.15-44.05,43.88-85.67,70.82-125.43,19.47-28.74,39.9-56.96,61.42-84.2,21.47-27.18,44.52-53.27,70.6-76.13,49.97-43.81,113.01-70.97,159.23-119.27,38.02-39.74,61.51-92.11,69.14-146.35,7.6-54.03-.29-110.52-25.21-159.3Z"/><path class="cls-2" d="M617.39,169.5l4.62,4.94c.54,.57,1.59,.58,2.12,0,.57-.62,.57-1.51,0-2.12l-4.62-4.94c-.54-.57-1.59-.58-2.12,0-.57,.62-.57,1.51,0,2.12h0Z"/><path class="cls-2" d="M657,233.3c-.11-1.98-.23-3.96-.34-5.94-.04-.78-.66-1.54-1.5-1.5-.77,.03-1.55,.66-1.5,1.5,.11,1.98,.23,3.96,.34,5.94,.04,.78,.66,1.54,1.5,1.5,.77-.03,1.55-.66,1.5-1.5h0Z"/><path class="cls-2" d="M457.68,318.61c-1.96,3.89-5.25,6.88-8.6,9.57s-7.35,5.19-11.38,7.15c-3.82,1.86-8.35,4.01-12.7,3.72-3.93-.26-6.69-3.4-7.51-7.09-.63-2.82,.03-6.04,.82-8.76,.46-1.57,1.06-3.2,2.09-4.5s2.22-2.37,3.37-3.47c2.69-2.58,5.55-5.1,8.77-7,1.64-.97,3.44-1.63,5.21-2.3,2.24-.84,4.54-1.59,6.91-1.95,3.75-.56,8.04,.13,11.05,2.56,3.72,3,3.91,7.98,1.97,12.08-.82,1.74,1.76,3.26,2.59,1.51,2.02-4.28,2.48-9.51-.42-13.53-2.35-3.25-6.17-5.06-10.07-5.6-4.98-.7-9.78,.8-14.36,2.62-1.99,.79-3.88,1.62-5.67,2.81s-3.48,2.54-5.11,3.94c-2.86,2.46-6.29,5.22-7.97,8.67-1.55,3.2-2.34,6.96-2.42,10.51-.09,4.14,1.84,8.3,5.26,10.69,4.25,2.97,9.69,1.75,14.17,.05,5.38-2.04,10.5-4.78,15.14-8.19s8.93-7.02,11.44-11.99c.87-1.72-1.72-3.24-2.59-1.51Z"/></svg>