<?xml version="1.0" encoding="UTF-8"?><svg id="Layer_4" xmlns="http://www.w3.org/2000/svg" viewBox="0 0 288.34 269.9"><defs><style>.cls-1{fill:#d926a9;}</style></defs><path class="cls-1" d="M272.51,32.93c-6.57-2.5-13.71-2.62-20.64-2.74-8.2-.15-16.31-.76-24.38-2.31-15.56-2.99-29.51-9.2-43.71-15.99C170.94,5.74,157.37-.05,142.88,0c-29.33,.09-49.04,26.6-68.82,44.51-5.2,4.71-10.65,9.02-16.46,12.95-5.07,3.43-10.32,6.81-14.65,11.19-9.38,9.48-10.71,21.67-12.32,34.27-.89,6.95-2.1,14.25-6.74,19.79-4.18,4.98-9.95,8.34-14.66,12.76-10.59,9.94-11.67,23.48-5.21,36.2,2.57,5.06,5.91,9.57,9.83,13.5-.08,7.78,1.01,15.66,2.55,22.53,2.9,12.89,10.87,25.28,23.88,29.62,10.1,3.37,20.15,.63,30.24-1.23,9.39,12.96,24.52,22.68,38.61,28.29,19.85,7.9,43.04,7.66,61.87-2.99,8.94-5.06,15.14-12.88,22.96-19.3,8.48-6.95,19.92-7.32,29.64-11.86,18.87-8.81,35.65-25.53,45-44.09,9.94-19.72,11.63-43.24,2.45-63.35,.41-2.97,.77-5.92,1.08-8.85,1.46-13.43,1.49-26.9,.3-40.3,6.28-3.51,12.32-7.33,14.88-14.42,4.1-11.35-4.45-22.37-14.78-26.31ZM43.69,227.94c-6.52-2.03-11.31-7.23-14.34-13.19-3.3-6.48-4.36-13.86-4.8-21.05,12.5,7.83,27.87,11.44,42.45,10.25,16.81,0,23.98,7.67,34.43,12.07,11.92,5.02,24.02,4.27,35.01-2.79,11.34-7.28,18.59-18.58,27.68-28.22,10.59-11.25,22.82-15.67,37.93-17.06,12.93-1.19,25.1-3.73,32.95-15.05,7.25-10.46,8.13-23.44,9.34-35.7,1.42-14.38,5.4-27.68,17.23-36.93,.45-.35,.91-.68,1.38-1.01,.84,12.04-2.44,44.73-2.07,45.44-1.41,8.24-3.41,16.34-6.09,24.14-4.45,12.95-12.5,23.58-24.19,30.85-10.93,6.79-23.67,9.39-35.05,15.23-10.88,5.58-18.45,14.79-26.1,24.03-7.93,9.58-16.45,18.81-29.32,21.01-13.92,2.38-25.43-5.38-37.64-10.6-9.15-3.91-51.8,.73-58.77-1.44ZM219.96,119.57c-12-17.88-32.61-12.85-49.23-5.2-10.03,4.61-19.74,8.39-30.63,10.49-9.79,1.89-20.07,2.55-29.63,5.45-9.62,2.92-15.31,9.19-18.67,18.51-2.75,7.61-4.46,16.92-.4,24.4,1.16,2.13,2.79,3.89,4.4,5.69,2.16,2.41,2.96,3.98,3.03,7.31,.11,5.07,.91,9.37,4.05,13.5,4.11,5.41,9.84,8.13,16.04,9.72-6.18,.64-12.11-1.7-17.55-4.4-8.31-4.12-16.48-9.22-25.64-10.55-1.91-.55-5.03-1.02-5.37-.97-5.01-7.24-10.42-15-12.04-23.82-1.64-8.94,2.41-16.64,8.55-22.87,6.25-6.34,13.92-11.02,20.56-16.91,6.38-5.66,11.47-12.55,16.34-19.5,9.29-13.26,20.37-30.88,38.4-32.1,8.97-.61,16.01,5.05,23.54,8.98,7.48,3.91,15.54,6.19,23.92,7.09,9.31,1,18.9,.04,27.92-2.41,7.25-1.97,17.59-8.57,25.12-5.04-2.8,4.71-4.89,9.85-6.14,15.19-2.92,12.51-1.71,25.82-6.17,37.99-1.47,4.02-3.65,7.97-6.79,10.93,3.52-10.35,2.66-22.16-3.6-31.49Zm-42.84,20.43c-12.66-2.08-26.86,2.21-37.46,9.1-9.67,6.29-18.44,16.85-17.05,29.09,1.08,9.55,8.41,17.03,17.37,19.32-1.01,1-2.04,1.98-3.11,2.92-1,.88-2.05,1.74-3.14,2.56-.77-.8-1.83-1.38-3.16-1.54-7.06-.86-16.1-1.89-20.29-8.5-2.01-3.16-1.17-6.48-1.52-10.01-.34-3.42-1.75-6.25-3.91-8.89-2.15-2.62-4.75-4.62-5.54-8.09-.81-3.54-.02-7.3,.94-10.72,2.3-8.15,5.99-13.49,14.4-15.7,15.43-4.06,31.56-4.28,46.59-10.07,12.56-4.84,29.85-17.65,43.71-10.69,14.06,7.05,13.06,28.2,3.75,38.46-1.67,.24-3.34,.42-4.98,.58-3.36,.32-6.65,.71-9.87,1.22,1.28-9.41-7.08-17.46-16.7-19.04Zm6.35,19.27c-.4,.76-.58,1.51-.61,2.23-6.1,1.85-11.9,4.57-17.4,8.79-6.8,5.22-12.06,11.89-17.52,18.39-.61-.28-1.32-.44-2.14-.44-7.11,.03-13.59-5.59-13.36-12.97,.23-7.45,6.41-13.74,12.27-17.55,6.89-4.48,14.96-7.4,23.18-8.06,3.65-.29,7.86-.4,11.28,1.17,3.06,1.41,6.13,4.92,4.3,8.42Zm40.41,59.54c-8.82,5.08-18.67,5.93-27.76,10.1-7.88,3.62-13.62,10.33-19.83,16.14-14.29,13.36-34.61,17.67-53.47,13.21-10.38-2.46-20.07-7.22-28.68-13.48-4.04-2.93-8.1-6.26-11.65-10.02,.19,0,.38,0,.58,0,14.69,.11,26.62,10.94,40.5,14.35,13.9,3.41,28.23-.1,39.35-8.95,10.35-8.24,17.11-19.9,26.72-28.89,10.94-10.24,25.91-12.77,39.03-19.09,12.54-6.03,23.53-15.58,30.23-27.87,3.47-6.35,6.01-13.22,7.95-20.29,3.55,29.76-17.05,59.87-42.96,74.8Zm54.19-163.44c-.97,3.31-21.24,15.96-23.58,17.85-2.11,1.7-4.06,3.58-5.86,5.59-7.37-4.69-16.04-2.62-23.78,.17-9.34,3.36-18.54,5.89-28.56,5.8-10.11-.09-19.65-2.7-28.42-7.69-8.09-4.6-16.05-9.28-25.72-8.76-19.47,1.04-32.89,16.79-43.23,31.57-5.49,7.86-10.78,15.89-17.93,22.38-7.36,6.68-16.11,11.77-22.81,19.18-6.78,7.5-11.18,16.83-10.1,27.13,.99,9.44,5.55,17.84,10.71,25.67-12.49-.53-25.05-5.18-34.58-13.22-5.4-5.09-10.17-11.83-10.8-12.97-2.81-5.03-4.77-11.18-3.06-16.9,1.58-5.28,6.02-8.89,10.15-12.23,8.49-6.85,15.35-13.34,18.16-24.29,2.79-10.84,1.36-23.3,7.01-33.29,5.85-10.35,18.47-15.76,27.46-22.96,10.08-8.07,18.95-17.48,28.35-26.3,8.88-8.33,18.62-17.09,30.56-20.58,13.5-3.95,27.65,.37,40.06,5.88,12.75,5.67,24.92,12.39,38.32,16.5,12.85,3.95,26.24,5.93,39.66,6.23,6.33,.14,13-.2,19.01,2.15,4.97,1.95,10.71,7.11,8.97,13.06Z"/><path class="cls-1" d="M159.37,160.79c-6.43,0-6.45,10,0,10s6.45-10,0-10Z"/></svg>