<?xml version="1.0" encoding="UTF-8"?><svg id="Layer_1" xmlns="http://www.w3.org/2000/svg" viewBox="0 0 697.18 784.42"><defs><style>.cls-1{fill:#d926a9;}</style></defs><path class="cls-1" d="M253.2,129.61c-.64,11.7-.63,23.42,.15,35.11,.72,10.93,1.61,22.28,4.56,32.87,5.22,18.69,18.86,37.16,33.46,49.7s34.14,21.13,53.89,18.82,35.42-13.37,49.18-26.21c7.23-6.75,14.89-14.05,18.88-23.27,4.22-9.74,5.15-20.98,6.94-31.36,1.96-11.36,3.8-22.74,5.33-34.17,1.44-10.79,2.79-21.56,.95-32.39-3.31-19.44-15.7-36.38-28.93-50.41-14.05-14.9-32.24-23.62-52.96-23.04-22.18,.61-42.76,11.58-58,27.3-8.05,8.31-15.72,17.49-22.34,26.99-6.21,8.9-10.66,18.75-11.06,29.71-.24,6.44,9.76,6.43,10,0,.65-17.62,15.1-32.49,26.15-44.94,12.07-13.6,26.97-24.26,45.07-27.92,17.5-3.54,36.28,.82,49.72,12.73s24.83,26.44,30.32,42.76c6.27,18.65,1.3,39.33-1.77,58.18-1.61,9.89-3.31,19.76-5.11,29.61s-5.04,17.57-12.04,25.01c-11.35,12.05-24.84,24-40.86,29.18-17.32,5.6-35.31,1.26-50.05-8.87-8.17-5.61-15.24-12.97-21.18-20.88-6.04-8.04-12.03-16.99-15.15-26.62-3.4-10.5-4.26-21.85-4.99-32.8-.78-11.69-.78-23.41-.15-35.11,.35-6.43-9.65-6.41-10,0h0Z"/><path class="cls-1" d="M364.47,53.3c6.01-10.45,11.14-21.31,15.51-32.53,.58-1.49-.04-3.85-1.29-4.86-17.77-14.43-41.04-12.88-61.62-5.91-10.93,3.7-21.65,8.39-30.85,15.45-8.37,6.42-15.28,14.31-21.56,22.75-6.61,8.88-12.64,18.26-18.45,27.67s-11.46,20.11-14.02,31.35c-5.41,23.76-.32,48.8,1.19,72.73,.83,13.21,1.04,26.66-1.55,39.69-2.66,13.38-9.56,25.54-11.47,39.07-.45,3.19,1.25,6.28,4.82,6.33,18.6,.25,37.2,.5,55.79,.75,2.76,.04,4.93-2.32,5-5,.28-10.21,.57-20.41,.85-30.62,.18-6.44-9.82-6.43-10,0-.28,10.21-.57,20.41-.85,30.62l5-5c-18.6-.25-37.2-.5-55.79-.75,1.61,2.11,3.21,4.22,4.82,6.33,1.53-10.86,6.52-20.63,9.54-31.08,2.98-10.34,4.17-21.2,4.35-31.93,.38-22.28-3.68-44.33-3.97-66.59-.14-11.33,1.1-22.5,5.44-33.05,4.13-10.05,10.27-19.2,16.17-28.28,11.07-17.03,22.83-34.11,41.3-43.75,19.75-10.32,49.36-19.46,68.77-3.7l-1.29-4.86c-4.06,10.42-8.93,20.45-14.5,30.14-3.21,5.59,5.42,10.63,8.63,5.05h0Z"/><path class="cls-1" d="M375.11,24.73c9.73-.72,18.63,2.74,27.26,6.87,7.83,3.75,13.86,7.78,17.85,15.74,8.03,16.03,13.02,34.11,16.62,51.6,7.27,35.32,7.77,72.75,2.28,108.38-2.95,19.18-8.29,37.99-18.88,54.42l4.32-2.48c-9.62,.37-19.25,.73-28.87,1.1l5,5c.11-10.54-.69-20.99-2.24-31.42-.94-6.34-10.58-3.65-9.64,2.66,1.42,9.53,1.99,19.13,1.88,28.76-.03,2.63,2.31,5.1,5,5,5.77-.22,11.55-.44,17.32-.66,4.51-.17,12.17,1.17,15.48-2.41s5.4-8.82,7.4-13.03c2.23-4.71,4.19-9.56,5.86-14.5,6.79-20.06,9.21-41.59,10.35-62.64,2.37-43.65-3.29-88.24-20.48-128.66-4.68-11-10.61-18.66-21.4-24.13-10.89-5.52-22.66-10.54-35.11-9.61-6.38,.47-6.43,10.48,0,10h0Z"/><path class="cls-1" d="M259.68,126.79l14.99,.97c6.43,.42,6.4-9.58,0-10l-14.99-.97c-6.43-.42-6.4,9.58,0,10h0Z"/><path class="cls-1" d="M329.42,137.58c6.07-1.83,11.94-1.66,17.93,.39,6.1,2.09,8.72-7.56,2.66-9.64-7.56-2.59-15.6-2.69-23.24-.39-6.15,1.85-3.53,11.51,2.66,9.64h0Z"/><path class="cls-1" d="M409.11,138.62c3.12,0,6.25,0,9.37,0,6.43,0,6.45-10,0-10-3.12,0-6.25,0-9.37,0-6.43,0-6.45,10,0,10h0Z"/><path class="cls-1" d="M413.69,130.99c-8.31-11.69-21.89-14.45-35.45-15.05-12.74-.56-29.36,.06-34.69,14.22-4.58,12.17,6.22,27.37,14.8,35.23,9.77,8.95,23.84,10.94,35.9,5.62,13.45-5.94,21.06-20.26,21.06-34.6,0-6.43-10-6.45-10,0,0,11.23-6.1,22.61-17.2,26.33-13.1,4.38-23.22-3.04-30.16-13.64-3.05-4.66-7.69-11.31-4.37-16.9s10.59-6.35,16.28-6.45c11.6-.2,27.69-.27,35.19,10.29,3.7,5.2,12.37,.21,8.63-5.05h0Z"/><path class="cls-1" d="M324.21,130.99c-2.38,10.08-8.93,19.62-19.07,23.09-9.25,3.17-23.9,.71-27.77-9.68-1.77-4.75-.62-12.23,1.05-16.92,2.23-6.23,7.59-7.62,13.56-8.83s12.31-1.76,18.3-.41c5.22,1.17,12.57,4.37,12.25,10.7-.32,6.43,9.68,6.41,10,0,.7-13.89-14.85-20.47-26.45-21.32s-29.75,1.34-35.72,13.38c-5.52,11.12-5.7,27.02,3.85,35.85,8.81,8.16,22.26,10.68,33.58,6.89,13.43-4.5,22.86-16.54,26.06-30.07,1.48-6.26-8.16-8.93-9.64-2.66h0Z"/><path class="cls-1" d="M318.71,144.51c.15,5.62-1.47,10.74-3.48,15.94-1.83,4.74-4.6,9.74-5.15,14.84-1.25,11.62,15.07,12.53,23.29,13.29,7.95,.73,22.63,2.09,25.3-8.04,1.3-4.94-.67-10.74-1.43-15.65-1.02-6.62-1.78-13.26-2.38-19.93s-10.58-6.42-10,0c.8,8.85,1.9,17.67,3.35,26.43,.23,1.38,1.4,4.4,.87,5.58-.84,1.84-2.07,1.54-3.83,1.7-4.22,.4-8.58,.27-12.79-.19-1.98-.21-3.95-.54-5.9-.95-1.51-.31-5.03-.55-6.2-1.59-1.14-.11-1.17-.36-.09-.75,.35-1.09,.72-2.17,1.11-3.24,.59-1.62,1.24-3.23,1.88-4.83,2.93-7.35,5.64-14.58,5.43-22.62-.17-6.42-10.17-6.45-10,0h0Z"/><path class="cls-1" d="M295.41,206.97c13.91,3.02,27.47-2.11,41.36-.5,13.26,1.54,25.13,9.2,38.22,2.13-2.02-2.62-4.04-5.24-6.06-7.85-8.73,9.45-21.38,20.06-34.45,22.41-6.92,1.24-12.51-3.03-17.15-7.61-5.18-5.11-9.9-10.72-14.78-16.1-4.33-4.78-11.39,2.31-7.07,7.07,10.01,11.03,21.62,28.37,38.64,26.74,8.09-.77,16.08-5.19,22.82-9.46s13.43-9.87,19.08-15.98c3.85-4.17-.99-10.59-6.06-7.85-10.5,5.67-23.96-2.92-34.91-3.63-12.35-.81-24.69,3.66-36.97,1-6.27-1.36-8.95,8.28-2.66,9.64h0Z"/><path class="cls-1" d="M275.28,260.64c.2,4.09,.4,8.18,.6,12.28,2.11-1.61,4.22-3.21,6.33-4.82-9.89-4.07-20.26,3.24-28.69,7.77-9.65,5.18-19.13,10.71-27.83,17.39-8.22,6.32-15.32,14.23-24.73,18.85-9.57,4.7-19.93,7.14-29.07,12.83-36.28,22.58-49.55,66.8-58.93,105.97-6.13,25.6-10.25,51.65-12.52,77.87-.55,6.41,9.45,6.37,10,0,1.89-21.84,5.14-43.53,9.81-64.94s9.63-40.97,17.67-60.24c7.32-17.54,17.9-34.35,33.17-46.02,7.5-5.73,15.82-9.28,24.6-12.55,9.32-3.47,17.25-7.91,24.82-14.39,8.68-7.42,17.3-14.27,27.18-20.07,4.86-2.86,9.82-5.53,14.8-8.16s11.14-7.1,17.05-4.67c2.97,1.22,6.47-1.86,6.33-4.82-.2-4.09-.4-8.18-.6-12.28-.31-6.41-10.31-6.44-10,0h0Z"/><path class="cls-1" d="M275.61,260.96c-.99,5.57,3.05,12.97-1.46,17.1-3.86,3.54-8.34,5.8-10.85,10.65l7.85-1.01c-2.09-2.56-3.62-5.41-4.7-8.53-3.21,.89-6.43,1.77-9.64,2.66,9.38,27.01,37.36,38.04,63.79,40.2,27.06,2.21,59.98,1.22,80.96-18.44,10.26-9.61,16.96-23.32,15.68-37.56-.26-2.88-2.09-4.74-5-5-5.37-.48-10.74-.96-16.11-1.45-1.57-.14-3.66,1.02-4.32,2.48-5.55,12.35,2.14,25.73,15.99,26.09,2.18,.06,4.26-1.59,4.82-3.67,2.29-8.47-2.82-17.44-11.49-19.37-3.82-.85-6.99,2.34-6.15,6.15,.74,3.33,2.18,5.85,4.26,8.51,3.97,5.06,11-2.06,7.07-7.07-.98-1.24-1.36-2.59-1.69-4.09l-6.15,6.15c3.38,.75,5.44,3.63,4.51,7.07l4.82-3.67c-5.72-.15-9.84-5.52-7.35-11.04l-4.32,2.48c5.37,.48,10.74,.96,16.11,1.45l-5-5c1.25,13.89-6.42,26.54-17.55,34.43-12.99,9.21-29.55,11.54-45.08,12.04-27.88,.9-67.28-2-78.15-33.32-2.1-6.04-11.74-3.46-9.64,2.66,1.66,4.84,4.03,8.99,7.27,12.95,2,2.44,6.48,1.65,7.85-1.01,2.52-4.88,8.38-6.9,11.65-11.25,1.74-2.32,2.8-5.02,2.89-7.95,.11-3.63-1.86-7.36-1.22-10.93,1.12-6.29-8.52-8.99-9.64-2.66h0Z"/><path class="cls-1" d="M271.47,272.37c-2.79,1.7-5.69,3.18-8.69,4.47-2.48,1.06-3.04,4.72-1.79,6.84,1.5,2.57,4.35,2.86,6.84,1.79,3-1.29,5.9-2.77,8.69-4.47,2.31-1.4,3.17-4.48,1.79-6.84s-4.52-3.2-6.84-1.79h0Z"/><path class="cls-1" d="M410.33,274.28c11.79,9.07,23.68,18.21,36.93,25.08,12.96,6.72,27.26,10.07,40.41,16.3,22.23,10.53,40.14,28.36,53.09,49.07,30.93,49.46,32.5,111.17,32.23,167.73-.17,36.07-2.37,72.1-6.5,107.93-.73,6.38,9.27,6.33,10,0,3.75-32.57,5.92-65.31,6.4-98.1,.46-31.37,.02-63.04-4.17-94.18-7.09-52.71-28.89-107.71-76.66-136.12-14.16-8.42-30.12-12.08-44.95-18.92-15.19-7.01-28.54-17.3-41.73-27.44-5.1-3.92-10.08,4.76-5.05,8.63h0Z"/><path class="cls-1" d="M213.99,310.15c26.49,25.68,57.34,49.54,95.08,54.13,10.88,1.32,21.84,1.17,32.77,.92s21.09-.48,31.55-1.95c17.56-2.47,33.7-9.33,47.6-20.35,14.62-11.59,25.56-27.29,31.57-44.93,2.08-6.1-7.57-8.72-9.64-2.66-10.05,29.47-36.07,51.69-66.61,57.4-9.78,1.83-19.78,2.12-29.7,2.37s-19.93,.56-29.87-.09c-17.92-1.17-34.72-6.88-50.2-15.86-16.82-9.76-31.56-22.57-45.48-36.05-4.62-4.48-11.7,2.58-7.07,7.07h0Z"/><path class="cls-1" d="M174.95,512.06c-4.99,17.45,.93,34.8,7.28,51.06,3.64,9.31,7.29,18.61,10.94,27.92,1.18,3,4.52,8.22,3.11,11.3-1.85,4.06-5.43,7.88-7.8,11.69-4.63,7.43-9.01,15.12-12.3,23.25-3.54,8.77-4.03,17.84-5.66,27.05-3.06,17.3-15.05,30.99-20.49,47.46-6.29,19.05-5.46,39.58-4.54,59.34,.3,6.41,10.3,6.44,10,0-.82-17.75-1.74-36.03,3.16-53.32,4.57-16.13,15.94-29.26,20.34-45.44,2.44-8.99,2.25-18.47,5.01-27.39s7.47-16.7,12.18-24.39c2.17-3.55,4.44-7.03,6.82-10.45,2.09-3.01,4.25-5.84,3.98-9.69-.29-4.11-2.68-8.29-4.16-12.07-1.76-4.5-3.53-9.01-5.29-13.51-7.24-18.47-18.73-39.87-12.92-60.15,1.77-6.2-7.87-8.84-9.64-2.66h0Z"/><path class="cls-1" d="M502.72,495.45c4.57,16.67,9.8,35.47,3.3,52.35-2.89,7.49-8.12,14.34-6.52,22.82,.68,3.64,2.57,6.83,4.19,10.11,2.13,4.3,3.61,8.86,4.69,13.53,4.24,18.27,2.45,37.36,5.54,55.82s8.69,37.25,12.69,55.86c4.78,22.25,8.97,44.62,12.63,67.08,1.03,6.34,10.67,3.65,9.64-2.66-3.19-19.57-6.78-39.08-10.81-58.49s-8.9-38.14-13.09-57.28c-4.06-18.5-2.74-37.49-5.64-56.13-1.33-8.53-3.88-16.51-7.76-24.22-2.17-4.32-2.99-7.42-1.2-12.09,1.43-3.73,3.52-7.17,4.98-10.9,7.39-18.84,2.13-39.77-3-58.47-1.7-6.2-11.35-3.57-9.64,2.66h0Z"/><path class="cls-1" d="M566.44,639.28c-2.55,17.1-11.6,31.94-17.83,47.81-6.51,16.58-10.13,34.1-13.73,51.49-1.3,6.28,8.34,8.97,9.64,2.66,3.6-17.39,7.22-34.91,13.73-51.49,6.24-15.88,15.28-30.69,17.83-47.81,.94-6.3-8.7-9.01-9.64-2.66h0Z"/><path class="cls-1" d="M100.42,508.6c5.21,40.3,8.9,80.8,11.01,121.38,1.05,20.29,1.72,40.6,1.99,60.92,.27,20.03-.71,40.25,.76,60.23,.69,9.35,4.87,14.88,12.08,20.55s15.33,11.08,24.95,10.14c6.35-.62,6.41-10.63,0-10-8.14,.8-14.92-4.62-20.84-9.6-2.61-2.19-4.94-4.44-5.78-7.85-1.05-4.3-.7-9.17-.82-13.56-.49-18.6-.13-37.21-.45-55.81-.64-37.68-2.63-75.34-5.97-112.88-1.88-21.22-4.21-42.4-6.94-63.52-.81-6.29-10.82-6.37-10,0h0Z"/><path class="cls-1" d="M151.21,778.19c6.43,0,6.45-10,0-10s-6.45,10,0,10h0Z"/><path class="cls-1" d="M544.69,770.78c-102.41,.97-204.82,1.17-307.23,.59-29.26-.17-58.52-.4-87.78-.69-6.44-.06-6.44,9.94,0,10,102.41,1.02,204.82,1.27,307.23,.74,29.26-.15,58.52-.37,87.78-.65,6.43-.06,6.45-10.06,0-10h0Z"/><path class="cls-1" d="M287.57,138.47c1.76-2.86,8.22-2.61,11.09-2.54,4.7,.12,8.55,1.44,11.51,5.18,3.99,5.04,11.03-2.08,7.07-7.07-4.88-6.17-12.69-8.33-20.29-8.09-6.73,.22-14.22,1.27-18.02,7.47-3.38,5.5,5.27,10.53,8.63,5.05h0Z"/><path class="cls-1" d="M299.12,142.34c6.43,0,6.45-10,0-10s-6.45,10,0,10h0Z"/><path class="cls-1" d="M368.65,145.92c8.17-5.15,17.99-4.95,26,.4,5.37,3.58,10.38-5.08,5.05-8.63-10.83-7.23-25.1-7.34-36.1-.4-5.43,3.42-.42,12.08,5.05,8.63h0Z"/><path class="cls-1" d="M382.58,149.1c6.43,0,6.45-10,0-10s-6.45,10,0,10h0Z"/></svg>