<?xml version="1.0" encoding="UTF-8"?><svg id="Layer_1" xmlns="http://www.w3.org/2000/svg" viewBox="0 0 683 901"><defs><style>.cls-1{fill:#d926a9;}</style></defs><path class="cls-1" d="M242.46,148.15c-.75,13.56-.72,27.14,.2,40.69,.82,12.05,1.84,24.47,4.94,36.17s9.22,22.1,15.99,31.91c6.36,9.23,13.6,17.95,22.08,25.31,17.24,14.95,39.88,24.55,62.97,21.45s40.74-16.5,56.41-31.5c7.85-7.51,15.82-15.49,20-25.7,4.75-11.61,5.8-25.08,7.9-37.36,2.23-13,4.3-26.04,6-39.12,1.59-12.26,2.81-24.46,.27-36.68-4.58-21.98-19.05-41.23-34.45-56.97-15.86-16.21-36.79-25.15-59.62-24.1-25.1,1.15-48.11,13.8-65.24,31.73-8.95,9.37-17.56,19.62-24.95,30.27-6.96,10.03-12.02,21.15-12.44,33.5-.22,6.44,9.78,6.43,10,0,.69-20.4,17.4-37.62,30.18-52.03,13.49-15.21,30.05-27.24,50.15-31.79,19.67-4.45,41.52-.52,57.26,12.45s29.26,30.18,36.26,48.63c8.16,21.52,2.88,44.96-.64,66.94-1.86,11.62-3.9,23.21-5.97,34.79s-4.8,20.36-12.45,28.86c-12.96,14.42-28.99,28.69-47.56,35.17-20.47,7.14-41.93,2.29-59.49-9.79-9.53-6.56-17.73-15.15-24.65-24.39s-13.85-19.68-17.39-30.86c-3.75-11.83-4.73-24.6-5.57-36.92-.92-13.55-.94-27.13-.2-40.69,.35-6.43-9.65-6.41-10,0h0Z"/><path class="cls-1" d="M368.63,60.32c6.86-11.91,12.73-24.3,17.71-37.11,.58-1.49-.04-3.85-1.29-4.86-20.29-16.57-47.1-14.4-70.52-6.38-12.44,4.26-24.57,9.66-35.01,17.76-9.52,7.38-17.36,16.47-24.49,26.12-7.71,10.43-14.8,21.43-21.54,32.5s-12.46,22.33-15.22,34.77c-5.99,26.99-.24,55.41,1.48,82.57,.98,15.42,1.19,31.11-1.88,46.32-3.06,15.16-10.93,28.94-13.05,44.3-.44,3.19,1.24,6.28,4.82,6.33,21.32,.29,42.63,.57,63.95,.86,2.76,.04,4.93-2.32,5-5,.32-11.7,.65-23.4,.97-35.1,.18-6.44-9.82-6.43-10,0-.32,11.7-.65,23.4-.97,35.1l5-5c-21.32-.29-42.63-.57-63.95-.86l4.82,6.33c1.7-12.37,7.39-23.5,10.86-35.38,3.55-12.15,4.88-24.92,5.04-37.54,.33-26.06-4.6-51.85-4.57-77.89,.01-13.06,1.88-25.84,7.23-37.83,4.97-11.14,11.79-21.36,18.43-31.55,13.01-19.97,26.96-39.38,48.85-50.26,22.7-11.27,55.72-21.03,77.68-3.1l-1.29-4.86c-4.67,12-10.28,23.57-16.7,34.72-3.22,5.59,5.42,10.63,8.63,5.05h0Z"/><path class="cls-1" d="M381.45,27.2c10.95-.86,21.06,2.98,30.81,7.6s16.67,9.04,21.4,18.43c9.27,18.42,15.05,39.19,19.2,59.31,8.38,40.6,8.96,83.52,2.73,124.48-3.37,22.16-9.51,43.97-21.78,62.94l4.32-2.48c-11.03,.42-22.06,.84-33.09,1.26l5,5c.14-12.02-.77-23.93-2.54-35.81-.95-6.34-10.58-3.65-9.64,2.66,1.64,10.98,2.31,22.06,2.19,33.16-.03,2.63,2.32,5.1,5,5,6.49-.25,12.98-.49,19.47-.74,5.18-.2,14.33,1.37,17.94-2.99,3.49-4.22,5.97-9.95,8.29-14.88,2.6-5.53,4.85-11.23,6.76-17.02,7.6-23,10.29-47.62,11.53-71.71,2.55-49.61-3.99-100.22-23.54-146.13-2.52-5.93-5.22-11.72-9.5-16.61s-9.48-7.92-14.94-10.67c-12.27-6.19-25.58-11.89-39.61-10.78-6.37,.5-6.43,10.51,0,10h0Z"/><path class="cls-1" d="M249.15,144.18c5.73,.37,11.45,.74,17.18,1.12,6.43,.42,6.4-9.58,0-10-5.73-.37-11.45-.74-17.18-1.12-6.43-.42-6.4,9.58,0,10h0Z"/><path class="cls-1" d="M328.89,156.58c7.07-2.13,13.96-1.95,20.94,.45,6.1,2.09,8.72-7.56,2.66-9.64-8.55-2.93-17.61-3.05-26.25-.45-6.15,1.85-3.53,11.51,2.66,9.64h0Z"/><path class="cls-1" d="M420.43,157.74c3.58,0,7.16,0,10.74,0,6.43,0,6.45-10,0-10-3.58,0-7.16,0-10.74,0-6.43,0-6.45,10,0,10h0Z"/><path class="cls-1" d="M425.04,150.1c-9.44-13.35-25.16-16.27-40.55-16.91-13.95-.57-32.13,.03-38.32,15.28-3.04,7.47-.64,15.35,3.09,22.09s8.33,13.56,14.09,18.61c11.13,9.75,26.85,11.64,40.25,5.54,14.85-6.77,23.24-22.87,23.2-38.78-.02-6.43-10.02-6.45-10,0,.03,13.33-7.41,26.87-20.67,31.01-15.03,4.7-26.66-3.51-34.67-15.65-3.68-5.58-9.23-13.45-5.49-20.25s12.15-7.91,18.89-8.05c13.73-.29,32.7-.37,41.55,12.15,3.69,5.21,12.36,.22,8.63-5.05h0Z"/><path class="cls-1" d="M323.81,149.92c-2.85,12.18-11.07,23.66-23.5,27.33-10.92,3.23-29.26-.37-32.03-13.59-1.2-5.72-.23-13.41,1.89-18.84,2.67-6.85,8.71-8.47,15.36-9.85,7.01-1.46,14.54-2.2,21.6-.62,6.34,1.42,15.24,5.29,14.79,13.01-.37,6.43,9.63,6.41,10,0,.94-16.2-18.17-23.36-31.43-23.82-13.11-.45-31.89,1.86-38.41,14.95-6.06,12.16-6.53,29.72,3.59,39.7s25.1,12.61,38,8.49c15.35-4.9,26.18-18.74,29.79-34.11,1.47-6.26-8.17-8.93-9.64-2.66h0Z"/><path class="cls-1" d="M317.55,165.23c.38,12.53-7.48,22.42-9.74,34.28-2.53,13.24,15.6,14.44,24.78,15.4s26.76,2.86,29.44-8.84c1.32-5.75-1.02-12.51-1.88-18.19-1.11-7.35-1.95-14.73-2.62-22.13-.57-6.36-10.58-6.42-10,0,.92,10.25,2.2,20.47,3.91,30.62,.26,1.56,1.66,5.42,.93,6.95-1.05,2.2-4.79,1.8-6.75,1.91-4.74,.26-9.51,.12-14.22-.47-2.25-.28-4.47-.68-6.68-1.16-1.04-.23-6.76-1.01-7.2-1.93-.35-.75,1.21-3.9,1.48-4.64,.76-2.13,1.62-4.23,2.46-6.33,3.3-8.25,6.37-16.44,6.09-25.46-.2-6.42-10.2-6.45-10,0h0Z"/><path class="cls-1" d="M290.3,236.11c15.94,3.51,31.53-2.52,47.44-.58,14.83,1.81,28.6,10.56,43.22,2.51-2.02-2.62-4.04-5.24-6.06-7.85-5.48,5.94-11.51,11.27-18.27,15.72-6.37,4.19-13.76,8.66-21.33,10.1-8.02,1.53-14.47-2.93-19.98-8.26-6.19-5.99-11.77-12.68-17.55-19.05-4.33-4.78-11.39,2.31-7.07,7.07,11.31,12.46,24.69,32.56,44,30.4,9.08-1.02,17.95-5.89,25.55-10.7,8.01-5.08,15.3-11.23,21.72-18.2,3.83-4.15-.99-10.64-6.06-7.85-12.11,6.67-27.38-3.11-39.94-4.04-14.37-1.06-28.73,4.23-43.01,1.09-6.27-1.38-8.95,8.26-2.66,9.64h0Z"/><path class="cls-1" d="M267.77,298.33c.23,4.69,.46,9.38,.69,14.07l7.52-4.32c-11.26-4.83-21.59,1.97-31.41,7.2-10.9,5.8-21.69,11.89-31.62,19.25-9.69,7.2-17.98,16.58-28.66,22.36s-22.86,8.37-33.45,14.59c-42.83,25.15-58.32,77.02-69.16,122.31-7,29.24-11.71,59-14.29,88.95-.55,6.41,9.45,6.37,10,0,2.18-25.22,5.94-50.27,11.35-75,5.19-23.75,11.24-47.89,20.85-70.29,8.44-19.67,20.43-38.44,37.65-51.55,8.99-6.84,18.89-10.89,29.37-14.84,10.45-3.94,19.26-9.15,27.72-16.42,9.97-8.57,20-16.37,31.38-23.02,5.6-3.27,11.31-6.33,17.04-9.36,4.89-2.58,12.42-8.02,18.19-5.55,3.21,1.38,7.73-.13,7.52-4.32-.23-4.69-.46-9.38-.69-14.07-.31-6.41-10.31-6.44-10,0h0Z"/><path class="cls-1" d="M268.11,298.89c-1.23,6.57,3.56,14.74-1.72,19.78-4.35,4.15-9.61,6.6-12.46,12.19l7.85-1.01c-2.49-3.03-4.31-6.4-5.57-10.1l-9.64,2.66c10.44,30.33,42,42.92,71.63,45.47,30.87,2.66,68.65,1.69,92.74-20.57,11.78-10.89,19.58-26.55,18.07-42.82-.27-2.88-2.09-4.74-5-5-6.15-.55-12.31-1.11-18.46-1.66-1.58-.14-3.65,1.02-4.32,2.48-6.2,13.58,2.44,28.5,17.7,28.8,2.2,.04,4.24-1.59,4.82-3.67,2.6-9.26-3.14-19.28-12.66-21.3-3.81-.81-7,2.31-6.15,6.15s2.39,6.48,4.69,9.43c3.97,5.06,11-2.06,7.07-7.07-1.2-1.54-1.71-3.15-2.12-5.02l-6.15,6.15c4.24,.9,6.87,4.73,5.67,9l4.82-3.67c-7.15-.14-12.17-6.95-9.06-13.75l-4.32,2.48c6.15,.55,12.31,1.11,18.46,1.66l-5-5c1.53,16.43-7.87,31.51-21.19,40.58-15.01,10.22-33.76,12.86-51.51,13.42-32.21,1.02-77.64-2.52-90.11-38.73-2.08-6.05-11.73-3.46-9.64,2.66,1.85,5.43,4.51,10.09,8.14,14.52,1.99,2.42,6.49,1.67,7.85-1.01,2.85-5.6,9.52-7.86,13.28-12.79,1.93-2.53,3.14-5.47,3.28-8.68,.18-4.3-2.16-8.66-1.37-12.89,1.18-6.29-8.46-8.99-9.64-2.66h0Z"/><path class="cls-1" d="M263.03,312.41c-3.2,1.94-6.52,3.65-9.96,5.12-2.48,1.06-3.04,4.72-1.79,6.84,1.5,2.57,4.35,2.86,6.84,1.79,3.44-1.47,6.76-3.18,9.96-5.12,5.49-3.33,.47-11.98-5.05-8.63h0Z"/><path class="cls-1" d="M422.2,313.33c13.3,10.23,26.7,20.55,41.61,28.38,14.71,7.72,30.91,11.6,45.94,18.54,25.74,11.89,46.54,32.29,61.61,56.07,36.2,57.14,37.98,128.73,37.63,194.27-.22,41.1-2.74,82.17-7.44,123.01-.74,6.38,9.27,6.33,10,0,4.29-37.24,6.77-74.67,7.33-112.16,.54-36.2,.03-72.75-4.83-108.68-8.12-59.93-33.02-122.42-87.24-154.8-15.95-9.53-33.88-13.78-50.68-21.34-17.84-8.02-33.46-20.07-48.88-31.93-5.1-3.92-10.08,4.76-5.05,8.63h0Z"/><path class="cls-1" d="M197.3,354.56c30.53,29.61,66.01,56.9,109.56,61.95,12.19,1.41,24.5,1.2,36.75,.92s24.31-.58,36.35-2.3c19.58-2.79,37.7-10.54,53.24-22.78,16.8-13.23,29.45-31.2,36.33-51.43,2.08-6.11-7.58-8.73-9.64-2.66-11.58,34.06-41.7,59.78-76.99,66.32-11.06,2.05-22.35,2.42-33.57,2.71-11.58,.3-23.2,.67-34.77-.09-20.51-1.35-39.77-7.81-57.52-18.06-19.48-11.25-36.57-26.05-52.66-41.66-4.62-4.48-11.7,2.58-7.07,7.07h0Z"/><path class="cls-1" d="M152.75,586.69c-5.83,20.16,1.36,40.29,8.69,59.03,3.98,10.18,7.97,20.35,11.96,30.52,1.74,4.44,5.68,10.32,3.28,14.74-2.54,4.67-6.17,8.97-8.98,13.51-5.18,8.38-10.1,17.05-13.76,26.21-3.9,9.8-4.44,20.01-6.23,30.28-3.42,19.7-16.97,35.24-23.29,53.91-7.44,21.97-6.47,45.69-5.42,68.53,.3,6.41,10.3,6.44,10,0-.94-20.23-1.99-41.06,3.5-60.79,5.28-19,18.81-34.41,23.71-53.53,2.6-10.15,2.43-20.8,5.61-30.84,3.04-9.62,8.36-18.6,13.57-27.18,2.5-4.11,5.12-8.14,7.85-12.1,2.56-3.71,5.32-7.07,4.69-11.84s-3.45-9.89-5.24-14.45c-1.99-5.09-3.99-10.17-5.98-15.26-8.2-20.94-20.96-45.1-14.32-68.07,1.79-6.19-7.86-8.84-9.64-2.66h0Z"/><path class="cls-1" d="M528.42,567.26c5.25,19.17,11.09,40.49,3.95,59.95-3.29,8.96-9.66,16.89-7.49,26.98,.94,4.38,3.46,8.2,5.33,12.2,2.26,4.82,3.78,9.97,4.93,15.16,4.56,20.64,2.63,42.12,6.12,62.94,3.66,21.89,10.14,43.44,14.78,65.16,5.37,25.13,10.1,50.39,14.23,75.76,1.03,6.34,10.67,3.65,9.64-2.66-3.66-22.47-7.78-44.87-12.42-67.16-4.61-22.2-10.36-44.12-15.15-66.27-4.53-20.96-3.02-42.48-6.3-63.59-1.49-9.59-4.28-18.71-8.69-27.35-2.42-4.74-3.73-8.53-1.9-13.78,1.67-4.8,4.42-9.18,6.25-13.93,8.2-21.27,2.13-45.01-3.65-66.06-1.7-6.2-11.35-3.57-9.64,2.66h0Z"/><path class="cls-1" d="M601.46,732.51c-2.87,19.51-13.21,36.48-20.34,54.57-7.52,19.08-11.69,39.23-15.83,59.25-1.3,6.28,8.34,8.97,9.64,2.66,4.14-20.01,8.31-40.17,15.83-59.25s17.47-35.04,20.34-54.57c.93-6.3-8.71-9.01-9.64-2.66h0Z"/><path class="cls-1" d="M67.35,582.53c5.93,45.86,10.14,91.94,12.57,138.12,1.21,23.09,1.98,46.2,2.31,69.32,.32,22.59-.32,45.24,.75,67.81,.25,5.18,.61,10.55,3.28,15.14,2.51,4.31,6.47,7.48,10.33,10.52,8.16,6.43,17.35,12.66,28.24,11.53,6.34-.66,6.41-10.66,0-10-9.45,.98-17.31-5.3-24.18-11.03-3.17-2.64-6.03-5.33-7.02-9.5-1.24-5.21-.85-11.11-.99-16.44-.54-21.32-.13-42.65-.5-63.97-.75-42.93-3.02-85.83-6.82-128.6-2.16-24.35-4.83-48.64-7.96-72.88-.81-6.29-10.82-6.37-10,0h0Z"/><path class="cls-1" d="M124.83,890.8c6.43,0,6.45-10,0-10s-6.45,10,0,10h0Z"/><path class="cls-1" d="M575.82,883.77c-117.67,1.12-235.35,1.35-353.02,.68-33.24-.19-66.48-.45-99.72-.78-6.44-.06-6.44,9.94,0,10,117.67,1.17,235.35,1.46,353.02,.84,33.24-.17,66.48-.42,99.72-.74,6.43-.06,6.45-10.06,0-10h0Z"/><path class="cls-1" d="M280.48,157.94c2.15-3.59,9.64-3.3,13.22-3.26,5.55,.06,10.35,1.69,13.83,6.14,3.96,5.07,10.99-2.06,7.07-7.07-5.39-6.89-14.17-9.32-22.62-9.05-7.4,.24-16,1.26-20.14,8.19-3.31,5.54,5.33,10.57,8.63,5.05h0Z"/><path class="cls-1" d="M294.36,162.01c6.43,0,6.45-10,0-10s-6.45,10,0,10h0Z"/><path class="cls-1" d="M373.68,166.21c9.52-6.05,21.2-5.82,30.54,.46,5.35,3.6,10.37-5.06,5.05-8.63-12.14-8.17-28.31-8.3-40.64-.46-5.42,3.44-.41,12.1,5.05,8.63h0Z"/><path class="cls-1" d="M390.02,169.75c6.43,0,6.45-10,0-10s-6.45,10,0,10h0Z"/></svg>