<?xml version="1.0" encoding="UTF-8"?><svg id="Layer_1" xmlns="http://www.w3.org/2000/svg" viewBox="0 0 700.58 779.4"><defs><style>.cls-1{fill:#d926a9;}</style></defs><path class="cls-1" d="M259.85,127.16c-.64,11.63-.63,23.29,.14,34.92,.72,10.87,1.6,22.17,4.54,32.7,5.19,18.6,18.77,36.95,33.29,49.44,15.09,12.98,34.81,21.25,54.95,18.55,19.01-2.55,35.19-14.1,48.77-27,6.95-6.6,14.12-13.66,17.86-22.65,4.1-9.82,5.03-21.14,6.82-31.55,1.95-11.3,3.76-22.62,5.26-33.99,1.41-10.7,2.63-21.34,.67-32.06-3.49-19.01-15.64-35.58-28.63-49.35-13.97-14.8-32.08-23.52-52.69-22.93-22.08,.63-42.53,11.5-57.7,27.16-8.01,8.27-15.63,17.4-22.22,26.85-6.18,8.86-10.6,18.65-11,29.57-.24,6.44,9.76,6.43,10,0,.64-17.51,15.01-32.3,26-44.68,11.82-13.32,26.34-23.8,44-27.59s36.65,.43,50.23,12.49c12.7,11.27,24.67,26.28,30.15,42.52,6.15,18.25,1.38,38.43-1.6,56.88-1.6,9.88-3.32,19.73-5.09,29.58-1.7,9.47-4.34,17.18-10.93,24.42-11.25,12.35-25,24.59-41.07,30.04-17.41,5.9-35.57,1.68-50.48-8.55-8.14-5.58-15.18-12.9-21.08-20.77s-11.96-16.89-15.06-26.47c-3.38-10.44-4.24-21.73-4.96-32.61-.77-11.63-.78-23.28-.14-34.92,.35-6.43-9.65-6.41-10,0h0Z"/><path class="cls-1" d="M370.57,51.28c5.97-10.39,11.08-21.19,15.43-32.36,.58-1.49-.04-3.85-1.29-4.86-17.68-14.36-40.83-12.82-61.31-5.89-10.88,3.68-21.52,8.35-30.69,15.37-8.12,6.21-14.83,13.83-20.96,21.97-6.6,8.78-12.57,18.1-18.37,27.43-6.01,9.66-11.52,19.91-14.21,31.04-5.69,23.51-.66,48.47,.91,72.19,.9,13.71,1.18,27.7-1.61,41.22-2.69,13.05-9.4,24.93-11.27,38.15-.45,3.19,1.25,6.28,4.82,6.33,18.5,.25,36.99,.5,55.49,.75,2.76,.04,4.93-2.32,5-5,.28-10.15,.56-20.3,.84-30.46,.18-6.44-9.82-6.43-10,0-.28,10.15-.56,20.3-.84,30.46l5-5c-18.5-.25-36.99-.5-55.49-.75,1.61,2.11,3.21,4.22,4.82,6.33,1.52-10.82,6.51-20.54,9.5-30.95,3.01-10.5,4.19-21.5,4.33-32.4,.29-22.56-3.94-44.88-3.97-67.42-.01-11.41,1.6-22.59,6.31-33.06,4.24-9.43,10.01-18.1,15.64-26.74,11.06-17,22.88-33.75,41.4-43.21,19.54-9.99,48.49-18.79,67.58-3.29l-1.29-4.86c-4.04,10.36-8.88,20.34-14.42,29.97-3.21,5.59,5.42,10.63,8.63,5.05h0Z"/><path class="cls-1" d="M381.12,22.87c9.67-.72,18.52,2.73,27.1,6.83,8.12,3.88,14.11,8.11,18.1,16.38,7.66,15.86,12.63,33.37,16.17,50.57,7.2,34.97,7.7,71.98,2.35,107.27-2.92,19.25-8.22,38.14-18.85,54.63l4.32-2.48c-9.57,.36-19.14,.73-28.71,1.09l5,5c.11-10.49-.69-20.88-2.23-31.25-.94-6.34-10.58-3.65-9.64,2.66,1.41,9.48,1.98,19.02,1.87,28.59-.03,2.63,2.31,5.1,5,5,5.74-.22,11.49-.44,17.23-.65,4.54-.17,12.1,1.17,15.41-2.41,3.07-3.32,5.2-8.44,7.14-12.48,2.29-4.77,4.29-9.7,5.99-14.72,6.81-20.01,9.22-41.49,10.36-62.49,2.36-43.42-3.27-87.77-20.37-127.97-4.59-10.79-10.41-18.45-21.02-23.87-10.89-5.56-22.74-10.63-35.22-9.7-6.38,.47-6.43,10.48,0,10h0Z"/><path class="cls-1" d="M266.32,124.38c4.97,.32,9.94,.65,14.91,.97,6.43,.42,6.4-9.58,0-10-4.97-.32-9.94-.65-14.91-.97-6.43-.42-6.4,9.58,0,10h0Z"/><path class="cls-1" d="M335.69,135.11c6.03-1.82,11.87-1.65,17.82,.39,6.1,2.09,8.72-7.56,2.66-9.64-7.52-2.58-15.53-2.68-23.13-.39-6.15,1.85-3.53,11.51,2.66,9.64h0Z"/><path class="cls-1" d="M414.94,136.14c3.11,0,6.21,0,9.32,0,6.43,0,6.45-10,0-10-3.11,0-6.21,0-9.32,0-6.43,0-6.45,10,0,10h0Z"/><path class="cls-1" d="M419.52,128.51c-8.75-12.22-23.03-14.54-37.16-15.05-12.23-.44-27.62,.88-32.65,14.23-2.48,6.59-.26,13.49,2.98,19.38,3.33,6.05,7.64,12.29,12.97,16.75,9.82,8.23,23.56,9.59,35.11,4.27,13.06-6.01,20.37-20.2,20.37-34.19,0-6.43-10-6.45-10,0,0,10.88-5.74,21.96-16.36,25.9-12.41,4.6-22.86-1.74-29.78-11.92-3.17-4.66-8.47-11.69-5.58-17.53,2.63-5.3,9.32-6.71,14.65-6.97,11.89-.59,29.1-.61,36.82,10.17,3.71,5.19,12.39,.2,8.63-5.05h0Z"/><path class="cls-1" d="M330.47,128.52c-2.43,10.23-9.2,19.94-19.62,23.17-9.18,2.85-24.17,.08-27.13-10.68-1.34-4.87-.37-11.99,1.5-16.65,2.4-5.99,8.29-7.13,14.04-8.23,5.66-1.09,11.71-1.53,17.38-.26,5.18,1.16,12.48,4.34,12.16,10.61s9.68,6.41,10,0c.7-13.82-14.77-20.38-26.33-21.23-11.78-.87-29.02,1.23-35.24,12.68-5.85,10.77-6.05,26.94,3.02,35.83,8.55,8.39,21.92,11.07,33.26,7.58,13.71-4.22,23.37-16.51,26.61-30.16,1.49-6.26-8.15-8.93-9.64-2.66h0Z"/><path class="cls-1" d="M325.01,141.98c.29,11.2-7.43,19.9-8.58,30.61-1.24,11.57,15,12.49,23.19,13.24s22.53,2.07,25.19-8.02c1.3-4.92-.67-10.7-1.42-15.57-1.01-6.58-1.77-13.19-2.37-19.81s-10.58-6.42-10,0c.79,8.8,1.89,17.58,3.34,26.3,.23,1.37,1.4,4.38,.86,5.55-.83,1.81-2.04,1.5-3.78,1.67-4.2,.4-8.53,.27-12.72-.19-1.97-.21-3.92-.54-5.86-.94-1.51-.31-5-.55-6.17-1.58-1.14-.12-1.16-.36-.07-.71,.34-1.08,.71-2.16,1.11-3.23,.59-1.61,1.24-3.21,1.87-4.81,2.92-7.31,5.61-14.5,5.4-22.5-.17-6.42-10.17-6.45-10,0h0Z"/><path class="cls-1" d="M301.85,204.12c13.84,3,27.33-2.1,41.15-.5,13.2,1.53,25,9.15,38.03,2.11-2.02-2.62-4.04-5.24-6.06-7.85-8.68,9.4-21.26,19.95-34.25,22.28-6.87,1.23-12.42-3.01-17.03-7.56-5.15-5.08-9.85-10.66-14.7-16.01-4.33-4.78-11.39,2.31-7.07,7.07,9.96,10.98,21.51,28.22,38.44,26.6,8.05-.77,16-5.16,22.7-9.41,7-4.44,13.36-9.82,18.98-15.9,3.85-4.17-.99-10.59-6.06-7.85-10.43,5.63-23.82-2.91-34.71-3.62-12.28-.8-24.56,3.64-36.76,1-6.27-1.36-8.95,8.28-2.66,9.64h0Z"/><path class="cls-1" d="M281.82,257.47c.2,4.07,.4,8.14,.59,12.21l6.33-4.82c-9.84-4.05-20.16,3.22-28.55,7.73-9.6,5.16-19.02,10.65-27.68,17.3-8.18,6.28-15.23,14.15-24.59,18.75-9.52,4.68-19.82,7.1-28.91,12.76-36.09,22.46-49.29,66.45-58.62,105.41-6.1,25.46-10.19,51.38-12.45,77.46-.55,6.41,9.45,6.37,10,0,1.88-21.72,5.11-43.28,9.75-64.58,4.42-20.25,9.58-40.75,17.58-59.92,7.27-17.44,17.79-34.15,32.98-45.75,7.46-5.7,15.73-9.22,24.46-12.48,9.28-3.46,17.16-7.87,24.7-14.31,8.63-7.38,17.21-14.19,27.02-19.96,4.83-2.84,9.76-5.5,14.72-8.12s11.06-7.06,16.94-4.64c2.97,1.22,6.47-1.86,6.33-4.82-.2-4.07-.4-8.14-.59-12.21-.31-6.41-10.31-6.44-10,0h0Z"/><path class="cls-1" d="M282.14,257.79c-.98,5.53,3.03,12.89-1.44,16.99-3.85,3.52-8.3,5.77-10.79,10.6l7.85-1.01c-2.08-2.54-3.6-5.37-4.66-8.48-3.21,.89-6.43,1.77-9.64,2.66,9.33,26.88,37.17,37.85,63.46,40,26.92,2.2,59.67,1.21,80.54-18.35,10.2-9.57,16.88-23.2,15.6-37.37-.26-2.88-2.09-4.74-5-5-5.34-.48-10.68-.96-16.02-1.44-1.57-.14-3.66,1.02-4.32,2.48-5.53,12.3,2.13,25.63,15.93,25.98,2.18,.06,4.26-1.59,4.82-3.67,2.28-8.43-2.81-17.38-11.45-19.3-3.82-.85-6.99,2.34-6.15,6.15,.73,3.32,2.17,5.83,4.24,8.47,3.97,5.06,11-2.06,7.07-7.07-.97-1.23-1.34-2.56-1.67-4.06l-6.15,6.15c3.35,.74,5.38,3.59,4.46,7l4.82-3.67c-5.66-.15-9.75-5.47-7.29-10.94l-4.32,2.48c5.34,.48,10.68,.96,16.02,1.44l-5-5c1.24,13.8-6.38,26.38-17.44,34.22-12.91,9.15-29.38,11.47-44.82,11.97-27.71,.89-66.89-1.98-77.7-33.12-2.1-6.04-11.74-3.46-9.64,2.66,1.66,4.82,4.01,8.95,7.24,12.89,2,2.44,6.48,1.65,7.85-1.01,2.51-4.85,8.34-6.86,11.58-11.19,1.73-2.31,2.79-5,2.88-7.92,.11-3.61-1.85-7.32-1.22-10.86,1.12-6.29-8.52-8.99-9.64-2.66h0Z"/><path class="cls-1" d="M278.04,269.12c-2.78,1.69-5.66,3.17-8.64,4.44-2.48,1.06-3.04,4.72-1.79,6.84,1.5,2.57,4.35,2.86,6.84,1.79,2.99-1.28,5.87-2.76,8.64-4.44,2.31-1.4,3.17-4.48,1.79-6.84s-4.52-3.2-6.84-1.79h0Z"/><path class="cls-1" d="M416.15,271.06c11.73,9.02,23.55,18.11,36.73,24.95s27.11,10.02,40.19,16.21c22.1,10.47,39.91,28.2,52.79,48.8,30.76,49.19,32.31,110.55,32.05,166.81-.17,35.87-2.36,71.71-6.46,107.35-.73,6.38,9.27,6.33,10,0,3.73-32.4,5.89-64.96,6.37-97.57s.02-62.7-4.15-93.67c-7.05-52.43-28.74-107.14-76.26-135.39-14.08-8.37-29.95-12.01-44.71-18.82-15.11-6.97-28.39-17.2-41.5-27.29-5.1-3.92-10.08,4.76-5.05,8.63h0Z"/><path class="cls-1" d="M220.86,306.74c26.38,25.57,57.02,49.23,94.58,53.84,10.81,1.33,21.73,1.17,32.6,.92,10.49-.24,20.98-.49,31.38-1.94,17.15-2.39,33.04-9.04,46.68-19.72,14.86-11.64,25.99-27.37,32.08-45.22,2.08-6.1-7.57-8.72-9.64-2.66-10.12,29.66-36.39,51.77-67.15,57.23-9.74,1.73-19.69,1.97-29.55,2.22-9.9,.25-19.83,.53-29.72-.18-17.46-1.26-33.87-6.95-48.96-15.7-16.72-9.71-31.39-22.44-45.22-35.85-4.62-4.48-11.7,2.58-7.07,7.07h0Z"/><path class="cls-1" d="M182.03,507.52c-5.15,18.04,1.38,35.84,7.94,52.58,3.51,8.96,7.02,17.92,10.53,26.87,1.3,3.32,4.22,7.58,2.36,10.88-2.29,4.07-5.38,7.82-7.84,11.82-4.57,7.4-8.94,15.08-12.1,23.2-3.41,8.75-3.71,17.87-5.45,26.99-3.21,16.8-14.9,30.21-20.22,46.29-6.26,18.95-5.43,39.37-4.52,59.03,.3,6.41,10.3,6.44,10,0-.8-17.37-1.7-35.23,2.91-52.18,4.39-16.13,15.62-29.21,20.24-45.23,2.56-8.89,2.35-18.31,4.94-27.19s7.26-16.68,11.91-24.34c2.14-3.54,4.39-7.01,6.74-10.42,2.08-3.02,4.51-5.84,4.48-9.7s-2.1-7.45-3.45-10.89c-1.87-4.78-3.74-9.55-5.62-14.33-7.29-18.61-19.03-40.26-13.2-60.7,1.77-6.2-7.88-8.85-9.64-2.66h0Z"/><path class="cls-1" d="M508.01,491.01c4.54,16.57,9.75,35.27,3.28,52.05-2.87,7.45-8.07,14.27-6.49,22.71,.68,3.63,2.56,6.8,4.17,10.06,2.11,4.28,3.59,8.81,4.67,13.45,4.22,18.17,2.44,37.16,5.51,55.52,3.12,18.67,8.64,37.04,12.62,55.56,4.75,22.13,8.92,44.38,12.56,66.71,1.03,6.34,10.67,3.65,9.64-2.66-3.17-19.47-6.74-38.86-10.75-58.17-3.97-19.08-8.85-37.94-13.02-56.96s-2.72-37.29-5.61-55.83c-1.32-8.49-3.86-16.43-7.72-24.1-2.15-4.29-2.97-7.37-1.19-12,1.43-3.71,3.5-7.14,4.95-10.84,7.36-18.75,2.12-39.57-2.98-58.16-1.7-6.2-11.35-3.57-9.64,2.66h0Z"/><path class="cls-1" d="M571.39,634.04c-2.49,16.71-11.23,31.26-17.4,46.73-6.68,16.74-10.35,34.44-13.99,52.03-1.3,6.28,8.34,8.97,9.64,2.66,3.64-17.58,7.3-35.3,13.99-52.03,6.19-15.49,14.91-30,17.4-46.73,.94-6.3-8.7-9.01-9.64-2.66h0Z"/><path class="cls-1" d="M107.91,504.08c5.19,40.16,8.87,80.5,10.96,120.93,1.06,20.38,1.71,40.78,1.98,61.19,.25,19.64-.76,39.5,.75,59.09,.72,9.34,4.83,14.8,12.02,20.46,7.19,5.66,15.25,11.03,24.83,10.09,6.35-.62,6.41-10.63,0-10-7.88,.77-14.37-4.3-20.14-9.07-2.79-2.31-5.39-4.62-6.3-8.27-1.06-4.23-.7-9.16-.82-13.48-.49-18.57-.13-37.16-.45-55.74-.64-37.19-2.6-74.36-5.88-111.41-1.88-21.31-4.22-42.58-6.96-63.8-.81-6.29-10.82-6.37-10,0h0Z"/><path class="cls-1" d="M158.45,772.23c6.43,0,6.45-10,0-10s-6.45,10,0,10h0Z"/><path class="cls-1" d="M549.79,764.81c-102.03,.97-204.07,1.17-306.11,.59-28.92-.16-57.83-.39-86.75-.68-6.44-.06-6.44,9.94,0,10,102.03,1.02,204.07,1.27,306.11,.73,28.92-.15,57.83-.37,86.75-.64,6.43-.06,6.45-10.06,0-10h0Z"/><path class="cls-1" d="M294.08,135.99c1.74-2.84,8.17-2.58,11.01-2.51,4.67,.12,8.48,1.43,11.43,5.14,3.99,5.04,11.03-2.08,7.07-7.07-4.86-6.14-12.63-8.29-20.2-8.05-6.7,.21-14.16,1.27-17.94,7.44-3.38,5.5,5.27,10.53,8.63,5.05h0Z"/><path class="cls-1" d="M305.55,139.85c6.43,0,6.45-10,0-10s-6.45,10,0,10h0Z"/><path class="cls-1" d="M374.71,143.4c8.12-5.12,17.87-4.92,25.84,.4,5.37,3.58,10.38-5.08,5.05-8.63-10.78-7.19-24.99-7.3-35.93-.4-5.43,3.42-.42,12.08,5.05,8.63h0Z"/><path class="cls-1" d="M388.56,146.57c6.43,0,6.45-10,0-10s-6.45,10,0,10h0Z"/></svg>