<?xml version="1.0" encoding="UTF-8"?><svg id="Layer_1" xmlns="http://www.w3.org/2000/svg" viewBox="0 0 697.04 784.72"><defs><style>.cls-1{fill:#d926a9;}</style></defs><path class="cls-1" d="M379.36,197.91c-6.26,.13-12.43-.37-18.53-1.85-5.51-1.33-10.77-3.59-16.41-4.34-5.77-.77-10.93,.75-16.49,2.03-6.55,1.52-12.9,1.28-19.36-.55-6.2-1.76-8.85,7.89-2.66,9.64,.92,.26,1.84,.49,2.77,.7,.21,1.21,.85,2.38,2.05,3.28,9.86,7.37,20.51,13.19,32.91,14.58,10.71,1.2,24.35,2.1,31.76-7.35,.58-.74,.92-1.53,1.07-2.32,2.24-1.64,4.39-3.4,6.44-5.3,3.18-2.94,.72-8.63-3.54-8.54Zm-37.86,13.18c-5.98-1.11-11.46-3.57-16.6-6.66,6.03-.9,12.08-3.62,18.17-2.83,6.05,.79,11.78,3.47,17.76,4.69,2.1,.42,4.2,.76,6.32,1.02-.12,.38-.2,.76-.23,1.15-6.23,5.57-17.88,4.03-25.43,2.63Z"/><g><path class="cls-1" d="M577.62,508.22c-3.63-41.39-11.84-82.56-23.52-122.3-6.92-23.53-15.55-47.6-32.92-64.91-26.86-26.77-68.47-31.78-100.06-52.75,6.82,.27,11.56-6.54,14.49-12.7,23.32-48.95,19.14-106.95,3.93-158.99-5.47-18.72-12.7-37.69-26.57-51.4-8.86-8.76-19.96-14.87-31.14-20.39-14.93-7.36-31.99-14.03-48.95-12.44-15.16,1.43-30.8,11.66-42.84,20.53-25.47,18.76-44.52,46.31-52.4,77.01-6.94,27.03-5.52,55.47-9.8,83.05-3.27,21.06-9.89,41.59-19.53,60.59-1.73,3.41-3.61,7.2-2.6,10.89,1.34,4.86,6.92,7.02,11.81,8.22,11.57,2.83,23.49,4.25,35.4,4.23-25.2,31.69-72.92,37.35-99.68,67.73-15.98,18.13-22.26,42.59-28.04,66.06-9.06,36.77-18.18,74.16-16.38,111.99,2.05,43.16,18.28,85.01,17.64,128.22-.48,32.26-9.66,67.66,7.95,94.7,6.21,9.53,15.39,17.16,19.84,27.63,1.21,2.84,2.13,5.96,4.42,8.02,2.94,2.65,7.29,2.79,11.25,2.8,128.87,.2,257.74,.39,386.61,.59,2.79,0,5.88-.1,7.9-2.02,2.06-1.95,2.3-5.11,2.28-7.95-.11-13.15-3.09-26.26-8.69-38.16-2.38-5.06-5.27-10.06-5.87-15.62-.65-6.11,1.55-12.11,3.59-17.91,21.85-62.26,27.67-128.77,21.88-194.7ZM382.54,38.68c14.87,1.93,27.02,15.7,34.41,27.77,9.21,15.03,13.84,32.23,17.55,49.31,7.86,36.15,11.69,74.31,1.49,110.41-2.64,9.36-6.18,18.44-10.81,27-.58,1.07-1.65,4.25-2.56,4.77-1.81,1.02-5.75,.58-7.91,.79-3.87,.37-7.74,.75-11.61,1.12l-7.19-3.41c-.42-.2-.84-.34-1.26-.42-.21-4-.33-8-.35-12.01,0-.13-.01-.25-.02-.37,3.31-2.77,6.29-5.87,8.62-9.68,4.24-6.96,6.2-15.03,7.92-22.92,4.88-.5,9.65-1.72,13.17-5.48,3.63-3.88,4.59-9.28,5.14-14.35,1.58-14.57,.66-29.34-1.77-43.75-.11-.63-.38-1.2-.75-1.69,1.19-17.95,1.56-36.76-7.06-53.08-4.61-8.73-11.62-16.13-17.93-23.64-5.84-6.96-11.68-14.28-20.12-18.21-.91-.42-1.83-.81-2.76-1.17,2.19-3.29,3.48-7.12,3.79-10.99Zm-111.57,157.63c-1.95-15.58-3.83-31.18-5.86-46.75-.3-2.31-.72-4.54-1.51-6.55,.05-.38,.06-.78,.01-1.22-.44-4.28-.99-8.88-.86-13.38,3.03-1.75,6.08-3.41,9.42-4.5,2.32-.75,4.7-1.28,7.08-1.84-.6,6.6-.9,13.35,1.4,19.59,2.35,6.38,6.83,11.62,12.5,15.32,11.6,7.56,26.54,6.42,38.06-.55,0,.01-.01,.02-.02,.03,.19-.12,.4-.22,.62-.31,.84-.62,1.69-1.23,2.59-1.76,.02-.01,.03-.03,.05-.04-.05,0-.09,0-.14,.01,5.36-3.91,10.6-9.19,12.62-15.6,.72-2.27,.95-4.66,.82-7.06,3.39-.64,6.85-.44,10.11,.84-.41,3.23-.22,6.56,.44,9.69,1.38,6.62,4.86,12.12,9.59,16.26-.19-.1-.38-.19-.57-.26,.77,.44,1.49,.96,2.17,1.51,.16,.13,.3,.27,.45,.4,5.13,3.81,11.42,6.18,17.99,6.87,8.98,.94,19.41-1.17,27.2-6.51-.28,4.33-1.14,8.5-2.49,12.75-3.6,11.29-9.26,21.81-11.59,33.51-.16,.81-.14,1.56,.02,2.23-1.37,6.35-2.85,12.84-5.99,18.56-3.77,6.88-10.24,11.03-16.62,15.26-6.32,4.19-12.87,7.71-20.56,8.35-7.72,.64-15.57-.12-23.11-1.8-15.27-3.39-29.44-10.25-42.88-18.09-6.5-3.79-12.18-7.07-15.31-14.23-2.7-6.19-4.37-12.96-5.59-19.63,.03-.34,.02-.7-.03-1.08Zm18.56-77.33c4.98-1.8,9.89-3.83,14.98-5.3,7.22-2.07,14.8-2.75,21.58,1.05,5.55,3.12,9.87,8.51,11.27,14.77,3.27,14.67-18.55,24.66-30.48,22.37-6.37-1.22-12.44-5.14-15.6-10.88-3.62-6.56-2.54-14.67-1.75-22.01Zm127.28,23.84c-.25,.32-.48,.7-.66,1.14-8.34,19.7-44.01,17.17-48.2-4.41-.92-4.72-.27-10.67,4.41-13.03,4.71-2.39,10.64-3.3,15.86-3.52,10.39-.44,20.34,2.31,29.06,7.78-.02,4.02-.21,8.05-.46,12.04Zm2.92,40.18c-.14,4.09-.21,8.43-1.38,12.34-.92,3.09-2.86,4.5-5.3,5.21,1.95-5.94,4.43-11.7,6.68-17.55Zm-134.94,98.86c1.86-1.87,1.77-4.14,.71-5.88,0-.55-.09-1.1-.25-1.62v-35.41s.04,.02,.06,.04c15.56,9.2,32.34,17.41,50.25,20.7,8.34,1.53,16.97,2.23,25.41,1.11,8.74-1.16,16.24-5.16,23.46-10,.21,6.68,.68,13.35,1.41,20.01,.05,.44,.15,.85,.28,1.23,.2,1.25,.91,2.45,2.31,3.3,3.53,2.16,6.87,4.55,10,7.26,.69,.6,1.5,1,2.35,1.22-5.17,7.26-14.19,12.64-21.31,16.4-12.27,6.49-26.13,11.52-39.82,13.94-14.78,2.61-29.05-.5-42.68-6.37-8.43-3.63-17.09-8.39-22.3-15.79,3.38-3.38,6.75-6.76,10.13-10.15Zm106.52-209.59c5.61,6.61,11.65,13.12,16.51,20.32,5.46,8.1,7.96,17.12,8.92,26.45-10.9-5.32-23.32-7.21-35.41-5.34-6.95,1.07-15.97,3.09-20.12,9.39-.02,.03-.04,.06-.06,.09-5.13-1.84-10.43-2.33-15.79-1.23-.51-1.17-1.07-2.31-1.68-3.38-7.23-12.66-21.32-18.26-35.39-15.99-8.93,1.44-17.11,5.51-25.67,8.22-4.59,1.45-9.37,2.19-13.93,3.74-.94,.32-1.86,.68-2.78,1.06,3.8-6.61,11.25-11.85,16.7-16.77,6.79-6.13,13.74-12.12,21.22-17.39,6.86-4.84,14.38-8.68,20.97-13.89,6.46-5.11,12.29-11.9,20.93-12.91,8.36-.98,18.19,.99,26.22,3.3,8.35,2.41,13.86,7.89,19.34,14.35Zm-133.98,11.36c6.36-10.94,14.87-20.38,24.07-29.01,9.18-8.61,19.02-17.44,29.53-24.42,12.64-8.39,27.91-7.58,42.42-6.49,5.86,.44,13.43,1.28,17.22,6.43,3.36,4.57,2.67,11.27-1.12,15.31-.38,.41-.67,.84-.89,1.27-4.96-1.02-10.04-1.6-14.93-2.04-9.89-.9-18.27,1.52-26.09,7.63-3.68,2.87-7.03,6.17-10.81,8.9-4.31,3.11-9,5.65-13.45,8.55-8.38,5.46-16.17,11.79-23.67,18.39-7.65,6.73-17.65,13.87-22.6,22.96-4.01,7.37-4.47,15.68-3.96,23.88-3.09-.26-6.27,.56-8.6,2.62-.44,.39-.83,.81-1.19,1.24,1.52-19.19,4.24-38.27,14.09-55.22Zm2.58,104.27c-6.82-.24-8.61-16.36-9.12-20.84-.36-3.17-2.89-21.93,1.28-22.14,3.51-.17,3.27,6.51,3.52,8.54,.57,4.55,1.14,9.09,1.71,13.64l2.61,20.81Zm-27.96,77.44c-3.33-.53-6.64-1.18-9.93-1.95-1.49-.35-2.98-.73-4.46-1.11-2.16-.55-1.87,.1-.54-2,3.62-5.71,5.68-13.55,7.95-19.86,8.32-23.17,13.54-47.27,16.02-71.73,.29,2.36,.65,4.71,1.11,7.03,1.92,9.54,7.51,23.67,18.91,22.34,1.48,8.65,3.68,17.51,7.59,25.39,2.17,4.37,5.23,7.59,8.79,10.33-1.24,.78-2.13,2.12-2.13,4.03v27.44c-.05,0-.1,0-.15,.02-14.23,2.23-28.91,2.32-43.15,.07Zm8.42,36.16c6.88-5.5,13.17-12.3,20.24-17.76,0,.33,.04,.67,.11,1.02,3.09,15.35,16.2,24.93,29.7,30.99,16.05,7.2,32.51,11.12,50.09,8.34,16.41-2.59,33.46-8.95,47.79-17.35,11.66-6.84,23.75-16.63,26.17-30.46,14.18,6.73,28.35,13.46,42.53,20.2-.23,.24-.45,.5-.65,.81-17.62,26.65-49.01,39.98-78.64,48.47-33.42,9.57-70.05,12.39-100.62-6.95-14.97-9.47-27.37-22.38-39.43-35.23,.91-.68,1.82-1.37,2.71-2.08Zm327.15,298.67c-3.07,33.59-8.07,69.21-21.93,100.46-3.91-14.92-6.93-30.15-10.46-45.07-4.85-20.53-9.71-41.05-14.56-61.58,.11-.76,.07-1.55-.13-2.29,.08-.52,.09-1.08,0-1.67-4.2-27.45-6.1-55.19-5.85-82.96,0-.33-.03-.65-.08-.95,1.74-17.19,.22-34.15-6.09-50.94-2.24-5.97-11.91-3.38-9.64,2.66,7.56,20.15,8.14,40.55,3.63,61.44-2.22,10.3-3.26,20.16-1.83,30.66,1.49,11,4.45,21.79,7,32.58,5.14,21.72,10.27,43.44,15.41,65.16,5.06,21.4,9.56,43.03,15.43,64.23,.21,.75,.44,1.49,.66,2.23-.47,1.86,.25,3.56,1.49,4.72,3,8.91,6.75,17.42,10.26,26.21,3.55,8.89,5.45,18.01,5.65,27.39-50.57,2.07-101.17,3-151.79,2.8-51.74-.2-103.46-1.37-155.2-1.61-27.51-.13-55.03,.02-82.54,.69,3.89-15.93,7.59-31.96,8.93-48.34,.73-8.91,.35-17.86,.92-26.78,.52-8.2,2.44-15.95,5.4-23.6,5.65-14.61,14-28.08,18.11-43.3,2.18-8.1,3.67-16.24,7.26-23.9,3.49-7.44,7.97-14.36,12.49-21.21,1.91-2.9,.29-5.69-2.17-6.81-.14-.18-.28-.36-.45-.54-.36-.38-.71-.77-1.06-1.15-.07-.73-.35-1.5-.92-2.27-7.01-9.61-4.94-22.3-8.56-33.15-3.45-10.35-10.47-19.66-16.93-28.69-2.18-7.72-3.72-15.54-4.59-23.5,.01-3.12,.16-6.24,.4-9.35,.03-.13,.06-.27,.09-.4,.14-.62,.16-1.21,.1-1.76,.57-5.9,1.55-11.76,2.97-17.54,3.37-13.71,8.5-26.92,10.91-40.87,1.09-6.29-8.55-9-9.64-2.66-2.62,15.16-8.46,29.46-11.75,44.46-1.28,5.82-2.14,11.74-2.63,17.68-.11,.53-.22,1.05-.32,1.58-.47,.73-.74,1.66-.67,2.8,.02,.26,.04,.51,.06,.77-1.17,7.55-1.54,15.27-.58,22.82,.48,3.84,1.73,7.47,3.11,11.06,1.28,4.79,2.83,9.49,4.67,14.12,.23,.58,.53,1.06,.86,1.49,1.75,5.1,3.74,10.15,5.93,15.16,5.44,12.43,11.06,25.05,20.26,35.17-3.72,5.73-7.31,11.56-10.22,17.75-3.48,7.4-5.48,14.97-7.41,22.88-3.9,15.97-12.25,29.99-18.34,45.13-3.01,7.47-5.07,15.06-5.97,23.07-1,8.9-.56,17.88-1.01,26.8-.71,13.86-3.43,27.47-6.61,40.96-1.68-2.46-3.46-4.86-5.23-7.28-3.1-4.22-6.19-8.44-9.29-12.67-2.84-3.87-6.2-7.72-8.25-12.09-4.04-8.61-2.81-20.59-2.79-29.87,.02-10.39,.59-20.75,1.59-31.09,.05-.47,.03-.91-.03-1.31,3.05-32.36-3.64-64.42-9.64-96.06-6.28-33.09-10.93-65.95-4.25-99.37,3.23-16.18,7.59-32.12,11-48.26,2.95-13.94,5.81-27.97,10.49-41.47,4.5-12.98,10.96-25.46,20.75-35.25,10.08-10.09,22.96-16.67,35.67-22.81,10.05-4.86,20.21-9.57,29.67-15.43,11.81,12.58,23.84,25.06,38.01,35.02,14.96,10.51,31.97,16.72,50.16,18.52,18.78,1.86,37.9-.88,56.1-5.54,16.86-4.32,33.61-10.15,49.06-18.22,16.83-8.79,31.84-20.76,42.38-36.7,.38-.58,.62-1.15,.74-1.71,9.33,4.43,18.67,8.87,28,13.3,7.14,3.39,14.8,6.6,20.77,11.91,6.17,5.49,10.03,12.91,13.33,20.36,6.96,15.68,12.71,32,17.84,48.37,20.73,66.26,28.17,136.48,21.85,205.61Z"/><path class="cls-1" d="M556.65,784.72h-.13l-386.61-.59c-4.32,0-8.44-.23-11.34-2.83-1.89-1.7-2.87-4.13-3.81-6.49-.21-.53-.42-1.06-.64-1.58-2.7-6.35-7.24-11.76-11.63-16.99-2.84-3.38-5.77-6.88-8.2-10.62-13.32-20.46-11.31-46.01-9.36-70.71,.63-7.95,1.28-16.17,1.39-24.06,.35-23.44-4.35-46.88-8.9-69.55-3.84-19.13-7.8-38.92-8.74-58.66-1.81-38.15,7.44-75.7,16.39-112.02,5.49-22.28,11.71-47.54,28.07-66.11,13.01-14.77,31.24-23.84,48.87-32.61,18.54-9.22,37.71-18.76,50.65-34.92h0c-11.84,0-23.67-1.42-35.16-4.24-6.94-1.7-10.83-4.41-11.9-8.3-1.04-3.79,.98-7.78,2.61-10.98,9.67-19.06,16.24-39.43,19.52-60.55,1.73-11.17,2.54-22.66,3.33-33.78,1.15-16.32,2.34-33.19,6.47-49.28,3.9-15.2,10.5-29.68,19.62-43.02,9.02-13.2,20.06-24.66,32.83-34.06,11.96-8.81,27.65-19.11,42.9-20.55,17.69-1.67,35.49,5.78,49.02,12.45,10.91,5.38,22.23,11.57,31.17,20.41,14.32,14.16,21.49,33.96,26.6,51.46,12.46,42.63,21.9,104.84-3.94,159.08-4.03,8.47-8.8,12.76-14.18,12.78,13.15,8.65,28.22,14.67,42.8,20.48,20.3,8.1,41.3,16.48,56.92,32.04,17.22,17.17,26.02,41.37,32.95,64.96,12.1,41.17,20.02,82.32,23.53,122.33,6.17,70.27-1.2,135.8-21.89,194.75l-.19,.55c-1.97,5.61-4.01,11.42-3.38,17.3,.49,4.57,2.57,8.83,4.58,12.94,.42,.87,.86,1.76,1.28,2.65,5.58,11.88,8.59,25.09,8.7,38.21,.02,2.87-.23,6.06-2.32,8.04-1.98,1.88-4.96,2.06-7.85,2.06ZM253.18,276.73l-.16,.2c-12.98,16.32-32.25,25.91-50.89,35.19-17.61,8.76-35.82,17.82-48.79,32.55-16.32,18.52-22.53,43.75-28.01,66-8.94,36.3-18.19,73.84-16.38,111.95,.94,19.73,4.9,39.5,8.74,58.62,4.55,22.68,9.25,46.14,8.9,69.6-.12,7.9-.77,16.12-1.39,24.08-1.95,24.66-3.96,50.16,9.32,70.55,2.42,3.73,5.35,7.22,8.19,10.59,4.4,5.25,8.95,10.67,11.67,17.06,.22,.52,.43,1.05,.65,1.58,.93,2.33,1.89,4.73,3.74,6.4,2.83,2.54,6.9,2.76,11.17,2.77l386.61,.59h.13c2.85,0,5.77-.17,7.68-1.99,2.02-1.91,2.27-5.04,2.24-7.86-.1-13.09-3.1-26.27-8.67-38.11-.41-.88-.85-1.78-1.28-2.64-2.02-4.13-4.11-8.41-4.6-13.02-.63-5.94,1.42-11.77,3.4-17.41l.19-.55c20.68-58.92,28.04-124.41,21.87-194.65-3.51-39.99-11.42-81.13-23.52-122.28-6.93-23.56-15.71-47.73-32.89-64.86-15.58-15.53-36.55-23.9-56.83-31.99-14.73-5.88-29.95-11.95-43.21-20.74l-.37-.25,.45,.02c5.45,.21,10.28-4.03,14.37-12.63,25.8-54.17,16.37-116.31,3.92-158.91-5.11-17.47-12.25-37.23-26.54-51.35-8.92-8.81-20.22-14.99-31.11-20.36-13.5-6.66-31.26-14.08-48.88-12.42-15.18,1.43-30.83,11.71-42.77,20.5-12.74,9.39-23.76,20.83-32.77,34-9.1,13.32-15.69,27.76-19.58,42.94-4.12,16.07-5.31,32.93-6.47,49.24-.79,11.12-1.6,22.62-3.33,33.8-3.28,21.14-9.86,41.54-19.54,60.62-1.69,3.33-3.61,7.11-2.59,10.8,1.05,3.8,4.88,6.46,11.72,8.13,11.48,2.81,23.29,4.23,35.11,4.23h.52Zm164.67,498.67c-4.38,0-8.76,0-13.14-.03-26.44-.1-53.32-.46-79.31-.81-24.87-.33-50.59-.68-75.88-.8-30.52-.14-57.51,.08-82.53,.69h-.16s.04-.15,.04-.15c3.94-16.15,7.59-31.99,8.93-48.32,.39-4.8,.46-9.69,.53-14.42,.06-4.05,.12-8.24,.38-12.36,.5-7.78,2.27-15.51,5.41-23.63,2.2-5.7,4.86-11.31,7.43-16.73,4.02-8.49,8.17-17.27,10.68-26.56,.53-1.95,1.02-3.93,1.49-5.85,1.5-6.02,3.04-12.24,5.78-18.07,3.42-7.28,7.68-13.92,12.5-21.23,.77-1.17,1-2.41,.67-3.59-.36-1.27-1.4-2.41-2.78-3.04l-.05-.04c-.15-.2-.29-.37-.44-.52-.28-.29-.55-.59-.83-.89l-.26-.29v-.04c-.08-.75-.38-1.5-.9-2.21-4.33-5.94-5.23-13.16-6.09-20.15-.54-4.36-1.1-8.87-2.48-13.04-3.18-9.53-9.39-18.19-15.41-26.56-.5-.7-1-1.4-1.5-2.1l-.02-.04c-2.2-7.78-3.74-15.69-4.6-23.52,.01-3.02,.15-6.17,.4-9.37l.09-.42c.13-.58,.16-1.16,.1-1.72,.57-5.99,1.57-11.89,2.97-17.58,1.33-5.39,2.95-10.8,4.52-16.02,2.42-8.06,4.92-16.39,6.39-24.84,.44-2.54-.91-4.09-1.75-4.79-1.48-1.23-3.54-1.66-5.15-1.07-.94,.35-2.15,1.19-2.5,3.25-1.46,8.46-3.97,16.79-6.39,24.85-1.92,6.39-3.9,12.99-5.36,19.62-1.25,5.7-2.14,11.65-2.63,17.66-.04,.2-.08,.38-.12,.57-.07,.34-.14,.68-.21,1.03l-.02,.04c-.5,.77-.71,1.69-.65,2.72,0,.14,.02,.28,.03,.41,0,.12,.02,.24,.03,.35-1.26,8.2-1.46,15.87-.58,22.82,.46,3.65,1.57,7.05,3.1,11.03,1.28,4.8,2.86,9.55,4.67,14.12,.2,.51,.47,.97,.85,1.46l.02,.04c1.69,4.93,3.69,10.03,5.93,15.15,5.1,11.64,10.88,24.84,20.24,35.14l.06,.07-.05,.08c-3.53,5.43-7.21,11.34-10.22,17.74-3.5,7.44-5.5,15.06-7.4,22.86-2.57,10.52-7.15,20.37-11.58,29.9-2.3,4.96-4.69,10.08-6.77,15.25-3.14,7.82-5.09,15.35-5.96,23.04-.62,5.48-.69,11.08-.75,16.5-.04,3.38-.08,6.87-.26,10.29-.74,14.49-3.76,28.85-6.61,40.99l-.06,.28-.16-.23c-1.48-2.17-3.08-4.35-4.62-6.45l-9.9-13.49c-.68-.93-1.41-1.88-2.11-2.79-2.26-2.95-4.59-5.99-6.16-9.32-3.32-7.08-3.09-16.42-2.89-24.66,.05-1.84,.09-3.58,.09-5.26,.02-10.01,.56-20.47,1.59-31.1,.04-.44,.03-.86-.03-1.28,2.87-30.5-2.96-61.03-8.6-90.56-.35-1.83-.7-3.67-1.05-5.5-2.8-14.74-5.81-32.16-6.99-49.58-1.23-18.2-.33-34.5,2.74-49.84,1.76-8.78,3.88-17.64,5.93-26.21,1.73-7.21,3.51-14.67,5.07-22.05l.43-2.05c2.76-13.07,5.61-26.59,10.06-39.43,5.18-14.94,11.98-26.49,20.78-35.3,9.96-9.96,22.57-16.49,35.7-22.84,1.21-.59,2.43-1.17,3.65-1.76,8.7-4.19,17.7-8.51,26.02-13.67l.09-.05,.07,.07c12.08,12.86,24.08,25.22,38,35,14.89,10.46,31.75,16.69,50.1,18.5,16.72,1.65,35.05-.16,56.05-5.53,18.45-4.72,34.94-10.85,49.03-18.21,18.35-9.59,32.59-21.92,42.33-36.66,.35-.53,.6-1.1,.72-1.67l.03-.15,.14,.07,11.26,5.35c5.58,2.65,11.16,5.3,16.75,7.95,.92,.43,1.84,.87,2.77,1.3,6.3,2.94,12.81,5.98,18.04,10.62,6.25,5.56,10.12,13.09,13.37,20.4,6.24,14.05,11.91,29.42,17.84,48.38,10.32,32.97,17.41,67.2,21.08,101.75,3.67,34.52,3.93,69.48,.78,103.91h-.12s.12,0,.12,0c-2.91,31.78-7.78,68.58-21.94,100.5l-.14,.33-.09-.35c-2.44-9.32-4.57-18.91-6.63-28.18-1.23-5.55-2.51-11.29-3.83-16.89l-14.57-61.61v-.02c.11-.75,.07-1.52-.12-2.24v-.03s0-.03,0-.03c.08-.55,.09-1.09,0-1.63-4.14-27.03-6.11-54.95-5.85-82.98,0-.3-.02-.6-.07-.93v-.02s0-.02,0-.02c1.86-18.38-.13-35.02-6.08-50.88-1.18-3.14-4.42-3.86-6.87-2.94-1.86,.7-3.65,2.56-2.54,5.51,7.23,19.25,8.42,39.38,3.63,61.51-2.54,11.77-3.11,21.22-1.83,30.62,1.17,8.66,3.29,17.32,5.34,25.69,.55,2.25,1.12,4.59,1.66,6.88l15.41,65.16c1.49,6.31,2.96,12.74,4.38,18.97,3.4,14.9,6.91,30.31,11.05,45.26,.14,.51,.29,1.01,.45,1.52,.07,.24,.14,.47,.21,.71v.03s0,.03,0,.03c-.42,1.67,.11,3.34,1.46,4.59l.02,.02v.03c2.17,6.43,4.78,12.79,7.31,18.94,.97,2.37,1.98,4.83,2.96,7.26,3.56,8.9,5.46,18.13,5.66,27.44v.12s-.12,0-.12,0c-45.83,1.88-92.41,2.82-138.65,2.82Zm-185.64-1.93c5.65,0,11.41,.01,17.31,.04,25.3,.12,51.02,.46,75.89,.8,25.99,.35,52.87,.71,79.31,.81,50.5,.19,101.52-.74,151.66-2.79-.21-9.23-2.11-18.39-5.64-27.23-.97-2.44-1.98-4.89-2.96-7.26-2.52-6.14-5.13-12.49-7.29-18.92-1.39-1.3-1.94-3.04-1.51-4.78-.07-.23-.13-.45-.2-.67-.15-.51-.31-1.01-.45-1.52-4.14-14.95-7.65-30.36-11.05-45.27-1.42-6.22-2.89-12.66-4.38-18.96l-15.41-65.16c-.54-2.29-1.11-4.62-1.66-6.88-2.05-8.38-4.17-17.05-5.34-25.72-1.28-9.43-.71-18.9,1.84-30.7,4.77-22.09,3.59-42.16-3.62-61.37-1.09-2.92,.56-5.03,2.69-5.83,2.56-.96,5.95-.21,7.19,3.08,5.96,15.89,7.96,32.57,6.09,50.98,.05,.33,.08,.65,.07,.95-.26,28.01,1.71,55.92,5.85,82.94,.08,.56,.08,1.11,0,1.68,.19,.74,.24,1.53,.13,2.29l14.56,61.56c1.32,5.6,2.6,11.34,3.83,16.9,2.03,9.15,4.13,18.61,6.54,27.82,14.03-31.81,18.88-68.44,21.77-100.1,3.15-34.41,2.88-69.35-.78-103.86-3.67-34.53-10.75-68.75-21.06-101.7-5.93-18.95-11.6-34.32-17.83-48.36-3.24-7.29-7.09-14.79-13.3-20.32-5.19-4.62-11.69-7.65-17.98-10.59-.93-.43-1.85-.87-2.77-1.3-5.58-2.65-11.16-5.3-16.75-7.95l-11.12-5.28c-.14,.55-.38,1.09-.72,1.6-9.77,14.77-24.04,27.13-42.43,36.74-14.1,7.37-30.62,13.5-49.08,18.23-21.03,5.38-39.39,7.2-56.14,5.54-18.4-1.82-35.29-8.06-50.22-18.54-13.91-9.77-25.9-22.11-37.96-34.96-8.31,5.13-17.28,9.45-25.96,13.62-1.22,.58-2.43,1.17-3.64,1.76-13.11,6.34-25.7,12.85-35.63,22.79-8.78,8.78-15.55,20.29-20.72,35.2-4.44,12.82-7.29,26.33-10.05,39.4l-.43,2.05c-1.56,7.38-3.35,14.84-5.07,22.06-2.05,8.57-4.17,17.42-5.93,26.2-3.06,15.32-3.96,31.6-2.73,49.78,1.17,17.41,4.19,34.81,6.98,49.55,.35,1.83,.7,3.66,1.05,5.5,5.64,29.55,11.47,60.1,8.6,90.6,.07,.41,.08,.85,.03,1.31-1.03,10.62-1.57,21.07-1.59,31.08,0,1.68-.05,3.42-.09,5.26-.2,8.21-.43,17.52,2.87,24.55,1.55,3.31,3.88,6.34,6.13,9.27,.7,.92,1.43,1.87,2.11,2.79l9.9,13.5c1.49,2.03,3.03,4.12,4.47,6.22,2.83-12.07,5.81-26.3,6.54-40.67,.17-3.42,.22-6.91,.26-10.28,.07-5.43,.14-11.04,.76-16.53,.87-7.71,2.82-15.27,5.98-23.1,2.08-5.18,4.47-10.3,6.77-15.26,4.42-9.52,9-19.36,11.56-29.85,1.91-7.81,3.91-15.44,7.42-22.9,3-6.38,6.66-12.27,10.18-17.69-9.36-10.32-15.13-23.5-20.22-35.14-2.24-5.12-4.24-10.22-5.93-15.15-.38-.49-.66-.98-.87-1.5-1.82-4.58-3.4-9.34-4.68-14.14-1.53-3.98-2.65-7.4-3.11-11.08-.88-6.97-.68-14.66,.58-22.86,0-.09-.02-.21-.03-.32-.01-.14-.02-.28-.03-.42-.07-1.08,.16-2.04,.67-2.85,.06-.34,.13-.67,.2-1.01,.04-.18,.08-.37,.11-.55,.49-6.01,1.38-11.97,2.63-17.68,1.46-6.64,3.44-13.24,5.36-19.63,2.42-8.05,4.92-16.37,6.38-24.82,.29-1.7,1.24-2.92,2.66-3.44,1.69-.62,3.85-.17,5.4,1.12,1.5,1.25,2.17,3.08,1.83,5.03-1.47,8.47-3.97,16.81-6.4,24.87-1.57,5.22-3.19,10.62-4.52,16.01-1.4,5.68-2.4,11.57-2.97,17.52,.07,.56,.03,1.17-.1,1.77l-.09,.4c-.25,3.18-.38,6.32-.4,9.32,.85,7.79,2.39,15.68,4.58,23.44,.49,.69,.99,1.38,1.49,2.08,6.02,8.39,12.25,17.06,15.44,26.63,1.4,4.19,1.95,8.71,2.5,13.09,.86,6.96,1.75,14.15,6.04,20.03,.54,.74,.85,1.51,.94,2.29l.21,.23c.27,.3,.54,.6,.82,.89,.15,.15,.29,.32,.44,.52,1.43,.67,2.51,1.86,2.89,3.19,.36,1.25,.12,2.56-.7,3.79-4.81,7.3-9.07,13.93-12.48,21.2-2.72,5.8-4.27,12.01-5.76,18.02-.48,1.92-.97,3.9-1.5,5.85-2.51,9.31-6.67,18.1-10.69,26.6-2.57,5.42-5.22,11.03-7.42,16.72-3.13,8.1-4.9,15.81-5.39,23.56-.26,4.11-.32,8.3-.38,12.35-.07,4.73-.14,9.63-.53,14.43-1.33,16.3-4.97,32.1-8.9,48.2,20.14-.49,41.56-.73,65.07-.73Zm97.82-420.16c-1.24,0-2.47-.02-3.69-.05-18.56-.56-35.15-5.38-49.3-14.34-14.49-9.17-26.44-21.39-39.46-35.25l-.1-.1,.11-.08c1.02-.76,1.91-1.44,2.71-2.08l.08,.1-.08-.1c3.24-2.59,6.4-5.52,9.46-8.35,3.46-3.2,7.03-6.51,10.78-9.4l.2-.15v.25c.01,.35,.05,.67,.11,1,2.59,12.84,12.56,23.24,29.63,30.9,18.25,8.19,34.15,10.84,50.02,8.33,16.05-2.54,33.01-8.69,47.75-17.33,15.59-9.14,24.13-19.08,26.11-30.38l.03-.16,.15,.07,42.69,20.27-.12,.12c-.25,.25-.45,.51-.64,.79-18.99,28.72-54.02,41.45-78.71,48.53-17.22,4.93-33.25,7.43-47.73,7.43Zm-92.17-49.71c12.97,13.81,24.89,25.99,39.31,35.11,14.11,8.93,30.66,13.74,49.18,14.3,15.4,.47,32.67-2.01,51.34-7.36,51.48-14.75,69.5-34.7,78.57-48.42,.16-.24,.34-.47,.55-.7l-42.23-20.05c-2.04,11.31-10.62,21.25-26.2,30.38-14.77,8.66-31.76,14.82-47.84,17.37-15.93,2.52-31.87-.13-50.16-8.34-17.15-7.7-27.16-18.16-29.77-31.08-.05-.26-.09-.53-.1-.8-3.67,2.85-7.18,6.1-10.57,9.24-3.06,2.84-6.23,5.77-9.47,8.37-.77,.62-1.62,1.27-2.6,2Zm91.09,11.62c-10.1,0-20.67-2.42-32.03-7.31-7.49-3.23-16.8-7.94-22.36-15.83l-.06-.09,10.2-10.22,.09,.09-.09-.09c1.62-1.63,1.88-3.77,.69-5.73l-.02-.03v-.03c0-.54-.09-1.07-.24-1.58v-.04s0-35.63,0-35.63l.25,.15c25.2,14.9,40.72,18.94,50.21,20.69,9.51,1.75,17.81,2.11,25.37,1.11,9.35-1.24,17.08-5.74,23.41-9.98l.19-.13v.23c.21,6.65,.69,13.38,1.42,20,.04,.41,.14,.81,.27,1.2,.22,1.35,1,2.47,2.25,3.24,3.68,2.26,6.96,4.64,10.02,7.27,.65,.56,1.45,.98,2.29,1.2l.18,.05-.11,.15c-5.21,7.31-14.15,12.63-21.36,16.44-12.81,6.78-26.6,11.61-39.86,13.95-3.52,.62-7.09,.93-10.72,.93Zm-54.12-23.2c5.52,7.79,14.76,12.46,22.19,15.66,15.38,6.63,29.32,8.71,42.61,6.36,13.23-2.34,26.99-7.15,39.78-13.92,7.14-3.78,15.98-9.03,21.17-16.22-.82-.24-1.58-.65-2.22-1.2-3.05-2.62-6.32-4.99-9.99-7.25-1.32-.81-2.14-1.98-2.36-3.39-.14-.39-.23-.81-.28-1.23-.73-6.55-1.2-13.21-1.41-19.79-6.32,4.22-14.02,8.66-23.33,9.89-7.58,1.01-15.91,.64-25.44-1.11-19.77-3.64-38.07-13.5-50.16-20.64v35.17c.16,.52,.24,1.06,.25,1.6,1.24,2.06,.96,4.3-.74,6l-10.05,10.07Zm-21.66-24.89c-7.14,0-14.24-.55-21.23-1.66-3.25-.51-6.59-1.17-9.94-1.95-1.21-.28-2.43-.59-3.62-.9l-.85-.22c-.43-.11-.77-.17-1.01-.22-.4-.07-.59-.11-.65-.26-.06-.15,.05-.3,.31-.66,.18-.24,.43-.57,.73-1.05,2.74-4.33,4.56-9.79,6.31-15.08,.55-1.67,1.08-3.24,1.62-4.76,8.09-22.5,13.47-46.62,16.01-71.7l.11-1.12,.14,1.12c.31,2.53,.67,4.83,1.11,7.02,.69,3.44,2.38,9.98,5.88,15.2,3.53,5.25,7.87,7.62,12.89,7.04h.12s.02,.1,.02,.1c1.8,10.52,4.21,18.57,7.58,25.36,1.94,3.92,4.73,7.18,8.75,10.28l.14,.11-.15,.1c-1.34,.83-2.07,2.23-2.07,3.93v27.55h-.11s-.05,.02-.07,.02c-.02,0-.05,0-.08,0-7.34,1.15-14.67,1.72-21.96,1.72Zm-21.19-1.91c14.1,2.23,28.6,2.21,43.11-.07,.02,0,.03,0,.05,0v-27.33c0-1.73,.72-3.15,2.04-4.04-3.98-3.09-6.74-6.36-8.68-10.26-3.37-6.78-5.78-14.82-7.58-25.31-5.08,.54-9.45-1.86-13.01-7.16-3.53-5.25-5.22-11.83-5.92-15.29-.38-1.88-.7-3.84-.98-5.96-2.58,24.7-7.93,48.47-15.91,70.67-.54,1.51-1.07,3.09-1.62,4.76-1.76,5.3-3.58,10.78-6.34,15.13-.31,.49-.56,.82-.74,1.07-.14,.19-.28,.37-.28,.42,.03,.02,.24,.06,.46,.1,.25,.05,.59,.11,1.03,.22l.85,.22c1.18,.3,2.4,.61,3.61,.89,3.34,.78,6.68,1.43,9.92,1.95Zm171.11-5.24h-.03s-7.19-3.43-7.19-3.43c-.39-.19-.8-.32-1.23-.41l-.09-.02v-.1c-.22-4.26-.34-8.19-.35-12.02,0-.09,0-.19-.01-.28v-.15s.04-.04,.04-.04c3.77-3.15,6.5-6.22,8.59-9.65,4.2-6.89,6.13-14.75,7.9-22.88l.02-.09h.09c4.12-.43,9.34-1.44,13.09-5.45,3.54-3.78,4.54-9.09,5.11-14.28,1.46-13.41,.86-28.12-1.77-43.72-.1-.58-.34-1.13-.73-1.63l-.03-.04v-.05c1.19-17.83,1.62-36.62-7.04-53.01-3.75-7.1-9.15-13.38-14.36-19.45-1.17-1.37-2.39-2.78-3.55-4.17l-.95-1.13c-5.49-6.56-11.17-13.34-19.13-17.05-.83-.39-1.73-.77-2.76-1.17l-.15-.06,.09-.13c2.15-3.23,3.45-7.01,3.77-10.93v-.13s.14,.02,.14,.02c6.79,.88,13.54,4.28,20.08,10.11,6.51,5.81,11.44,12.84,14.42,17.72,9.32,15.21,13.95,32.71,17.56,49.35,9.7,44.62,10.17,79.73,1.49,110.47-2.75,9.73-6.39,18.82-10.82,27.03-.17,.31-.37,.79-.61,1.36-.59,1.37-1.32,3.08-2,3.46-1.28,.72-3.56,.73-5.57,.73-.89,0-1.72,0-2.38,.07l-11.64,1.13Zm-8.3-4.07c.42,.09,.81,.23,1.19,.41l7.16,3.4,11.57-1.12c.67-.07,1.51-.07,2.41-.07,1.98,0,4.23-.01,5.45-.7,.61-.34,1.35-2.07,1.89-3.34,.24-.57,.45-1.06,.62-1.38,4.42-8.19,8.05-17.27,10.8-26.98,8.67-30.7,8.2-65.77-1.5-110.35-3.61-16.62-8.24-34.09-17.53-49.27-13.38-21.86-27.11-26.74-34.19-27.7-.33,3.87-1.61,7.59-3.71,10.79,.97,.38,1.83,.75,2.63,1.12,8,3.73,13.7,10.53,19.21,17.12l.95,1.13c1.17,1.39,2.38,2.8,3.55,4.17,5.23,6.08,10.63,12.37,14.39,19.49,8.68,16.44,8.26,35.24,7.07,53.1,.39,.52,.64,1.1,.75,1.71,2.63,15.63,3.23,30.36,1.77,43.79-.57,5.23-1.59,10.59-5.17,14.42-3.78,4.04-9.01,5.07-13.16,5.51-1.76,8.12-3.71,15.97-7.91,22.87-2.1,3.44-4.83,6.51-8.59,9.67v.02c0,.1,.01,.19,.02,.29,.01,3.8,.13,7.69,.34,11.91Zm-42.41-4.42c-5.65,0-11.55-.68-17.62-2.03-13.09-2.91-26.72-8.66-42.92-18.11l-.14-.08c-6.49-3.79-12.1-7.06-15.22-14.21-2.35-5.39-4.13-11.63-5.6-19.65v-.02s0-.02,0-.02c.03-.34,.02-.7-.03-1.05h0c-.65-5.18-1.29-10.37-1.93-15.55-1.27-10.23-2.58-20.81-3.93-31.2-.36-2.77-.82-4.79-1.5-6.53v-.03s0-.03,0-.03c.05-.39,.05-.78,.01-1.2l-.12-1.18c-.42-3.99-.85-8.12-.74-12.22v-.07s.06-.04,.06-.04c2.88-1.66,5.98-3.38,9.45-4.51,2.09-.68,4.26-1.18,6.36-1.67l.9-.21-.02,.17c-.56,6.12-.95,13.17,1.39,19.53,2.27,6.14,6.57,11.42,12.45,15.25,5.51,3.59,12.08,5.38,18.99,5.15,6.56-.21,13.11-2.18,18.94-5.71l.45-.27-.05,.08c.07-.03,.14-.06,.21-.09,.66-.49,1.37-1,2.12-1.48h-.08s.43-.3,.43-.3c6.52-4.75,10.87-10.13,12.58-15.54,.68-2.14,.95-4.5,.82-7.01v-.11s.1-.02,.1-.02c3.6-.68,7.02-.39,10.18,.85l.09,.04v.1c-.4,3.09-.25,6.43,.42,9.65,1.31,6.27,4.61,11.87,9.55,16.19l.4,.35c.39,.27,.78,.56,1.19,.9,.1,.08,.2,.17,.29,.26,.05,.05,.1,.1,.16,.14,5.09,3.78,11.29,6.14,17.92,6.84,9.59,1,19.72-1.42,27.12-6.49l.21-.14-.02,.26c-.27,4.17-1.09,8.35-2.5,12.78-1.38,4.33-3.09,8.62-4.75,12.76-2.66,6.65-5.41,13.54-6.84,20.74-.15,.75-.14,1.49,.02,2.18v.03s0,.03,0,.03c-1.49,6.9-2.97,13.07-6,18.59-3.68,6.71-10,10.9-16.12,14.95l-.54,.36c-5.97,3.96-12.59,7.71-20.62,8.37-1.81,.15-3.66,.22-5.54,.22Zm-81.24-54.11c1.46,7.99,3.24,14.22,5.58,19.58,3.09,7.08,8.66,10.33,15.12,14.09l.14,.08c16.17,9.43,29.79,15.18,42.85,18.08,8.05,1.79,15.81,2.4,23.08,1.8,7.97-.66,14.56-4.39,20.5-8.33l.54-.36c6.09-4.03,12.39-8.21,16.04-14.86,3.01-5.48,4.49-11.62,5.97-18.49-.16-.72-.17-1.48-.01-2.26,1.44-7.23,4.19-14.12,6.85-20.78,1.65-4.14,3.36-8.42,4.74-12.74,1.38-4.31,2.19-8.39,2.47-12.46-7.42,5-17.52,7.39-27.07,6.39-6.67-.7-12.91-3.08-18.05-6.89-.06-.06-.12-.1-.17-.15-.09-.08-.18-.17-.28-.25-.75-.61-1.45-1.1-2.15-1.5l.08-.17c-4.72-4.3-7.89-9.79-9.16-15.91-.67-3.21-.83-6.54-.45-9.63-3.05-1.18-6.36-1.46-9.84-.82,.12,2.5-.16,4.85-.83,6.99-1.7,5.37-5.95,10.69-12.31,15.4h.12s-.38,.29-.38,.29c-.92,.55-1.78,1.17-2.59,1.77-.24,.11-.45,.21-.63,.32l-.5,.3,.03-.05c-5.74,3.37-12.15,5.25-18.58,5.46-6.97,.22-13.58-1.57-19.13-5.2-5.93-3.86-10.27-9.18-12.55-15.38-2.34-6.35-1.97-13.37-1.42-19.47l-.56,.13c-2.1,.49-4.26,.99-6.34,1.66-3.42,1.11-6.49,2.8-9.34,4.45-.11,4.06,.32,8.16,.74,12.12l.12,1.18c.04,.42,.04,.82,0,1.22,.68,1.75,1.14,3.78,1.5,6.55,1.35,10.39,2.66,20.97,3.93,31.2,.64,5.18,1.28,10.37,1.93,15.55,.05,.37,.06,.74,.03,1.09Zm141.74,3.35l.07-.22c1.35-4.12,2.99-8.22,4.57-12.19,.7-1.76,1.43-3.57,2.12-5.37l.27-.69-.05,1.49c-.13,3.9-.26,7.94-1.36,11.63-.83,2.79-2.54,4.47-5.38,5.29l-.23,.07Zm6.72-17c-.61,1.57-1.24,3.15-1.85,4.68-1.55,3.89-3.15,7.91-4.49,11.94,2.61-.82,4.2-2.43,4.98-5.05,1.09-3.66,1.23-7.68,1.35-11.57h0Zm-159.53,4.29h-.15c-4.58-.17-7.68-7.2-9.23-20.9v-.05c-.03-.21-.06-.47-.1-.8-.53-4.43-2.14-17.91,.37-20.87,.32-.38,.7-.58,1.12-.6,3.08-.14,3.37,4.56,3.55,7.38,.03,.51,.06,.95,.1,1.26l4.34,34.59Zm-7.85-42.99s-.08,0-.13,0c-.36,.02-.67,.18-.94,.51-1.62,1.91-1.72,8.87-.31,20.68,.04,.33,.07,.6,.09,.8v.05c1.52,13.41,4.5,20.36,8.85,20.67l-4.3-34.29c-.04-.33-.07-.77-.1-1.28-.17-2.68-.45-7.15-3.16-7.15Zm140.83,12.43c-1.1,0-2.19-.06-3.26-.17-5.34-.56-10.2-2.39-14.05-5.28-4.21-3.16-6.94-7.46-7.9-12.44-.93-4.8-.25-10.78,4.47-13.17,5.1-2.58,11.47-3.35,15.91-3.54,10.22-.44,20.3,2.26,29.13,7.8l.06,.04v.07c-.02,3.48-.17,7.31-.46,12.05v.04s-.03,.03-.03,.03c-.26,.34-.47,.7-.65,1.12-4.02,9.49-14.05,13.46-23.23,13.46Zm-2.7-34.39c-.71,0-1.41,.01-2.12,.04-4.42,.19-10.74,.95-15.81,3.51-4.59,2.33-5.25,8.19-4.34,12.9,.95,4.92,3.65,9.16,7.81,12.29,3.81,2.87,8.63,4.67,13.93,5.23,9.85,1.04,21.78-2.63,26.23-13.13,.18-.42,.39-.79,.66-1.14,.29-4.68,.43-8.48,.46-11.93-8.16-5.1-17.39-7.77-26.81-7.77Zm-79.7,29.26c-1.32,0-2.59-.11-3.78-.34-6.77-1.3-12.63-5.39-15.69-10.95-3.48-6.31-2.62-14.18-1.87-21.12l.11-1.04,.07-.03c1.43-.52,2.88-1.06,4.28-1.59,3.48-1.31,7.07-2.66,10.71-3.71,8.93-2.56,15.81-2.23,21.67,1.06,5.74,3.22,9.97,8.77,11.33,14.85,1.07,4.8-.46,9.5-4.43,13.59-5.38,5.54-14.73,9.27-22.41,9.27Zm-20.99-33.26l-.1,.89c-.75,6.9-1.6,14.73,1.84,20.97,3.02,5.49,8.83,9.53,15.52,10.82,8.07,1.55,19.71-2.42,25.96-8.86,3.91-4.03,5.42-8.65,4.37-13.36-1.34-6.02-5.53-11.51-11.21-14.69-5.8-3.25-12.62-3.58-21.48-1.04-3.63,1.04-7.22,2.39-10.69,3.7-1.38,.52-2.8,1.06-4.21,1.57Zm-46.56,20.16l.03-.39c1.47-18.64,4.2-38.24,14.11-55.27l.11,.06-.11-.06c5.62-9.66,13.27-18.89,24.09-29.03,9.12-8.55,19.01-17.43,29.54-24.43,13.13-8.72,29.41-7.49,42.5-6.51,6.42,.48,13.58,1.42,17.31,6.48,3.3,4.48,2.8,11.27-1.13,15.47-.35,.38-.65,.8-.87,1.24l-.04,.09-.09-.02c-5.31-1.09-10.76-1.67-14.92-2.04-9.95-.9-18.21,1.52-26,7.61-1.57,1.23-3.11,2.56-4.6,3.84-1.99,1.72-4.05,3.5-6.22,5.06-2.64,1.91-5.48,3.63-8.22,5.29-1.73,1.05-3.52,2.14-5.24,3.26-7.28,4.74-14.8,10.58-23.66,18.38-1.54,1.36-3.15,2.71-4.85,4.13-6.46,5.42-13.78,11.56-17.72,18.79-4.31,7.91-4.37,16.88-3.95,23.81v.14s-.14-.01-.14-.01c-3.23-.28-6.33,.67-8.51,2.59-.4,.35-.77,.74-1.18,1.23l-.25,.3ZM339.34,23.15c-9.61,0-19.68,1.4-28.35,7.16-10.52,6.99-20.4,15.86-29.51,24.41-10.8,10.13-18.44,19.34-24.04,28.98-9.81,16.88-12.57,36.29-14.04,54.78,.32-.37,.63-.68,.95-.96,2.2-1.94,5.31-2.91,8.55-2.66-.42-6.94-.32-15.89,3.99-23.8,3.96-7.28,11.3-13.43,17.78-18.86,1.7-1.43,3.31-2.77,4.85-4.13,8.87-7.8,16.39-13.65,23.68-18.4,1.73-1.12,3.52-2.21,5.25-3.26,2.73-1.66,5.56-3.38,8.2-5.28,2.16-1.56,4.22-3.33,6.2-5.05,1.49-1.29,3.03-2.62,4.61-3.85,7.85-6.13,16.17-8.57,26.18-7.66,4.14,.37,9.57,.94,14.86,2.03,.23-.43,.52-.84,.87-1.22,3.85-4.12,4.34-10.77,1.11-15.16-3.66-4.97-10.76-5.9-17.13-6.38-4.38-.33-9.13-.69-13.99-.69Zm21.87,100.18l-.09-.03c-5.25-1.88-10.54-2.29-15.72-1.23l-.1,.02-.04-.09c-.5-1.16-1.06-2.29-1.68-3.37-3.47-6.07-8.68-10.75-15.07-13.54-6.18-2.7-13.16-3.52-20.19-2.39-5.88,.95-11.52,3.07-16.98,5.13-2.83,1.06-5.75,2.16-8.67,3.09-2.15,.68-4.38,1.21-6.54,1.73-2.44,.58-4.97,1.19-7.38,2.01-.87,.29-1.77,.64-2.77,1.06l-.34,.14,.18-.32c2.92-5.07,8.08-9.43,12.63-13.27,1.45-1.22,2.82-2.38,4.1-3.54,6.08-5.49,13.35-11.85,21.23-17.4,2.88-2.03,5.92-3.91,8.86-5.74,4.07-2.52,8.28-5.13,12.1-8.15,1.38-1.09,2.76-2.28,4.09-3.43,4.95-4.28,10.07-8.7,16.9-9.51,6.98-.82,15.82,.29,26.27,3.31,7.94,2.29,13.31,7.2,19.4,14.39,1.27,1.5,2.59,3.03,3.87,4.5,4.37,5.05,8.89,10.26,12.64,15.83,4.92,7.3,7.85,15.98,8.95,26.51l.02,.22-.2-.1c-10.83-5.28-23.38-7.18-35.33-5.33-7.19,1.11-15.97,3.17-20.04,9.34-.01,.02-.02,.03-.03,.05l-.08,.12Zm-10.17-2.09c3.35,0,6.71,.6,10.07,1.79,0,0,0,0,0-.01,4.12-6.25,12.96-8.33,20.2-9.45,11.93-1.84,24.45,.03,35.28,5.26-1.11-10.39-4.01-18.95-8.88-26.17-3.75-5.55-8.26-10.77-12.62-15.81-1.28-1.47-2.6-3-3.87-4.5-6.06-7.15-11.4-12.03-19.28-14.31-10.42-3.01-19.22-4.12-26.17-3.3-6.76,.8-11.85,5.2-16.77,9.45-1.33,1.15-2.71,2.35-4.1,3.44-3.83,3.03-8.05,5.64-12.12,8.17-2.94,1.82-5.98,3.71-8.85,5.73-7.87,5.55-15.14,11.9-21.21,17.38-1.28,1.16-2.65,2.32-4.1,3.54-4.44,3.75-9.46,7.98-12.38,12.88,.87-.36,1.67-.66,2.44-.92,2.43-.82,4.96-1.43,7.4-2.01,2.15-.51,4.38-1.05,6.52-1.72,2.91-.92,5.83-2.02,8.65-3.08,5.47-2.06,11.13-4.19,17.03-5.14,7.08-1.14,14.1-.31,20.33,2.41,6.44,2.81,11.69,7.53,15.19,13.65,.6,1.06,1.16,2.17,1.65,3.3,1.85-.37,3.72-.56,5.6-.56Z"/></g><path class="cls-1" d="M326.69,124.12c-11.69-3.64-23.95-2.34-34.73,3.39-5.69,3.02-.64,11.65,5.05,8.63,3-1.59,6.11-2.7,9.29-3.36-.8,2.89,.73,6.52,4.62,6.52,4.18,0,5.64-4.21,4.4-7.17,2.91,.18,5.83,.72,8.72,1.62,6.16,1.92,8.79-7.73,2.66-9.64Z"/><path class="cls-1" d="M412.97,137.4c-3.57-5.86-9.56-8.88-16.29-9.5-7.34-.67-16.27,.33-22.88,3.66-5.75,2.9-.69,11.53,5.05,8.63,2.99-1.51,6.72-2.08,10.29-2.3-1.05,2.94,.45,6.9,4.5,6.9s5.42-3.64,4.62-6.52c2.45,.59,4.63,1.8,6.08,4.18,3.35,5.49,12,.47,8.63-5.05Z"/><path class="cls-1" d="M373.77,165.81c-1.12-3.44-3.82-6-5.34-9.23-1.96-4.15-2.43-8.77-1.57-13.25,1.2-6.29-8.43-8.98-9.64-2.66-1.03,5.37-1.05,10.79,.61,16.06,.76,2.43,1.81,4.81,3.15,6.98,.68,1.11,1.55,2.12,2.2,3.24l.81,1.32c0,.28,.03,.5,.07,.68-.02,0-.04,0-.05,.01-7.7,2.02-15.45,2.38-23.29,.87-.3-.06-.58-.08-.86-.09-3.63-2.06,3.68-14.72,4.83-17.22,2.52-5.49,2.91-11.18,1.88-17.08-1.1-6.33-10.74-3.65-9.64,2.66,1.54,8.85-5.18,16.57-7.32,24.89-1.84,7.13-.03,15.19,8.27,16.64,.51,.09,1,.1,1.46,.06,8.74,1.52,17.39,1.3,26.02-.78,0,0,.01,0,.02,0,6.76-.32,10.43-6.89,8.41-13.11Z"/><path class="cls-1" d="M285.24,237.21c-.28-3.83-1.32-7.46-3.37-10.73-1.44-2.28-4.46-3.19-6.84-1.79-2.28,1.33-3.24,4.55-1.79,6.84,.76,1.21,1.03,1.68,1.38,2.73,.17,.52,.31,1.05,.43,1.58,.06,.28,.11,.56,.16,.85-.02-.08-.01,.08,.04,.52,.19,2.6,2.17,5.13,5,5,2.55-.11,5.2-2.21,5-5Z"/></svg>