<?xml version="1.0" encoding="UTF-8"?><svg id="Layer_1" xmlns="http://www.w3.org/2000/svg" viewBox="0 0 702.83 784.26"><defs><style>.cls-1{fill:#d926a9;}</style></defs><path class="cls-1" d="M690.71,498.97c-9.26-17.61-23.63-31.86-42.49-38.29-14.37-52.01-42.82-100.05-81.47-137.69,1.19-1.79,1.47-4.27-.22-6.37-5.56-6.91-11.49-14.29-13.28-23.2-1.9-9.48,.98-19.22,.2-28.78-.65-7.9-3.11-15.6-9.22-20.97-3.43-3.02-6.79-5.22-8.98-9.4-1.62-3.08-2.6-6.46-3.48-9.83,10.14-15.87,12.84-36.65,5.85-54.24-4.97-12.5-14-22.86-22.05-33.64-33.01-44.22-54.44-101.73-103.9-126.2-26.29-13.01-58.02-13.52-85.19-2.87-10.65,4.18-21.06,8.73-31.77,12.78-10.61,4.01-18.73,11.65-26.58,19.63-39.76,40.38-64.81,92.38-89,142.9-3.55,7.41-6.36,16.91-6.07,25.03,0,0,0,0,0,0-1.34,9.81-11.48,15.34-17.01,22.8-7.53,10.17-8.19,21.04-7.62,33.19,.33,6.9-2.27,10.39-6.79,15.17-3.69,3.91-6.95,8.23-9.46,12.99-4.98,9.43-7.33,20.04-6.76,30.67-3.66,3.65-7.03,7.52-9.86,11.78-9.56,14.41-12.19,32.2-18.62,48.25-21.1,52.67-81.78,84.31-94.58,139.58-6.3,27.18,.56,56.25,14.4,80.47s34.19,44.1,55.91,61.61c19.24,15.5,40.18,29.84,53.94,50.36s18.5,49.62,3.62,69.35c147.75,.07,295.5,.13,443.25,.2,3.97,0,8.22-.08,11.46-2.38,3.46-2.46,4.89-6.82,6.25-10.83,13-38.16,38.68-70.41,62.02-103.28,23.35-32.87,45.37-68.8,49.16-108.94,1.92-20.3-2.2-41.84-11.67-59.85Zm-157.43-251.3c3.66,3.11,7.05,5.39,8.75,10.13,1.48,4.14,1.67,8.58,1.54,12.93-.31,9.84-2.1,19.69,1.13,29.27,.11,.31,.22,.62,.33,.93-6.14-7.54-10.81-15.82-11.87-25.43-.8-7.29,.64-14.74-.59-21.97-1.22-7.23-6.47-14.75-13.81-14.79,1.95-1.5,3.79-3.14,5.51-4.88,1.94,5.22,4.62,10.08,9.01,13.81Zm-117.31,55.97c-18.67,9.84-38.67,18.63-60.01,19.36-22.08,.75-43.11-7.29-63.26-15.61,2.7-6.78,4.85-13.76,5.91-21.01,.79-5.37,1.51-11.43,.1-16.77-1.47-5.57-5.77-9.56-10.03-13.15-2.55-2.15-5.21-4.14-7.95-5.98,1.16-2.64,2.12-5.34,2.89-8.09,6.38,7.49,12.76,14.97,19.14,22.46,10.28,12.06,20.51,26.12,35.25,33.03,29.16,13.68,58.81-7.58,75.08-30.9,3-4.3,5.76-8.75,8.42-13.26,4.32,6.65,8.78,13.2,13.37,19.66-1.15,.45-2.31,.91-3.46,1.36-7.98,3.19-16.45,7.08-17.75,16.61-.6,4.37,.48,8.43,2.28,12.29Zm22.25-177.4c-1.01-1.3-2.18-2.48-3.59-3.51-2.27-1.66-4.79-2.93-7.43-3.9,1.89-2.53,1.55-6.88-2.42-7.98-18.95-5.3-39.15-4.37-57.44,2.93-5.91,2.36-3.33,12.03,2.66,9.64,3.78-1.51,7.63-2.72,11.51-3.65-7.32,3.12-13.38,8.29-16.42,16.44-6.07-.55-12.03-.5-18.11,.17-1.9-4.33-4.75-7.99-8.33-10.84,5.05-1.07,4.6-9.63-1.34-9.89-19.3-.85-38.6-.68-57.88,.5-6.39,.39-6.44,10.39,0,10,.57-.04,1.15-.06,1.72-.09-1.64,.77-3.25,1.59-4.83,2.46-.82-.44-1.66-.85-2.5-1.24,2.05-19.64,5.58-41.06,21.34-54.64,12.65-10.89,28.91-16.44,39.75-29.23,12.39,7.24,27.78,7.15,41.53,10.81,8.64,2.3,17.37,5.18,25.32,9.31,8.22,4.26,13.88,10.27,18.82,18.02,4.81,7.56,9.89,15.51,13.07,23.91,2.42,6.41,2.43,14.95,8.39,19.3-1.28,.47-2.56,.96-3.83,1.49Zm13.1,140.65c-2.28,.93-4.56,1.84-6.85,2.74-5.56-7.77-10.94-15.67-16.09-23.71-.42-.66-.92-1.16-1.47-1.53,3.2-5.64,6.38-11.28,9.81-16.78,1.62,14.18,5.17,28.58,14.61,39.28Zm-19.78-105.62c-5.14,13-19.45,21.44-33.31,17.54-7.36-2.07-12.96-8.15-17.58-13.97-4.91-6.18-8.45-13.17-8.1-21.08,.6-.56,1.08-1.33,1.35-2.32,4.71-17.2,28.38-17.37,42.54-15.06,3.92,.64,8.1,1.67,11.47,3.84,3.69,2.37,4.74,6.3,5.52,10.42,1.29,6.83,.67,14.15-1.89,20.63Zm-150.62-10.13c3.52-3.96,5.35-9.56,3.36-14.65-.09-.24-.2-.48-.31-.71,11.91-5.96,26.07-9.14,39.17-6.65,15.84,3.01,19.69,19.48,13.58,32.79-5.29,11.53-18.26,24.65-32.18,22.35-6.72-1.11-11.63-6.57-15.73-11.57-4.64-5.65-9.04-11.51-13.51-17.3,2.04-1.01,3.95-2.37,5.63-4.26Zm15.94,41.15c13.14,5.66,27.88-.76,37.54-10.1,9.49-9.18,16.3-22.7,15.04-36.13,4.32-.45,8.71-.51,13.05-.19,.24,15.15,11.81,29.99,23.7,38.23,11.97,8.3,29.1,6.96,40.74-1.29,2.55-1.8,4.81-3.9,6.8-6.22,.33,11.81,.87,23.62,1.67,35.41-.36,.29-.71,.64-1.01,1.07-17.13,23.77-26.78,55.28-52.83,71.35-11.48,7.08-25.71,10.62-38.5,4.83-13.36-6.05-22.68-19.09-31.93-29.94-8.54-10.02-17.07-20.04-25.61-30.05-.33-1.06-1.05-1.82-1.95-2.29-3.98-4.68-7.97-9.35-11.95-14.03-.56-.66-1.17-1.09-1.8-1.35,.2-2.41,.39-4.82,.58-7.24,.95-11.71,1.82-23.43,2.69-35.14,6.58,9.14,13.85,18.81,23.76,23.09Zm-21.36,40.56c-.57,4.32-1.7,8.49-3.38,12.48-2.21-1.17-4.46-2.26-6.77-3.26,1.64-4.85,2.29-10.31,2.93-15.2,.1-.72,.17-1.45,.26-2.17,2.32,2.72,4.64,5.44,6.95,8.16Zm6.11,30.68c4.34,3.66,7.69,6.75,7.8,12.74,.1,5.41-.82,10.82-2.18,16.04-5.18,19.83-16.61,38.14-26.34,56.15-16.82-6.51-33.7-12.9-50.43-19.65-15.95-6.44-30.16-14.98-44.17-24.7,6.13-10.87,8.36-24.51,11.55-36.36,1.85-6.89,3.63-13.79,5.24-20.74,.81-3.47,1.5-6.97,2.3-10.45,.85-3.7,2.39-4.02,6.09-4.14,.4-.01,.77-.06,1.12-.15,.06,0,.13,.01,.19,.01,.25,.07,.5,.12,.77,.15,13.12,1.63,26.32,3.37,39.01,7.21,6.34,1.92,12.48,4.38,18.25,7.67,2.37,1.35,4.81,2.39,7.04,2.43,8.6,3.26,16.72,7.85,23.76,13.78Zm146.76,23.41c8.44-4.78,18.43-7.43,27.38-11.14,9.75-4.05,19.35-8.47,28.28-14.14,8.41-5.34,18.26-13.68,28.9-11.03,.47,.12,.92,.16,1.35,.16,.05,0,.09,.03,.14,.04,2.63,.37,5.26,.73,7.9,1.1,.61,15.49,1.89,31.31,8.13,45.65,3.25,7.45,7.87,13.44,13.32,18.66-16.31,6.27-32.11,13.83-47.1,22.82-8.05,4.83-15.84,10.05-23.4,15.61-6.12,4.5-12.21,9.23-19.02,12.61-.44-2.22-.95-4.4-1.41-6.5-4.03-18.29-11.53-35.91-21.81-51.56-4.34-6.6-12.46-16.72-2.65-22.28Zm74.61-149.9c4.55,4.22,8.46,9.03,11.93,14.15,3.44,5.08,6.48,10.41,9.4,15.8,3.31,6.11,7.37,12.52,9.09,19.3,2.86,11.28-4.23,20.97-10.26,29.81-5.14,7.54-10.13,15.28-11.8,24.18-7.95-.67-15.41,2.29-22.41,6.4-9.08,5.34-17.6,11.2-27.19,15.67-.2,.09-.41,.18-.61,.28-12.47-12.06-14.29-30.22-15.45-46.89-1.33-19.2-2.08-38.43-2.32-57.66,4.44-.36,9.08-.56,13.46,.16,.69,7.1,1.7,14.16,3.18,21.14,1.4,6.64,2.67,14.5,5.83,20.55,2.48,4.73,7.74,6.59,12.14,3.09,4.31-3.43,6.83-9.5,7.76-14.78,2.01-11.33-1.93-23.92-10.42-31.8-8.69-8.07-20.09-8.99-31.3-8.36,.01-1.71-.06-3.42-.24-5.11-.27-2.59-.68-5.22-1.35-7.75,6.95-2.89,14.27-4.9,21.74-5.9,.21-.03,.41-.07,.61-.12,1.05,.1,2.09,.2,3.14,.3,9.31,.84,18.63,1.44,27.97,1.85,2.41,1.85,4.88,3.63,7.09,5.68Zm-35.65,25.69c5.4,4.37,8.59,11.43,8.93,18.29,.19,3.84-.45,7.83-2.36,11.2-.61-1.86-1.42-4.02-1.54-4.45-2.31-8.22-3.97-16.58-5.03-25.04ZM240.81,84.66c3.94-12.59,13.66-20.5,23.19-28.99,19.17-17.07,41.14-34.3,68.08-34.35,1.66,0,2.89-.68,3.7-1.67,16.9-16.36,43.51-14.36,63.22-4.55,11.64,5.8,21.93,13.82,31.68,22.36,9.55,8.37,19.11,16.92,27.83,26.16,8.12,8.6,15.68,18.3,19.57,29.61,3.13,9.11,3.42,19.24,8.06,27.62-5.75-.34-11.5-.75-17.23-1.26-4.86-.43-9.73-.88-14.57-1.47-4.47-.55-7.07-.86-8.33-5.62-4.11-15.58-11.82-30.31-21.72-43.1-9.87-12.75-24.93-18.8-39.95-23.36-7.91-2.4-15.95-4-24.1-5.3-7.88-1.26-16.5-2.44-22.9-7.63-2.59-2.1-5.93-1.87-7.85,1.01-10.92,16.37-32.34,21.27-45.54,35.42-13.61,14.6-17.5,34.68-19.69,53.92-10.37-3.49-21.33-5.02-32.26-4.57,2.76-11.45,5.33-23.04,8.83-34.26Zm-53.38,99.66c9.46-15.03,16.76-30.35,23.37-46.81,5.77-1.79,11.26-4.33,16.32-7.66,.31-.21,.58-.43,.82-.67,13.77-1.19,27.71,.8,40.36,6.56,2.45,1.12,7.32,2.69,6.7,6.1-.5,2.75-3.53,4.58-5.89,5.42-6.4,2.28-13.57,1.13-20.03,3.43-10.5,3.73-18.78,12.16-22.79,22.5-2,5.14-2.89,10.84-2.23,16.34,.81,6.8,6.61,8.35,12.09,11.01,3.59,1.75,7.15-.42,7.52-4.32,1.1-11.63,3.33-23.05,6.53-34.28,.08-.27,.13-.53,.16-.79,4.32-1.65,9.07-2.11,13.7-2.77-.13,.41-.23,.84-.26,1.32-1.02,13.91-2.04,27.82-3.16,41.73-.53,6.65-1.02,13.31-1.7,19.94-.33,3.22-.74,6.42-1.33,9.6-.34,1.83-.68,5.51-1.58,8.1-.04,0-.08,.01-.12,.02-1.38-.81-2.85-1.95-3.77-2.41-2.4-1.2-4.86-2.28-7.34-3.3-5.5-2.24-11.18-3.98-16.95-5.37-10.49-2.53-21.21-3.94-31.91-5.28-4.01-4.34-10.06-7.72-13.19-12.8,.08-1.73-.64-3.16-1.73-4.16-1.79-7.51,2.56-15.36,6.41-21.48Zm49.62-10.73c-1.03,4.99-1.86,10.01-2.52,15.06-.45-.31-.41-.63-.69-1.91-.55-2.48,.43-5.9,1.16-8.27,.52-1.69,1.22-3.32,2.05-4.89Zm-93.42,118.7c2.9-4.31,6.86-7.64,10.02-11.72,3.44-4.43,4.88-9.4,4.83-14.99-.05-5.85-1.14-11.47,.22-17.27,1.33-5.67,4.08-10.7,8.04-14.96,3.8-4.08,8.23-7.89,11.49-12.38,1.26,1.14,2.77,2.09,4.58,2.78-13.73,11.92-8.9,34.08-14.54,51.37-5.29,16.19-19.24,26.78-32.49,38.1,.97-7.43,3.56-14.56,7.85-20.94Zm-12.25,409.59c-7.77-3.35-14.88-8.23-21.29-13.71-13.15-11.24-23.99-24.81-35.99-37.2-28.02-28.93-71.62-61.6-64.06-107.54,.23-1.38-.06-2.59-.66-3.57,.7-8.94,4.36-17.33,7.69-25.58,3.33-8.26,6.81-16.46,10.75-24.45,7.71-15.64,17.24-30.59,30.72-41.9,6.99-5.86,15.03-10.32,21.95-16.27,6.75-5.8,11.77-13.18,15.52-21.2,3.66-7.83,6.31-16.06,9.24-24.17,3.66-10.13,7.85-20.06,12.59-29.74,4.76-9.72,9.89-19.45,15.95-28.43,.01-.02,.03-.04,.04-.05,.72-.5,1.27-1.22,1.54-2.17,5.7-7.75,13.31-14.47,23.21-15.03,15.12,10.66,30.34,19.86,47.53,26.9,17.47,7.15,35.16,13.77,52.76,20.59,5.61,7.86,4.91,17.43,3.33,26.53-1.73,9.94-3.36,19.44-2.29,29.57,1.12,10.6,3.57,21,4.23,31.66,.6,9.53,.29,19.19-1.04,28.65-2.8,19.88-9.96,38.39-20.06,55.67-10.26,17.56-21.61,34.42-31.53,52.2-19.97,35.78-37.4,73.01-59.44,107.62-2.37,3.72-4.61,7.82-7.63,11.06-3.96,4.25-8.27,2.63-13.05,.57Zm559.66-138.66c-7.21,44.71-30.75,83.67-59.18,117.99-14.95,18.04-30.24,36.17-39.82,57.77-.4,.91-.53,1.8-.46,2.63-4.27,10.73-6.42,22.08-10.26,32.89-116.86-.3-233.72-.6-350.59-.9-28.34-.07-56.77-.61-84.99,2.19,3.2-7.55,4.81-15.77,4.57-24.01-.39-13.05-7.15-25.15-6.88-38.15,8-2.37,12.56-10.99,16.76-17.57,5.97-9.34,11.61-18.89,17.05-28.55,10.89-19.34,20.98-39.13,31.41-58.72,10.44-19.62,21.44-38.83,33.33-57.6,11.62-18.34,22.24-36.99,27.65-58.19,6-23.48,5.29-46.58,1.45-70.3-1.06-6.56-1.94-13.17-1.56-19.83,.38-6.74,2.1-13.32,3.05-19.98,1.35-9.47,1.15-19.51-3.89-27.81,6.02-11.35,12.2-22.64,17.9-34.15,.73-1.48,1.45-2.96,2.15-4.46,21.95,9.05,44.87,17.71,68.99,16.43,22.55-1.19,43.56-10.26,63.31-20.66,1.1,1.66,2.2,3.29,3.21,4.9,5.56,8.85,10.2,18.28,13.72,28.13,3.46,9.71,6.26,20,7.38,30.27,.58,5.37-1.5,9.08-3.18,14-1.67,4.89-2.31,10.22-2.47,15.37-.8,25.21,4.93,51.65,12.5,75.54,.24,.75,.59,1.36,1.02,1.86-8.28,32.62-9.84,67.41,.77,99.7,5.41,16.46,13.18,32.12,20.09,47.98,7.34,16.83,14.44,33.76,21.32,50.78,7.76,19.23,15.22,38.57,22.4,58.03,2.21,5.99,11.88,3.4,9.64-2.66-12.16-32.93-25.14-65.54-38.95-97.81-13.58-31.74-30.33-62.45-31.89-97.66-.86-19.48,1.81-38.83,6.75-57.65,.55-2.08-.17-3.76-1.42-4.85-.03-.13-.06-.25-.1-.38-6.38-20.15-10.52-40.98-11.87-62.09-.66-10.29,.17-19.12,3.95-28.74,1.17-2.98,1.59-6.13,1.57-9.34,15.68-6.78,28.76-19.21,43.22-28.12,16.68-10.28,34.36-18.83,52.76-25.55,.35-.13,.66-.28,.95-.46,2.82,2.13,5.76,4.17,8.77,6.2,5.9,3.97,11.94,7.89,16.89,13.06,5.32,5.56,7.22,11.47,7.77,19.04,.66,8.96,3.82,15.24,10.87,20.84,3.03,2.41,6.32,4.51,9.15,7.16,3.73,3.49,6.41,7.83,9.04,12.17,11.15,18.34,24.02,39.45,20.87,61.86-.34,2.4,.56,5.73,3.49,6.15,18.52,2.65,33.6,14.76,42.87,30.69,10.92,18.78,12.29,41.47,8.9,62.53Z"/><path class="cls-1" d="M400.06,224.79c-11.77-4.05-24.16-3.46-35.54,1.14-5.12-3.03-10.88-3.96-17.03-3.39-8.82,.83-17.14,4.48-26.1,3.44-3.93-.45-5.41,3.16-4.51,6.18-.23,1.75,.33,3.64,2.06,4.96,6.69,5.08,14.45,8.25,22.17,11.41,7.45,3.05,15.02,5.52,23.17,5.29,14.56-.42,27.79-7.7,36.39-19.33,.03-.05,.06-.09,.09-.14,3.46-1.59,4.07-7.93-.7-9.57Zm-38.66,19.01c-6.73-.3-13.1-3.02-19.24-5.58-2.42-1.01-4.82-2.05-7.17-3.18,2.54-.5,5.07-1.1,7.62-1.64,5.7-1.21,12.95-2.28,17.87,1.69,1.89,1.52,3.86,1.83,6.06,.78,7.3-3.47,15.18-4.51,22.93-3.38-7.15,7.58-17.64,11.77-28.07,11.3Z"/><path class="cls-1" d="M379.75,185.61c-3.04-5.67-11.68-.63-8.63,5.05,1.72,3.2,3.94,6.51,5.59,9.91-2.9,.43-8.2,.9-9.38,1.41-1.92,.85-3.78,2.35-5.97,2.27-1.97-.08-4.17-1.52-5.89-2.32-1.67-.77-3.37-1.57-5.15-2.09-1.23-.36-6.53-.19-7.1-.88-.86-1.05,1.21-4.56,1.68-5.77l3.37-8.73c2.32-6.01-7.35-8.61-9.64-2.66-2.69,6.97-10.66,19.17-2.33,25.03,3.84,2.7,8.57,1.51,12.76,3.14,3.69,1.44,6.99,3.59,11,4.1,4.06,.52,6.85-.97,10.43-2.55,4.07-1.79,8.74-.4,12.82-2.42,10.05-4.98-.16-17.19-3.55-23.5Z"/><path class="cls-1" d="M326.04,141.13c-11.74-8.16-27.64-6.69-38.22,2.64-4.84,4.27,2.26,11.32,7.07,7.07,2.74-2.41,5.94-3.94,9.3-4.63-1.05,2.94,.44,6.9,4.5,6.9s5.51-3.85,4.55-6.77c2.73,.62,5.37,1.76,7.75,3.42,5.3,3.68,10.3-4.98,5.05-8.63Z"/><path class="cls-1" d="M426.06,141.07c-12.04-6.89-27.21-6.48-38.66,1.49-5.25,3.65-.25,12.32,5.05,8.63,3.58-2.49,7.56-4.06,11.64-4.68-.85,2.9,.67,6.6,4.6,6.6s5.35-3.48,4.67-6.33c2.62,.56,5.2,1.52,7.66,2.92,5.6,3.2,10.64-5.44,5.05-8.63Z"/></svg>