<?xml version="1.0" encoding="UTF-8"?><svg id="Layer_1" xmlns="http://www.w3.org/2000/svg" viewBox="0 0 697.04 784.72"><defs><style>.cls-1{fill:#d926a9;}</style></defs><path class="cls-1" d="M191.73,457.46c-6.43,0-6.45,10,0,10s6.45-10,0-10Z"/><path class="cls-1" d="M308.56,325.63c-15.97-11.44-38.09-11.96-54.72-1.6-5.45,3.39-.44,12.05,5.05,8.63,5.62-3.5,11.84-5.43,18.13-5.89-1.37,2.96,.07,7.33,4.33,7.33s5.58-4.05,4.47-7c6.25,.93,12.32,3.32,17.69,7.16,5.24,3.75,10.24-4.92,5.05-8.63Z"/><path class="cls-1" d="M437.31,329.37c-13.97-7.85-30.76-9.29-45.75-3.45-5.93,2.31-3.35,11.98,2.66,9.64,5.46-2.13,11.13-3.2,16.76-3.18-.97,2.92,.54,6.78,4.54,6.78,3.54,0,5.13-3.02,4.78-5.74,4.11,.92,8.14,2.43,11.97,4.58,5.62,3.16,10.66-5.48,5.05-8.63Z"/><path class="cls-1" d="M320.41,297.15c-24.44-7.87-50.31-10.54-75.83-7.73-6.33,.7-6.4,10.7,0,10,24.74-2.72,49.48-.25,73.17,7.37,6.14,1.98,8.77-7.68,2.66-9.64Z"/><path class="cls-1" d="M444.68,295.44c-18.72-.78-37.39,1.16-55.57,5.67-6.24,1.55-3.6,11.2,2.66,9.64,17.36-4.31,35.05-6.05,52.92-5.31,6.43,.27,6.42-9.73,0-10Z"/><path class="cls-1" d="M320.75,409.71c-8.61-4.09-4.02-15.12-1.18-21.49,2.6-5.83-6.02-10.92-8.63-5.05-5.02,11.26-9.52,28.38,4.77,35.17,5.78,2.75,10.86-5.87,5.05-8.63Z"/><path class="cls-1" d="M385.82,389.62c.04-1.16-.3-2.37-1.2-3.47-11.65-14.35-17.84-32.32-17.9-50.75-.02-6.43-10.02-6.45-10,0,.07,20.44,6.95,39.86,19.38,55.96-.03,.84,.18,1.73,.71,2.64,1.78,3.08,3.78,6.27,4.32,9.85,.31,2.08-.43,7.54-3.85,7.04-6.29-.91-9.01,8.72-2.66,9.64,7.15,1.04,13.24-2.77,15.71-9.63,2.68-7.42-.84-14.87-4.51-21.28Z"/><path class="cls-1" d="M400.87,425.32c-10.59,5.75-21.3,11.45-33.35,13.32-11.23,1.75-22.76,.42-33.82-1.84-19.82-4.05-39.06-10.85-59.19-13.07-.67-.36-1.34-.71-2.03-1.04-1.94-.9-3.79-.53-5.19,.45-.2-.01-.39-.03-.59-.04-6.43-.29-6.42,9.71,0,10,1.5,.07,2.98,.17,4.47,.3,11.79,7.44,18.74,21.54,27.67,31.85,9.48,10.95,22.35,20.38,37.4,20.66,14.35,.26,26.01-8.87,35.55-18.62,11.48-11.72,22.55-23.53,35.15-34.11,4.48-3.76-1.24-10.47-6.06-7.85Zm-32.91,31.49c-8.79,9.34-19.36,20.13-33.3,19.02-22.66-1.81-32.15-23.72-45.72-39.69,16.32,3.45,32.28,8.84,48.76,11.53,11.07,1.81,22.2,2.39,33.3,.47,2.32-.4,4.6-.94,6.84-1.58-3.33,3.37-6.62,6.78-9.88,10.25Z"/><path class="cls-1" d="M674.46,776.91c-5.58-33.25-11.17-66.49-16.75-99.74-3.61-21.48-7.61-43.91-20.87-61.19-11.44-14.91-28.47-24.27-42.98-36.21-17.84-14.68-32.12-33.66-41.29-54.88-39.73-91.98,21.11-201.83-9.91-297.1-17.2-52.82-63.69-95.03-117.92-107.05-9.35-2.07-18.94-3.32-27.88-6.73-6.72-2.56-12.92-6.28-19.38-9.42-35.35-17.21-80.42-16.76-113.85,4.27-7.57,4.77-17.18,7.1-25.17,11.37-8.19,4.38-16.02,9.4-23.46,14.95-15.02,11.2-28.41,24.52-40.1,39.14s-21.44,30.11-29.7,46.61c-25.2,50.33-35.92,106.55-43.94,162.26-8.02,55.71-13.69,112.09-29.8,166.02-7.12,23.83-16.38,48.07-13.67,72.79,2.28,20.8,12.98,40.58,11.47,61.45-1.31,18.2-11.7,34.31-21.76,49.52-7.7,11.64-15.4,23.27-23.1,34.91-1.95,2.95-3.99,6.33-3.23,9.78,1.29,5.85,8.97,7.08,14.96,7.04,213.02-1.2,426.03-2.41,639.05-3.61-.23-1.4-.47-2.79-.7-4.19Zm-123.04-224.87c21.12,18.91,42.94,37.01,64.1,55.86-4.55,1.19-9.04,2.59-13.41,4.35-.64-.97-1.65-1.69-3.01-1.92-.07-.07-.13-.15-.21-.22-35.6-32.81-74.26-62.2-115.41-87.7,1.12-11.77,1.93-23.57,2.4-35.38,1.15,1.61,2.33,3.2,3.55,4.76,17.18,21.82,39.11,39.79,59.72,58.26,.57,1.08,1.37,1.73,2.26,2.02Zm-486.08,44.64s0-.09,.01-.14c33.52-72.9,37.72-153.91,48.16-232.32,5.35-40.16,12.32-81.15,29.77-118.08,8.85-18.74,20.43-36,32.73-52.63,11.37-15.37,23.64-30.18,37.58-43.31,15.69-14.79,33.66-27.04,53.8-34.95,20.24-7.95,41.7-12.08,63.3-14,.61,.33,1.32,.55,2.14,.6,15.95,1.15,31.19,6.06,44.9,14.26,.64,.38,1.27,.6,1.88,.69,.23,.4,.53,.77,.91,1.07,3.86,3,7.71,6,11.57,9,.38,2.05,1.92,3.68,4.65,3.32,31.3-4.11,62.66,5.74,85.75,27.33,23.05,21.54,38.49,50.98,48.45,80.59,10.9,32.41,17.78,67.56,10.39,101.45-3.56,16.33-8.99,32.23-11.48,48.79-2.63,17.52-1.83,35.16-.69,52.76,1.96,30.13,4.06,60.59,12.85,89.45-13.3-11.81-26.37-23.91-38.12-37.1-6.73-7.55-12.43-15.68-17.77-24.12-.24-.77-.66-1.39-1.19-1.88-2.12-3.4-4.19-6.84-6.25-10.32-6.85-11.58-14.05-23.09-23.79-32.45,15.53-44.96,22.65-92.82,20.57-140.36-.32-7.22-.3-14.75-2.34-21.61,.17-1.01-.01-2.12-.73-3.26-5.25-8.3-10.53-16.59-16.5-24.4-5.76-7.53-12.7-13.91-18.69-21.21-10.8-13.17-13.56-30.99-25.54-43.47-.08-.09-.17-.16-.26-.24-1.75-1.91-4.67-2.58-6.85-.06-11.85,13.73-27.33,22.97-43.28,31.21-17.82,9.2-35.88,17.97-53.88,26.82-37.29,18.34-74.84,36.19-113.2,52.2-1.44,.6-2.37,1.64-2.86,2.83h-.58c.06,2.77,.19,5.54,.39,8.32-7.05,1.83-12.04,8.06-13.78,15.31-2.42,10.09-2.06,22.56,0,32.67,1.12,5.5,3.64,10.78,3.76,16.45,.11,5.04-1.16,10.07,.17,15.06,1.97,7.38,8.11,11.39,14.7,14.17,.43,6.21,.85,12.42,1.28,18.62,.47,6.8,.55,12.08-4.04,17.55-8.15,9.73-18.57,18.07-27.75,26.81-3.61,3.44-8.22,6.91-8.15,12.39,.06,5.35,4.48,10.43,7.28,14.69,.3,.45,.6,.9,.91,1.35-11.81,9.21-21.6,20.48-28.86,33.66-1.12,2.02-.71,3.97,.4,5.38,.59,1.52,1.25,3.01,1.95,4.47-20.44,30.34-40.83,62.22-45.02,99.37-2.25,19.99-.33,40.2-10.94,58.21-.85,1.45-1.75,2.87-2.66,4.29-1-11.81-3.06-23.51-6.26-34.95-4.62-16.5-11.04-32.85-8.79-50.29Zm125.63-243.44c-.4-3.82-1.51-7.46-2.58-11.13-2.3-7.92-2.41-15.72-2.2-23.9,.13-5.18,.52-14.04,5.83-16.59,1.55,16.88,3.25,33.7,4.33,50.63,.48,7.62,.98,15.24,1.57,22.85-4.07-1.98-7.19-4.81-7.27-10.23-.06-3.91,.74-7.71,.32-11.63Zm270.37-92.54c.16,.25,.32,.5,.47,.74,1.27,2.09,2.17,4.37,2.58,7.06,.83,5.51,.9,11.22,1.13,16.77,.92,22.26-.12,44.65-3.25,66.71-3.54,25-9.68,49.58-18.14,73.36-.29,.82-.36,1.57-.27,2.25-13.13,28-33.14,51.74-54.05,74.29-10.29,11.09-20.89,25.48-35.27,31.37-14.31,5.86-31.17,3.45-44.88-2.94-14.83-6.91-27.09-18.06-38.52-29.54-7.8-7.83-15.54-15.75-23.07-23.87-.47-1.1-1.22-1.86-2.12-2.3-3.56-3.88-7.08-7.8-10.52-11.78-5.38-6.23-10.87-12.56-14.83-19.82-.29-.53-.56-1.07-.83-1.61,.15-1.75-.61-3.16-1.77-4.09-2.26-5.94-3.47-12.31-4.66-18.52-3.42-17.83-4.94-35.95-6.16-54.04-1.34-19.9-2.57-39.76-4.72-59.6-.6-5.55-1.2-11.22-1.54-16.91,29.12-12.26,57.82-25.47,86.28-39.19,28.73-13.85,57.8-27.45,85.83-42.67,12.62-6.85,24.79-14.8,34.82-25.1,8.83,11.6,12.09,26.78,21.23,38.31,5.87,7.41,12.98,13.7,18.74,21.23,4.48,5.85,8.53,12.02,12.5,18.23h-.13c.42,.53,.8,1.08,1.17,1.64ZM203.98,423.46c.92,4.72,2.02,9.4,3.46,13.94,.58,1.83,1.27,3.6,2.01,5.33-.38,3.9,.28,7.69,1.13,11.63,1.28,5.95,.91,9.25-2.58,14.28-5.8,8.36-11.63,16.7-17.45,25.04-6.17-7.55-11.95-15.39-17.3-23.54-1.53-2.33-3.98-5.11-4.89-7.73-1.13-3.23,1.16-4.33,3.49-6.55,4.55-4.33,9.09-8.66,13.64-12.98,6.2-5.9,13.96-11.84,18.49-19.42Zm-32.8,61.29c5.1,7.12,10.51,14.01,16.19,20.68,2.24,2.64,6.16,1.42,7.85-1.01,7.47-10.71,15.12-21.32,22.4-32.15,2.26-3.36,3.6-6.8,3.83-10.62,5.59,7.01,11.53,13.74,17.65,20.31,2.02,7.9,3.42,16.29,.89,24.22-2.56,8.03-8.66,14.73-12.91,21.89-8.34,14.05-14.35,29.49-18.52,45.26-6.26,23.7-8.38,48.09-9.19,72.53-10.3-19.43-18.58-39.86-24.6-61.05-3.57-12.6-5.98-25.55-10.45-37.89-2.11-5.83-4.69-11.48-7.87-16.8-3.41-5.69-7.31-11.12-9.77-17.3,6.35-10.83,14.59-20.35,24.5-28.07Zm38.84,146.63c2.09-35.06,8.56-71.03,27.5-101.22,1.45-2.31,3-4.57,4.52-6.85,.49,5.15,.98,10.29,1.47,15.44,.61,6.35,10.61,6.41,10,0-.99-10.36-1.98-20.73-2.97-31.09-.04-.44-.13-.85-.26-1.22,0-.04,.02-.07,.03-.11,.86-3.84,1.1-7.72,.93-11.59,2.03,2.1,4.07,4.2,6.1,6.29,12.13,12.51,24.67,25.07,39.78,33.99,13.91,8.21,30.36,13.01,46.58,11.14,2.39-.28,4.68-.72,6.89-1.29-18.77,20.07-37.1,40.56-54.96,61.45-.01,.01-.02,.02-.03,.04-.43,.34-.82,.78-1.16,1.32-15.58,24.91-31.13,49.84-46.74,74.72-11.74,18.71-23.92,37.28-39.37,53.06,.1-34.67-.38-69.48,1.67-104.06Zm178.84-112.02c1.03-1.05,1.45-2.22,1.44-3.36,23.16-24.61,46.07-50.2,60.96-80.7,10.09,10.9,17.33,24.1,25.05,36.91-1.13,62.87-11.51,125.38-30.83,185.23-4.87,15.09-10.33,29.99-16.3,44.68-44.15-24.43-89.65-50.5-120.15-91.76-.63-.85-1.39-1.41-2.2-1.75,26.36-30.63,53.71-60.4,82.03-89.24Zm-215.61,254.37c-2.37,0-4.74,0-7.1,0-43.16-.1-86.32-.32-129.47-.64,5.2-14.06,11.65-27.62,19.38-40.51,6.5-10.84,14.38-20.56,22-30.5,1.58-.58,2.85-1.91,3.02-3.98,2.72-3.62,5.37-7.29,7.89-11.08,5.23-7.87,9.18-16.45,11.15-25.72,1.98-9.29,2.37-18.82,2.88-28.28,1.03-19.35,5.1-37.47,13.25-55.11,7.79-16.88,17.85-32.57,28.18-47.99,3.77,6.36,7.71,12.64,10.27,19.68,4.69,12.89,7.14,26.47,10.95,39.62,7.75,26.71,19.02,52.37,33.29,76.24,0,.02,.02,.03,.03,.05-.07,5.23-.11,10.46-.15,15.68-.17,21.2-.33,42.4-.5,63.6-9.26,8.86-17.6,18.55-25.06,28.96Zm311.84-1.36c-22.16,.24-44.33,.45-66.49,.63-77.65,.62-155.31,.86-232.97,.75,6.17-7.99,12.95-15.47,20.3-22.44,.31-.18,.61-.37,.89-.62,19.87-17.45,34.63-39.57,48.61-61.79,15.23-24.22,30.35-48.5,45.52-72.76,32.78,43.92,81.04,71.33,128.16,97.37,3.11,1.72,6.1,0,7.35-2.99,23.58-56.51,38.98-116.22,45.86-177.06,38.98,24.5,75.63,52.5,109.5,83.72,.05,.05,.1,.08,.15,.13-5.72,3.6-10.78,8.15-15.39,13.17-12.74,13.88-24.19,29.2-35.1,44.55-21.86,30.76-39.64,63.65-56.4,97.34Zm11.22-.13c15.16-30.24,31.25-59.82,50.64-87.67,10.53-15.12,21.73-29.84,33.81-43.77,5.83-6.72,12.07-12.92,20.04-17.06,7.26-3.77,15.26-5.83,23.22-7.63,6.08,6.48,11.21,13.69,14.21,22.29,4.62,13.26,6.32,27.65,8.9,41.41,5.62,30,11.24,60,16.85,89.99-55.89,1-111.78,1.81-167.68,2.43Z"/></svg>