<?xml version="1.0" encoding="UTF-8"?><svg id="Layer_1" xmlns="http://www.w3.org/2000/svg" viewBox="0 0 697.04 784.72"><defs><style>.cls-1{fill:#d926a9;}</style></defs><path class="cls-1" d="M308.51,196.57c-1.75-2.75-6.01-3.79-7.67-.07-.33,.74-.67,1.49-1.02,2.25-12.07,9.07-25.48,20.5-40.74,21.32-5.92,.32-5.96,9.56,0,9.25,3.56-.19,6.99-.82,10.3-1.79,.31,.15,.66,.28,1.04,.37,8.94,2.11,17.9,.15,24.92-5.84,5.41-4.61,8.89-10.94,11.87-17.34,.26-.19,.51-.37,.77-.55,2.83-2.03,2.38-5.67,.53-7.58Z"/><path class="cls-1" d="M287.58,107.91c-16.63-3.53-26.77,10.21-36.61,21.02-4,4.39,2.52,10.95,6.54,6.54,6.95-7.63,15.45-21.23,27.62-18.64,5.8,1.23,8.28-7.68,2.46-8.91Z"/><path class="cls-1" d="M295.74,132.72c-13.39-3.6-26.58,3.79-30.54,17.05-1.7,5.71,7.22,8.15,8.91,2.46,.75-2.53,2.03-4.69,3.66-6.43,.02,.12,.05,.24,.07,.35,.18-.29,.38-.54,.61-.73,.07-.06,.14-.11,.21-.16,.71-.79,1.5-1.38,2.44-1.86-.16,2.43,1.32,4.98,4.45,4.98,4.2,0,5.44-4.61,3.7-7.32,1.32,.03,2.67,.21,4.03,.57,5.75,1.55,8.21-7.37,2.46-8.91Z"/><path class="cls-1" d="M271.94,202.22c-6.89,.91-14.31,1.77-16.03-6.64-1.47-7.18-1.7-14.75-1.72-22.05-.02-5.95-9.26-5.96-9.25,0,.01,5.28,.26,10.54,.83,15.79,.51,4.73,.83,9.86,3.05,14.15,4.51,8.72,14.54,9.14,23.12,8,5.81-.77,5.89-10.03,0-9.25Z"/><path class="cls-1" d="M354.01,127.34c.73,.5,.45,.23,.42-.39-.04-1.04,.03-2.08-.01-3.12-.12-2.89-.81-5.22-2.67-7.47-1.59-1.93-4.89-1.65-6.54,0-1.91,1.91-1.59,4.6,0,6.54-.3-.37-.05,.58-.03,1.22,.03,1.22-.05,2.43,.05,3.65,.26,3.22,1.42,5.7,4.11,7.56,2.05,1.42,5.13,.38,6.32-1.66,1.34-2.3,.4-4.9-1.66-6.32Z"/><path class="cls-1" d="M615.79,443.22c-.6-2.66-1.33-5.31-2.05-7.92-6.46-23.33-12.92-46.66-19.38-69.99-10.34-37.33-22.76-77.7-54.59-99.76-43.14-29.9-109.35-16.75-145.12-55.16-32.75-35.17-20.4-92-36.65-137.23-11.56-32.18-39.84-56.5-71.99-66.87C269.22,.88,252.63,.17,235.23,1.86c-17.64,1.71-23.86,5.24-34.62,20.02-17.64,24.25-32.32,50.66-43.56,78.47-2.48,6.13-4.81,12.91-2.82,19.21,2,6.3,10.43,10.71,15.48,6.45,.32,18.53,25.24,25.33,35.08,41.03,4.33,6.91,5.48,15.26,7.58,23.14,8.81,33.02,37.09,60.05,70.48,67.34,1.72,7.07-6.59,12.11-13.43,14.61-16.84,6.15-33.68,12.3-50.53,18.46-16.38,5.98-33.31,12.3-45.74,24.54-18.35,18.06-23.41,45.23-28.55,70.46-7.76,38.11-17.72,75.77-29.81,112.74-6.08,18.57-12.75,37.22-14.24,56.7-1.49,19.48,2.9,40.35,16.36,54.51,13.46,14.16,37.26,19.2,53.15,7.83-15.12,11.35-3.52,36.78-12.09,53.63-3.05,5.99-8.48,10.42-12.06,16.11-14.5,23.03,5.18,57.66-11.76,78.96-2.55,3.2-6.01,7.27-3.88,10.76,1.49,2.44,4.84,2.76,7.69,2.81,25.39,.45,50.79,.9,76.18,1.35,99.31,1.77,198.68,3.53,297.95,.14,3.37-.12,6.96-.3,9.72-2.24,2.59-1.81,4-4.85,5.1-7.81,17.03-45.74-13.17-97.81-.5-144.94,28.4-3.56,62.3-11.38,71.45-38.49,2.76-8.18,2.68-17.01,2.58-25.65-.35-28.22-.7-56.43-1.05-84.65,8.65,.11,15.63-8.01,17.29-16.5,1.14-5.83,.4-11.77-.92-17.61ZM193,146.06c-4.43-3.87-7.2-9.26-7.62-15.26-.23-3.29-4.02-5.55-6.72-4.27-.68-2.96-.86-6-.63-9.14,.32-4.42-6.76-6.52-8.61-2.33-2.28,5.16-8.53,3.43-7.35-2.39,1.11-5.47,4.55-11.2,6.87-16.25,4.51-9.86,9.33-19.57,14.44-29.13,5.25-9.81,10.82-19.44,16.69-28.89,4.99-8.03,9.91-17.7,17.25-23.89,7.82-6.58,19.39-4.47,28.84-4.09,10.64,.43,21.33,1.1,31.81,3.07,19.17,3.61,36.38,11.86,49.75,26.24,12.21,13.13,20.37,29.97,23.41,47.64-7.5-1.35-14.84,3.01-18.06,10.32-2.55,5.8-2.26,11.83-1.68,17.89-2.3-2.97-4.59-5.93-6.89-8.9-4.59-5.93-8.88-12.55-14.27-17.79-7.42-7.21-17.23-9.32-27.16-9.84l.85-1c3.36-3.95-.8-9.78-5.6-7.26-3.23,1.7-6.69,2.59-10.23,2.62l1.33-8.39c.54-3.43-3.18-7.94-6.79-5.22-15.55,11.7-29.2,25.5-40.52,41.35-10.32,14.45-17.08,31.75-29.12,44.91Zm84.81,99.93c-6.98-2.82-13.69-6.32-20.36-9.8-6.79-3.54-13.45-7.28-18.4-13.26-4.59-5.54-7.72-12.27-10.94-18.65-3.4-6.73-6.7-13.54-8.67-20.85-.86-3.21-1.44-6.49-2.11-9.73,1.54,.71,3.44,.67,5.06-.76,1.36-1.2,2.85-2.17,4.43-2.91,0,.03,0,.05,0,.08,1.02-.62,2.09-1.01,3.21-1.29-.48,2.59,.97,5.6,4.37,5.6s4.88-3.06,4.36-5.66c.21,.05,.43,.08,.64,.13,5.77,1.45,8.23-7.46,2.46-8.91-9.38-2.36-18.78,.04-26,6.42-.1,.09-.2,.19-.29,.28-.38-1.19-.82-2.38-1.33-3.54-.8-1.82-1.79-3.5-2.94-5.06,6.19,.21,12.32-.64,18.25-2.51,5.65-1.78,3.24-10.71-2.46-8.91-6.03,1.9-12.03,2.55-18.34,2.03-2.16-.18-3.52,.94-4.11,2.45-.7-.74-1.33-1.52-1.81-2.4,9.65-11.96,15.97-26.32,24.57-39.05,8.74-12.95,19.29-24.71,31.16-34.89l-.24,1.51c-.36,2.29,.56,5.21,3.23,5.69,2.48,.45,4.9,.63,7.28,.56-.54,2.7,1.08,5.67,4.36,5.62,12.64-.19,24.92,.18,33.56,10.63,9.23,11.17,17.81,22.95,26.68,34.41,2.72,3.51,7.59,.22,7.89-3.27,.39-4.43-.2-8.77-.67-13.12,1.64-.57,3-1.95,3.15-4.15,.25-3.8,.83-14.4,7.07-13.67,4.76,.56,6.27,10.11,7.11,13.53,1.56,6.32,2.53,12.76,2.85,19.26,.16,3.17,.18,6.34,.06,9.5-.05,1.4,.45,7.02-2.09,5.42-5.05-3.18-9.69,4.81-4.67,7.98,1.84,1.16,3.93,1.71,6,1.64,4.11,17.05,9.76,34.6,18.74,49.71,8.57,14.41,21.18,22.77,35.71,30-34.24,29.03-81.39,41.39-125.47,33.01,1.28-2.95,2.17-5.98,2.66-9.12,9.1,1.78,18.42,1.59,26.24-3.14,7.67-4.64,14.37-11.54,20.9-17.62,7.14-6.64,14.03-13.55,20.7-20.67,1.14-.72,2.01-1.91,2.19-3.57,1.27-11.37,.54-22.71-1.99-33.86-1.32-5.8-10.23-3.35-8.91,2.46,2.15,9.49,2.73,19.06,1.9,28.71-10.47,11.16-21.52,21.79-33.16,31.73-6.26,5.35-11.9,8.06-20.3,7.48-7.42-.51-14.7-2.73-21.57-5.5Zm-133.4,183.5c2.58-16.55,5.8-32.75,10.14-48.86-2.25,14.08,9.14,26.62,9.21,40.65,.05,8.86-3.96,15.99-6.23,24.29-.26,.96-.49,1.92-.69,2.88-.62,1.03-.77,2.21-.57,3.32-.93,6.67-.64,13.5-.22,20.22-8.28,1-16.51,2.26-24.69,3.85,5.86-15.03,10.54-30.3,13.05-46.35Zm24.22-28.04c-2.37-5.93-7.34-14.81-4.47-21.23,3.48-7.76,14.69,4.71,16.71,8.57,3.69,7.05,4.2,15.36,7.57,22.59,1.51,3.23,3.69,6.4,6.09,9.58-.62,.44-1.23,.87-1.82,1.29-7.77,5.53-15.52,11.1-23.26,16.67,1.62-4.62,3.1-9.21,3.46-14.38,.56-8.04-1.31-15.68-4.27-23.1Zm-4.2,205.63c-5.1,5.24-11.6,10.32-18.88,9.61-4.91-.48-9.14-3.53-13.1-6.47-5.37-3.99-10.94-8.21-13.9-14.21-2.87-5.82-2.93-12.58-4.53-18.87-2.03-7.96-6.59-15.4-6.63-23.62-.04-6.62,2.87-12.84,5.46-18.93,6.07-14.27,10.66-29.18,13.68-44.39,.27-1.38,.59-2.86,1.66-3.78,.78-.67,1.83-.91,2.84-1.13,9.27-1.96,18.65-3.39,28.08-4.27,1.83-.17,3.86-.42,5.04-1.82,1.08-1.29,1.1-3.13,1.06-4.81-.12-5.2-.24-10.41-.36-15.61-.04-1.55-.06-3.17,.64-4.56,.67-1.33,1.92-2.27,3.12-3.15,1.45-1.94,4.81-3.53,6.78-4.97,2.46-1.8,4.91-3.6,7.37-5.41,4.91-3.6,9.82-7.21,14.73-10.81,.83-.61,1.67-1.23,2.5-1.84,4.08-2.99,8.15-5.98,12.23-8.97,1.85-1.36,3.73-3.65,6.15-2.32,1.75,.96,2.76,3.27,2.48,5.21-.43,2.93-2.7,5.21-4.84,7.25-10.34,9.85-20.69,19.69-31.03,29.54-.85,.8-1.72,1.65-2.14,2.74-1.06,2.74,1.34,5.82,4.17,6.62,2.82,.81,5.83,.02,8.67-.71,19.97-5.15,40.57-7.85,61.19-8.03,3.01-.03,7.15,1.27,6.59,4.23-.33,1.74-2.24,2.62-3.91,3.22-21.7,7.8-43.96,14.06-66.55,18.69-2.34,.48-5.1,1.3-5.79,3.59-.58,1.92,.75,4,2.51,4.95,1.76,.95,3.85,1.04,5.86,1.07,13.58,.25,27.19-.78,40.57-3.08,6.78-1.17,13.57-2.66,20.44-2.54,.91,.02,1.91,.1,2.57,.72,.99,.93,.72,2.66-.2,3.65s-2.28,1.43-3.57,1.84c-20.9,6.5-41.81,13.01-62.71,19.51-2.56,.8-5.52,2.02-6.06,4.64-.42,2.05,.97,4.14,2.8,5.16,1.83,1.03,3.99,1.22,6.08,1.35,13.44,.79,27-.58,40.01-4.03,5.24-1.39,10.62-3.14,15.98-2.3-10.6,10.82-26.52,14.39-41.62,15.61-15.1,1.22-30.58,.64-45.01,5.24-2.92,.93-6.01,2.27-7.44,4.98-1.43,2.71,.08,6.96,3.14,7,1.12,.01,2.16-.51,3.17-.99,9.95-4.79,21.19-6.88,32.2-6-4.13,22.91-15.24,44.52-31.48,61.21Zm44.8-153.84c-.04,.2-.05,.4-.07,.59-2.89,.32-5.77,1.12-8.6,2.11,2.94-3.11,5.88-6.23,8.82-9.34,.3,2.15,.29,4.35-.15,6.64Zm381.67,108.16c-.04,4.73-.09,9.47-.16,14.2-.06,4.05-.15,8.19-1.56,11.98-2.51,6.74-8.76,11.29-14.95,14.95-11.12,6.56-23.32,11.61-36.15,13.07-12.43,1.41-25.5-.78-36.05-7.47,7.31-3.91,15.14-7.85,20.87-13.49,7.15-7.04,7.64-16.95,7.31-26.4-.05-1.47-.66-2.58-1.54-3.32,3.63-5,3.61-12.89,2.72-18.52-1.56-9.88-7.38-18.03-15.34-23.02,2.06-2.27,1.79-5.79,1.36-8.84-2.22-15.63-4.96-31.18-8.19-46.64,26.68-2.16,53.37-4.31,80.05-6.47,1.34,33.3,1.88,66.64,1.62,99.97Zm-132.31,3.98c-1.93-.92-4.17-.8-6.3-.69-27.42,1.41-55.06-1.81-81.42-9.49-3.65-1.06-8.18-4.32-6.21-7.57,1.14-1.87,3.73-2.04,5.92-2,23.5,.43,47,.87,70.51,1.3,3.95,.07,9.46-1.54,8.73-5.42-.53-2.82-4.08-3.7-6.94-3.98-24.21-2.35-48.42-4.69-72.64-7.04-4.35-.42-10.13-2.6-9.3-6.89,.76-3.94,6.2-4.31,10.17-3.78,20.85,2.78,41.92,3.96,62.96,3.52,4.21-.09,9.99-2.12,9.01-6.22-.54-2.23-2.96-3.37-5.1-4.21-15.44-6-30.89-12-46.33-18.01-3.36-1.31-6.86-2.71-9.22-5.44s-3.11-7.21-.65-9.85c3.2-3.44,8.88-1.62,13.12,.43,18.87,9.13,37.74,18.26,56.61,27.39,2.82,1.36,6.87,2.42,8.52-.24,1.85-2.97-1.76-6.3-4.85-7.95-6.36-3.4-12.73-6.79-19.09-10.19,0-11.17,0-22.35-.01-33.52,0-6,.29-13.02,3.86-18.12,4.6-6.55,11.1-5.09,13.55,2.56,1.24,3.86,.95,8.01,.97,12.06,.08,14.39,4.36,28.73,12.18,40.8,6.02,9.3,14.31,17.78,16.15,28.71,.27,1.6,.48,3.35,1.39,4.62,.22,.4,.52,.79,.9,1.16,4.81,4.61,7.19,10.64,9.33,16.82,1.93,5.58,4.17,11.21,5.84,16.91-.22,1.18,.02,2.41,.9,3.38,1.42,6.42-1.87,12.75-5.09,18.22-3.55,6.02-9.2,9-15.44,11.65-.5,.21-.92,.48-1.26,.78-.81-.15-1.62-.28-2.43-.39-5.3-.75-10.65-1.09-16-1.04-23.63,.24-47.94,8.21-70.36,.76-1.94-.64-3.94-1.47-5.18-3.09s-1.38-4.25,.22-5.52c1.39-1.1,3.39-.77,5.13-.44,23.05,4.42,47.7-.07,67.71-12.32,1.02-.63,2.09-1.33,2.58-2.43,.87-1.95-.55-4.31-2.48-5.23Zm38.51-37.75c.94-.07,1.87-.16,2.8-.25,9.41,.89,17.85,6.7,21.18,15.83,1.58,4.34,2.18,9.47,.96,13.98-1.38,5.1-8.26,3.19-12.7,1.28-1.67-5.96-4.28-11.89-6.23-17.47-1.63-4.66-3.45-9.24-6.01-13.37Zm6.23,60.92c3.6-5.59,7.28-12.93,7.56-19.85,3.37,.91,6.91,1.36,10.13,.81,.23,7.82-.08,15.44-6.95,20.54-6.23,4.62-13.45,8.2-20.24,12.03-1.05-.8-2.1-1.59-3.18-2.32,5.04-2.71,9.45-6.18,12.69-11.2Zm4.33-129.8c-2.75-16.1-5.18-32.25-7.28-48.44-.75-5.82-10.01-5.89-9.25,0,2.83,21.82,6.18,43.58,10.13,65.22,1.94,10.59,4.42,21.14,5.94,31.8,.43,3.03,.18,6.49,.84,9.46,0,.12,0,.23,0,.35-.96,.16-2.04,.35-2.25,.38-1.93,.25-3.86,.44-5.79,.59-.84-.06-1.68-.11-2.53-.11-.75,0-1.4,.14-1.96,.39-1.32,.06-2.64,.1-3.96,.13-2.06-9-7.19-16.6-12.7-24.16-3.33-4.57-6.7-9.14-9.28-14.19-3.17-6.2-4.45-13.15-5.16-20.01-1.1-10.56,.47-26.25-8.87-33.68-9.77-7.76-21.93,.43-25.73,10.32-2.61,6.8-2.93,14.67-3.22,21.88-.36,8.79,.11,17.56,1.25,26.28,.02,.15,.05,.29,.08,.44-4.83-2.31-9.7-4.56-14.6-6.73-7.62-3.37-15.46-7.25-23.42-9.75-6.17-1.93-12.15-.48-15.65,5.26-3.04,4.97-4,12.21-1.72,17.65,2.86,6.84,10.77,9.11,17.02,11.81,8.38,3.62,16.83,7.07,25.33,10.36-10.59-.22-21.17-.84-31.72-1.9-10.39-1.05-33.51-5.38-31.7,12.52,.73,7.19,5.33,11.11,11.3,13.34-.12,.04-.24,.08-.36,.13-6.52,2.54-9.28,9.35-6.71,15.81,2.93,7.34,10.63,9.81,17.64,11.65,9.11,2.39,18.35,4.28,27.67,5.68,10.56,1.59,21.18,2.56,31.83,2.93-7.08,2.24-14.34,3.78-21.76,4.04-7.4,.26-14.03-1.83-21.28-2.58-5.84-.6-11.77,1.59-13.91,7.45-4.86,13.27,10.19,20.49,20.59,22.54,13.85,2.73,27.84,.67,41.67-1.03,7.98-.98,16.02-1.85,24.07-1.52,6.71,.27,13.09,1.99,19.59,3.31,8,5.37,16.42,10.06,25.27,13.92,3.19,1.39,6.33,2.62,9.49,3.59-.52,13.26-1.04,26.52-1.55,39.79-.51,12.94-1.68,26.23,3.38,38.48,2.34,5.66,5.23,11.01,6.12,17.16,.88,6.09,.16,12.41-.92,18.42-1.98,11.02-5.1,21.84-5.67,33.04-48.92,3.5-98,3.68-147.02,3.11-50.38-.58-100.76-1.48-151.14-2.25-25.37-.38-50.73-.77-76.1-1.15,3.92-8.91,6.38-18.38,7.28-28.15,1.17-12.74-2.07-25.25-1.39-37.96,.33-6.23,2.22-11.9,6.57-16.48,4.02-4.24,8.87-7.79,11.61-13.1,6.18-11.94-.43-25.26,2.6-37.73,3.28-13.49,11.71-24.86,13.64-38.8,10.64-15.14,17.25-32.87,21.3-50.84,.14-.62,.16-1.19,.09-1.73,.6-.02,1.19-.05,1.78-.08,15.45-.82,31.66-5.06,44.73-13.6,5.29-3.46,9.78-8.9,7.61-15.61-2.41-7.49-10.21-6.72-16.33-5.08-6.93,1.85-13.96,3.38-21.06,4.44,5.7-1.79,11.39-3.58,17.09-5.38,6.91-2.18,14.32-3.84,20.93-6.86,5.03-2.3,9.24-6.59,9.28-12.44,.08-11.74-13.3-11.5-23.24-10.1,3.61-1.13,7.22-2.28,10.83-3.43,4.85-1.55,10.16-3.11,13.51-7.21,3.25-3.97,3.36-9.33,.57-13.58-3.47-5.29-9.85-6.76-15.79-6.71-12.19,.12-24.56,1.57-36.74,3.13,.53-5.09-.3-9.76-1.96-14.16,.86-.91,1.71-1.82,2.57-2.73,3.91-4.14,9.91-8.71,11.07-14.59,.93-4.73-1.7-9.33-6.41-10.55-7.26-1.88-14.9,1.02-21.66,4.93-4.29-6.11-6.95-12.27-8.88-19.58-1.2-4.56-2.62-8.95-4.84-12.96,.11-.41,.18-.85,.18-1.34v-16.65c0-5.95-9.25-5.96-9.25,0v7.68c-3.43-2.49-7.42-4.28-11.52-4.45-5.54-.23-10.04,2.95-12.12,7.77,.36-1.26,.7-2.53,1.07-3.79,2.69-9.15,5.59-18.24,8.51-27.32,2.7-8.4,5.39-16.19,11.87-22.46,12.03-11.64,29.86-17.65,45.15-23.55,19.78-7.64,39.81-14.56,59.5-22.43,50.05,11.36,104.11-2.69,142.31-36.96,21.77,5.24,43.46,10.83,65.04,16.82,11.1,3.08,22.59,5.75,33.24,10.21,8.95,3.75,16.96,9.35,23.87,16.14,14.93,14.69,24.17,33.87,30.72,53.52,7.18,21.52,12.24,43.79,17.96,65.73,3.39,12.99,6.78,25.98,10.16,38.97,.66,2.54,1.97,5.89,2.86,9.26-33.44,2.7-66.87,5.4-100.31,8.1Z"/></svg>