<?xml version="1.0" encoding="UTF-8"?><svg id="Layer_1" xmlns="http://www.w3.org/2000/svg" viewBox="0 0 697.04 784.72"><defs><style>.cls-1{fill:#d926a9;}</style></defs><path class="cls-1" d="M329.41,150.09c-10.36-6.56-23.44-6.67-33.97-.44-5.54,3.27-.51,11.92,5.05,8.63,2.55-1.51,5.25-2.47,7.99-2.92-.19,2.63,1.41,5.42,4.81,5.42,3.16,0,4.77-2.41,4.82-4.86,2.15,.61,4.26,1.54,6.25,2.81,5.45,3.45,10.48-5.2,5.05-8.63Z"/><path class="cls-1" d="M427.47,146.8c-11.11-6.46-23.4-3.81-35.04-.38-6.16,1.82-3.54,11.47,2.66,9.64,3.34-.99,6.82-2.03,10.32-2.68-.1,2.57,1.5,5.23,4.82,5.23,3.5,0,5.1-2.96,4.79-5.66,2.53,.33,5.02,1.09,7.4,2.48,5.57,3.24,10.61-5.4,5.05-8.63Z"/><path class="cls-1" d="M354.03,198.53c-5.47-4.63-2.08-12.22,.08-17.72,2.36-5.99-7.31-8.59-9.64-2.66-3.54,8.98-5.96,20.31,2.49,27.45,4.89,4.13,11.99-2.91,7.07-7.07Z"/><path class="cls-1" d="M385.98,184.21c-2.83-6.6-10.51-13.7-9.41-21.37,.91-6.29-8.73-9.01-9.64-2.66-.99,6.85,.88,12.67,4.39,18.57,3.18,5.34,9.3,12.29,5.51,18.76-3.26,5.56,5.38,10.6,8.63,5.05,3.38-5.76,3.1-12.3,.52-18.34Z"/><path class="cls-1" d="M403.56,226.77c.86-3.18-1.76-7.49-6.09-6.61-24.87,5.05-50.22,6.65-75.54,4.95-6.42-.43-6.4,9.57,0,10,3.32,.22,6.65,.37,9.97,.48,.57,1.29,1.66,2.32,3.27,2.65,.24,.26,.51,.51,.83,.74,5.29,3.85,10.72,7.63,17.07,9.51,6.18,1.83,13.16,1.83,19.55,1.52,13.05-.65,21.8-8.25,30.19-17.55,1.64-1.82,1.63-3.97,.75-5.68Zm-32.61,13.28c-5.04,.11-10.36,.24-15.23-1.21-2.45-.73-4.74-1.87-6.93-3.18,13.66-.35,27.28-1.66,40.78-3.91-5.13,4.73-10.78,8.13-18.62,8.3Z"/><path class="cls-1" d="M613.14,773.69c-.22-.69-.47-1.37-.74-2-13.05-31.39-20.44-65.11-21.7-99.08-1.84-49.35,9.11-98.42,8.72-147.81s-15.12-102.89-55.5-131.33c-13.45-9.47-28.99-15.61-42.61-24.84-27.42-18.59-46.33-49.22-76.68-62.5-3.57-26.63,4.75-54.63,22.28-74.99,4.79-5.56,10.26-10.62,14.09-16.89,9.67-15.82,7.18-35.91,4.37-54.23-7.73-50.37-18.24-105.7-58.28-137.21C385.32,5.68,356.31-1.71,328.94,2.26c-6.2,.9-13.24,1.95-18.68,4.97-5.9,3.28-11.4,8.35-16.51,12.71-10.65,9.08-20.41,19.24-28.85,30.41-19.65,26.04-32.12,58.6-26.73,91.53,1.06,6.47,2.77,12.94,2.23,19.47-.47,5.71-2.65,11.13-3.79,16.74-5.11,25.06,14.28,52.37,39.63,55.81,6.91,18.61,10.27,38.54,9.85,58.39-22.65,3.63-43.64,16.66-56.96,35.34-9.28,13.02-15.28,28.94-28.08,38.53-7.07,5.3-15.62,8.16-23.83,11.44-19.33,7.73-37.75,18.4-52.29,33.3-25.33,25.97-36.73,62.25-44.94,97.58-19.93,85.81-25.92,174.84-17.66,262.54,.25,2.65,.62,5.53,2.52,7.4,2.11,2.06,5.38,2.2,8.33,2.21,177.98,.65,355.96,1.31,533.93,1.96,1.73,0,3.6-.03,4.98-1.08,2.28-1.73,1.97-4.93,1.05-7.83Zm-48.36-345.45c15.06,23.45,20.68,51.52,22.91,78.92,2.4,29.49,2.86,59.71-1.63,89.02-2.24,14.65-5.01,29.21-6.1,44.01-1.07,14.62-.82,29.32,.56,43.91,2.89,30.46,10.52,60.21,21.5,88.72-20.73-.24-41.45-.41-62.18-.54,1.43-10.08,2.52-20.2,3.17-30.36,.68-10.65,1.62-21.79-.41-32.36-.84-4.35-2.4-8.64-4.84-12.35-.03-.18-.07-.36-.12-.55-3.94-14.55-2.56-29.58-1.14-44.39,.08-.8-.01-1.5-.23-2.1,3-21.63-6.55-42.23-14.49-61.92-8.23-20.41-11.21-41.24-13.93-62.93-2.68-21.37-6.13-43.14-17.64-61.65,.37-1.29,.31-2.71-.47-3.79-3.58-4.92-5.34-10.48-6.79-16.19,.28-.03,.57-.07,.86-.15,13.72-3.52,27.76-.32,38.93,8.3,2.38,1.83,6.92-.02,7.34-2.99,2.27-15.78,1.21-31.81-3.9-46.97-1.16-3.45-2.48-7.01-4.05-10.44,17.67,7.14,32.28,20.64,42.65,36.79Zm-109.34-87.7c11.29,9.61,20.85,20.6,31.27,31.07,4.99,5.01,10.45,8.31,16.52,11.8,.86,.5,1.66,1.06,2.4,1.67,.4,.86,1.09,1.6,2.13,2.04,3.57,3.94,5.72,9.22,7.61,14.18,4.55,11.97,6.55,24.83,5.8,37.59-12.09-6.69-26.49-8.46-40.02-4.99-.22,.06-.43,.13-.63,.21-2.08-7.24-5.19-13.81-9.27-20.22-5.18-8.12-10.18-15.81-13.19-25.05-2.83-8.69-4.58-17.69-7.42-26.37-2.41-7.35-5.56-14.57-10.21-20.79-2.35-3.14-4.98-5.95-8.07-8.38-2.38-1.87-6.89-3.48-8.32-6.17-1.23-2.31-.86-6.25-.48-9.66,11.18,6.88,21.87,14.54,31.87,23.06Zm.16-172.08c3.63,9.7,5.49,20.49,3.46,30.26-1.36,6.57-5.47,11.59-10.49,15.76,3.03-10.88,5.21-22,6.47-33.27,.49-4.39,.69-8.61,.55-12.75Zm-208.58-44.98c1.64-14.15,3.46-28.61,9.21-41.79,10.02-23,29.44-42.3,48.26-58.38,4.93-4.21,10.35-7.87,16.66-9.59,6.83-1.86,14.02-1.67,21.04-1.57,14.07,.2,28.74,.37,41.82,6.23,23.42,10.49,39.66,34.84,50.25,57.29,10.1,21.42,15.4,44.84,15.83,68.44-.05-.12-.1-.24-.15-.36-4.95-10.94-10.16-21.01-13.13-32.74-5.07-20.02-8.09-42.8-25.51-56.35-23.34-18.16-54.26-9.74-80.11-3.17-20.51,5.21-50.04,5.93-59,29.04-.56,1.44-.42,2.68,.13,3.66-.03,.08-.07,.16-.1,.24-8.35,22.77-12.81,47.37-12.89,71.93-5.88-.1-10.44-5.96-12.07-11.12-2.19-6.95-1.05-14.67-.23-21.75Zm131.32,11.64c-.58,.45-1.16,.91-1.72,1.4-1.19,1.06-1.65,2.29-1.59,3.48-8.75-2.27-17.61-1.83-26.31,1.31-1.14-1.88-2.7-3.55-4.74-4.9,3.46-1.7,4.06-7.97-.77-9.46-18.62-5.74-38.42-5.94-57.16-.62-5.26,1.49-4.14,8.69,.13,9.73-.35,.98-.33,2.11,0,3.17-3.36,3.27-6.07,6.95-7.7,10.88-3.02-.2-6.03-.41-9.05-.61,.88-21.43,5.2-42.74,12.42-62.43,.52-1.42,.38-2.64-.15-3.62,.04-.09,.09-.18,.12-.28,3.16-8.15,11.55-12.06,19.38-14.5,9.46-2.94,19.35-4.28,28.97-6.63,21.74-5.32,46.84-14.29,68.46-3.59,18.43,9.11,22.56,29.85,26.81,48.09,.94,4.03,1.94,8.03,3.08,11.98-.52-.22-1.11-.37-1.77-.41-17.23-1.05-35.25-1.49-50.58,7.66-4.53,2.7-1.97,8.99,2.16,9.35Zm-46.1,37.13c-9.95,9.74-22.92,7.65-33.85,.69-4.9-3.12-10.77-7.79-11.75-13.91-1.03-6.42,4.79-11.38,9.18-15.04,.63-.52,1.06-1.09,1.33-1.68,5.99-.8,12.01-1.16,18.07-1.04,6.81,.13,14.96,.17,21.42,2.61,11.57,4.38,.99,23.1-4.39,28.37Zm98.68-46.25c.7,1.99,1.46,3.96,2.28,5.91-2.01-.62-4.04-1.12-5.92-1.59-5.44-1.36-11.53-2.43-17.7-2.79,5.75-.1,11.53,.24,17.18,.58,2.03,.12,3.41-.79,4.16-2.11Zm-11.7,12.8c4.31,.78,16.13,2.1,16.91,7.05,.88,5.53-1.41,13.19-2.82,18.54-1.62,6.17-5.71,7.32-11.56,7.97-6.44,.72-13.32,1.35-19.68-.26-5.39-1.37-10.09-4.28-12.59-9.39-2.85-5.83-4.61-13.71-4.42-20.19,9.06-6.69,23.83-5.57,34.15-3.72Zm-161.18,74.45c-3.95-5.54-8.12-11.01-11.79-16.74-3.99-6.24-1.48-11.6,.78-18.03l4.9-13.93c2.3,.96,4.83,1.52,7.59,1.58,.88,19.53,4.6,38.87,11.41,57.09-5.71,.18-9.8-5.61-12.9-9.97Zm11.23-53.76c2.54,.17,5.08,.34,7.62,.51,.35,3.52,1.69,7.11,4.31,10.68,7.96,10.86,23.43,19.36,37.07,18.42,12.62-.87,23.47-9.58,28.98-20.7,2.48-5,4.32-11.47,4.1-17.52,7.63-3.17,16.4-3.33,24.14-.45,.88,6.65,3.02,13.56,6.17,18.81,4.01,6.67,10.99,10.95,18.47,12.67,8.67,2,18.37,1.33,27.07-.28,7.59-1.4,13-5.6,15.33-13.07,.99-3.18,1.63-6.51,2.15-9.82,.6,2.43,1.01,4.92,1.13,7.52,.56,11.8-1.69,24.03-4.27,35.5-1.64,7.29-3.7,14.5-6.12,21.57-2.28,1.4-2.72,3.73-2.06,5.71-.67,1.77-1.35,3.53-2.06,5.28-4.35,10.66-9.73,20.94-15.86,30.68-5.4,8.58-12.3,21.97-22.79,24.82-5.37,1.46-11.38,1.26-16.9,1.28-6.6,.02-13.25-.31-19.78-1.34-10.61-1.68-20.74-5.16-29.97-10.68-16.47-9.86-28.99-25.14-37.94-41.93-12.66-23.73-18.54-50.61-18.8-77.66Zm26.72,162.28c4.23-6.1,2.54-13.97,1.73-20.88-1.46-12.48-3.7-24.89-4.2-37.41,6.25,7.67,13.41,14.58,21.5,20.34,20.19,14.35,44.69,18.28,69.02,17.07,5.85-.29,11.84-.88,17.09-3.7,5.07-2.73,8.77-7.23,12.21-11.72,.65-.85,1.28-1.71,1.92-2.57-.56,10.87-1.03,21.74-1.41,32.62-.22,6.31-1.54,13.74,3.06,18.86,3.96,4.42,9.8,6.48,13.79,11.06,9.24,10.59,11.88,25.19,15.45,38.33,1.91,7.03,4.14,14,7.45,20.51,3.26,6.4,7.62,12.15,11.28,18.32,7.15,12.05,7.2,26.88,14.03,38.9-.09,.23-.16,.46-.21,.71-17.06,17.79-34.77,34.99-53.66,50.83-9.99,8.37-20.4,15.75-33.72,17.14-12.29,1.29-26.66,1.36-38.49-2.52-12.34-4.05-24.2-11.06-35.67-17.08-11.77-6.18-23.37-12.67-34.8-19.47-3.52-2.09-14.71-6.75-14.93-11.19-.13-2.61,1.71-5.76,2.29-8.3,.74-3.2,1.17-6.49,1.38-9.77,.76-12.12-1.96-24.15-3.63-36.09-.96-6.85-1.54-13.78-.99-20.68,.61-7.63,2.6-15.1,4.33-22.53,3.44-14.85,6.88-29.69,10.32-44.54,5.1-5.16,10.78-10.34,14.86-16.22Zm-92,79.64c.57-10.18,4.27-19.31,8.95-28.08,.67-.67,1.09-1.5,1.29-2.37,2.5-4.5,5.2-8.93,7.82-13.35,7.62-12.91,15.29-27.67,26.67-37.71,7.3-6.44,16.77-10.39,26.38-13.68-6.03,21.06-9.94,42.63-11.8,64.47l-1.69,7.31c-3.18,13.72-6.21,27.01-4.91,41.18,.36,3.88,.91,7.76,1.52,11.62-11.67,2.23-23.29,4.68-34.84,7.45-6.69,1.61-13.3,3.51-19.21,6.78-.55-14.52-.99-29.17-.18-43.62Zm-56.12,369.4c-3.34-37.02-5.07-73.53,.45-110.52,2.8-18.78,6.41-37.42,8.88-56.25,2.35-17.9,3.68-35.92,5.73-53.86,2.34-20.42,5.85-40.72,12.77-60.13,2.16-6.07-7.49-8.69-9.64-2.66-12.32,34.55-13.59,71.46-17.74,107.55-4.39,38.19-13.82,75.61-13.99,114.24-.09,20.58,1.62,41.11,3.53,61.59-21.44-.08-42.89-.16-64.33-.24-9.17-61.3-5.47-123.82,2.89-185,4.22-30.89,8.56-62.25,16.75-92.38,7.15-26.31,18.26-52.3,36.91-72.59,18.68-20.32,43.66-32.23,69.15-41.76-2.49,6.03-4.32,12.29-4.96,18.91-1.81,18.67-.44,38.1,.27,56.81,.16,4.33,5.35,6.6,8.54,3.54,7.19-6.92,17.36-8.86,26.76-11.05,9.93-2.32,19.92-4.41,29.93-6.34,.91,6.18,1.61,12.37,1.46,18.62-.15,6.6-2.5,12.18-3.65,18.52-.25,1.36-.28,2.64-.14,3.85-3.18,9.64-5.2,19.58-5.98,29.7-.79,10.23,.9,20.5-.03,30.69-.9,9.8-5.98,18.25-10.68,26.65-4.48,8-8.29,16.23-10.63,25.12-4.89,18.58-4.54,38.01-4.68,57.06-.07,9.6-.23,19.22-1.27,28.77-1.12,10.34-3.86,20.23-6.79,30.18-3.31,11.22-5.83,22.41-6.72,34.1-.69,9.02-.6,18.06-.33,27.1l-23.01-.08-39.43-.14Zm250.52,.92c-59.35-.22-118.69-.43-178.04-.65-.42-18,.14-35.66,5.11-53.25,2.81-9.94,6.02-19.74,7.62-29.97,1.42-9.05,2-18.19,2.21-27.33,.46-19.39-.79-39.14,3.12-58.26,1.91-9.34,5.18-18,9.76-26.35,4.27-7.78,9.02-15.43,11.51-24.01,3.15-10.83,1.32-21.96,1.44-33.03,.1-9.09,1.38-18.04,3.65-26.78,11.81,8.07,24.74,14.91,37.29,21.75,12.69,6.91,25.57,13.63,38.72,19.64,12.73,5.82,25.44,7.13,39.31,7.15,13.96,.02,26.79-2.38,38.59-10.18,12.94-8.56,24.51-19.64,35.83-30.18,9.9-9.22,19.48-18.77,28.88-28.5,18.77,33.25,12.7,75.17,25.48,110.65,7.51,20.85,19.98,41.77,17.73,64.73-1.08,11.02-8.57,19.52-10.22,30.2-1.68,10.85,5.48,15.89,11.6,23.33,7.45,9.07,5.95,22.7,5.47,33.62-.56,12.7-1.77,25.35-3.61,37.92-43.81-.25-87.63-.33-131.44-.49Z"/></svg>