<?xml version="1.0" encoding="UTF-8"?><svg id="Layer_1" xmlns="http://www.w3.org/2000/svg" viewBox="0 0 697.04 784.72"><defs><style>.cls-1{fill:#d926a9;}</style></defs><path class="cls-1" d="M391.39,457.58c4.29-3.12,.14-10.34-4.2-7.18-4.75,3.45-9.25,8.04-11.44,13.61-2.63,6.7,5.34,9.3,10.49,10.25,5.23,.97,7.48-7.05,2.21-8.02-1.34-.25-2.67-.56-3.95-1.03,.18-.33,.32-.59,.35-.64,1.7-2.72,3.94-5.1,6.54-6.99Z"/><path class="cls-1" d="M684.71,651.38c-5.91-3.7-12.79-6.18-19.12-9.08-6.97-3.2-13.94-6.39-20.92-9.59-12.21-5.6-27.2-9.96-34.79-21.8-3.4-5.29-6.84-9.76-12.08-13.36-5.57-3.81-11.71-6.91-17.59-10.21-24.51-13.75-49.82-26.97-77.18-34.04-14.16-3.66-28.71-4.97-43.1-7.42-12.47-2.13-25.19-5.28-35.76-12.45,4.51-5.62,8.94-11.3,13.18-17.13,11.87-16.33,22.07-33.98,27.62-53.51,.25-.87,.22-1.66,0-2.34,.37-1.46,.57-2.97,.55-4.51,0-.53-.12-1.06-.33-1.55,2.48-2.54,4.57-5.53,6.47-8.56,4.49-7.16,8.09-14.81,11.03-22.72,.35-.94,.35-1.77,.11-2.48,.51-1.51,.7-2.87,.65-4.12,.94,.09,1.88,.15,2.81,.2,5.35,.24,10.71,.03,16.05-.25,4.65-.25,7.9-1.38,10.39-5.5,6.33-10.47,3.78-21.94,1.87-33.25-2.12-12.52-4.24-25.05-6.35-37.57l-3.04-17.97c-.96-5.69-1.7-11.59-4.58-16.7-4.84-8.59-14.8-14.9-22.72-20.39-8.65-5.99-18.05-11.18-28.17-14.22-4.69-1.41-9.55-2.33-14.44-2.67-5.13-.36-11.36,1.47-15.86-1.44-3.85-2.49-7.15-5.62-11.21-7.86-4.17-2.31-8.67-4.12-13.27-5.35-9.27-2.47-19.13-2.7-28.5-.63-10.45,2.31-19.2,8.13-28.1,13.77-10.91,6.92-23.02,11.63-33.86,18.66-9.61,6.23-18.42,13.73-26.03,22.29-14.3,16.09-22.64,39.29-41.95,50.34-2.11,1.21-2.98,4.85-.84,6.53,13.13,10.32,27.07,19.42,41.84,27.18-6.96,5.08-5.82,15.84-4.74,23.31,1.41,9.74,4.24,20.22,8.31,29.21,3.18,7.02,8.97,9.09,15.5,9.09-.09,.4-.13,.83-.09,1.32,.03,.44,.06,.88,.09,1.32-.94,6.51-1.87,13.03-2.81,19.54-.13,.93,.01,1.76,.34,2.47-.19,.84-.15,1.74,.12,2.55-.19,.67-.18,1.44,.12,2.3-.79,3.18-1.77,6.3-2.97,9.36-1.94,4.95-4.7,9.6-10.02,11.31-5.09,1.64-10.91,.8-16.12,.36-26.03-2.19-51.85-6.73-78-7.5-12.98-.38-26,.24-38.81,2.46-12.76,2.22-24.92,6.51-37.11,10.78-25.27,8.84-50.62,17.48-75.72,26.79-6.6,2.45-13.17,4.95-19.72,7.54-5.45,2.16-11.64,3.87-14.25,9.65-2.59,5.73-2.23,13.46-2.44,19.63-.25,7.41,0,14.82,.64,22.2,.02,.24,.06,.47,.12,.7,1.03,13.38,1.47,26.8,1.3,40.22,0,.34,.03,.66,.08,.95-1.64,27.5-2.64,55.04-2.99,82.59-.03,1.95,1.33,3.38,3.05,4.01,11.6,4.25,23.89,5.29,36.03,7.02,5.92,.84,11.83,1.87,17.57,3.59,6.17,1.86,11.69,4.82,17.25,8.03,1.73,1,3.46,1.94,5.19,2.82,3.29,9.29,6.47,18.62,9.91,27.86,1.15,3.08,2.43,6.24,5.31,8.13,3.56,2.33,8.03,1.99,12.09,2,21.07,.06,42.14,.13,63.21,.19,42.14,.13,84.28,.25,126.42,.38,84,.25,168,.51,252.01,.76,47.41,.14,94.81,.29,142.22,.43,2.33,0,4.05-1.91,4.16-4.16,1.47-31.13,2.1-62.29,1.84-93.46-.11-12.65,2.46-28.3-9.9-36.05Zm-210-232.7c-.33,.91-.33,1.72-.11,2.42-2.32,6.23-5.16,12.23-8.54,17.95-2.88,4.86-6.09,10.64-11.52,13-5.34,2.32-13.11,1.89-18.22-.85-4.9-2.63-7.82-7.82-9.25-13.02-1.67-6.12-1.67-12.7-1.53-19.01,.07-3.34,2.21-5.63,4.99-7.19-2.92,2.4-.67,8.34,3.86,7.22,2.47-.61,4.93-.95,7.37-1.04-3.39,1.68-2.77,7.9,1.87,7.9s5.24-6.05,2.01-7.83c3.18,.24,6.34,.9,9.49,1.98,5.08,1.74,7.26-6.3,2.21-8.02-8.19-2.8-16.77-3.08-25.17-1.01-.06,.01-.11,.03-.16,.05,2.1-.93,4.4-1.52,6.42-1.89,6.84-1.23,13.97,.76,20.64,2.15,1.6,.33,5.75,.82,9.4,1.82,.8,.28,1.62,.54,2.43,.79,2.69,1.05,4.55,2.51,3.8,4.59Zm-40.79-142.27c4.85,.23,9.61,1.21,14.24,2.66,9.19,2.88,17.65,7.72,25.53,13.18,7.33,5.08,18.01,11.5,21.04,20.37,1.64,4.8,2.15,10.05,2.99,15.02l3.04,17.97c1.93,11.43,3.87,22.87,5.8,34.3,.92,5.47,2.31,11.09,2.06,16.66-.12,2.62-.78,5.24-1.81,7.65-1.38,3.23-1.88,3.77-5.25,3.94-8.82,.45-18.1,.85-26.77-1.3-1.91-.81-3.98-1.46-6.08-2-7.32-3.13-14.23-9.17-16.01-17.16-2.39-10.71,4.84-21.08,8.87-30.46,2.03-4.74,3.48-9.58,.68-14.36-2.84-4.84-7.69-8.96-11.58-12.95-3.4-3.49-6.8-7.44-10.91-10.14-2.1-1.38-4.35-2.16-6.77-2.71-3.52-.79-4.82-1.17-6.07-4.69-4.05-11.44-5.65-23.97-5.9-36.06,4.18,.81,8.68-.13,12.89,.07Zm-12.14,46.24c.64-.02,1.2-.15,1.68-.37,.12,.1,.24,.2,.38,.3,4.32,3.12,9.62,2.39,13.77,6.09,4.02,3.59,7.72,7.66,11.42,11.58,1.92,2.04,4.78,4.3,6.04,6.84,1.35,2.74-.68,6.03-1.81,8.52-4.23,9.33-9.94,18.86-9.27,29.49,.41,6.51,2.77,11.91,6.38,16.29-5.62-.83-11.26-1.05-16.84,.56-4.38,1.26-9.53,3.55-12.81,7.14-4.32-.71-8.66-1.12-13.03-1.22-6.61-12.37-23.32-13.7-35.83-14.58-10.46-.73-21.91,.98-29.27,8.39-13.42-3.49-27.16-5.53-41.02-6.1-.82-.03-1.51,.13-2.07,.44-.72-.36-1.45-.72-2.17-1.08,1.66-.28,3.31-.63,4.97-1.02,6.84-1.59,13.54-2.5,20.57-2.57,13.19-.14,26.36,1.68,39.54,.79,5.03-.34,13.26-.27,17.33-3.71,4.69-3.96,1.34-10.15,.44-15-2.15-11.52,.68-23.98,7.62-33.42,7.87-10.72,20.81-17.04,34-17.36Zm-51.47,91.62c4.45,0,5.2-5.74,2.26-7.68,4.35,.51,8.44,2,11.72,5.35,3.75,3.83,9.63-2.05,5.88-5.88-.81-.83-1.65-1.57-2.52-2.24,5.09,1.19,9.87,3.27,12.63,7.91-3.33,11.93-11.67,21.88-22.8,27.37-5.42,2.67-12.24,4.71-18.3,3.6-6.87-1.25-10.42-8.42-13.21-14.14-2.99-6.11-3.27-12.88,.62-18.7,1.61-2.4,3.74-4.19,6.15-5.49,.7,1.81,2.48,3.32,4.89,2.99,3.46-.48,7.15-.97,10.79-.98-3.37,1.69-2.75,7.9,1.88,7.9Zm-124.54-52.45c12.34-9.11,20.09-22.85,28.64-35.43,11.02-16.2,25.5-29.57,42.77-38.9,9.34-5.05,18.87-9.45,27.82-15.21,8.21-5.28,16.36-10.22,26.14-11.85,8.83-1.47,18.04-.46,26.41,2.64,3.99,1.48,7.81,3.53,11.28,6,1.68,1.2,3.26,2.55,4.92,3.77-.66,.66-1.07,1.6-1.05,2.83,.19,11.65,1.77,23.29,4.89,34.53,.39,1.39,.76,2.86,1.22,4.31-21.49,1.76-40.38,16.68-45.92,37.86-1.43,5.47-2.01,11.27-1.59,16.92,.21,2.79,.62,5.59,1.27,8.32,.26,1.08,1.11,2.7,1.05,3.78,.05-.91,.17,.79,.32,.75-.3,.32-2.53,.54-2.93,.61-13.32,2.6-27.1,.84-40.54,.39-7.2-.24-14.39-.11-21.52,.95-7.43,1.11-15.21,4.72-22.69,2.35-.43-.14-.84-.2-1.23-.21-.04-.02-.07-.05-.11-.07-13.72-6.97-26.84-15.09-39.14-24.34Zm45.68,82.46c-2.4-1.46-3.23-4.41-4.09-6.91-2.25-6.57-4.41-13.24-5.78-20.06-.86-4.25-3.47-15.34,.62-18.68,2.21-1.8,6.01,1.11,8.17,2.18l9.44,4.66c.31,.15,.62,.26,.93,.33,.08,3.85-.05,7.69-.38,11.54-.46,5.33,7.86,5.3,8.32,0,.37-4.32,.47-8.64,.33-12.96,9.65,.79,19.19,2.32,28.61,4.62-5.42,12.27,.24,26.25,8.87,35.76,9.32,10.26,25.45,6.67,36.26,.98,11.74-6.18,20.77-16.98,24.89-29.54,3.2,.06,6.37,.3,9.53,.74-.74,4.89,0,10.58,.43,14.94,.08,.78,.17,1.56,.28,2.34-.36-.25-.76-.47-1.24-.6-1.97-.57-4.77,.69-5.12,2.91-.8,5.16-1.13,10.28-.8,15.5,.01,.23,.05,.44,.09,.65-.08,.57-.01,1.21,.25,1.91,1.27,3.41,2.54,6.81,3.81,10.22l1.63,4.38c.61,1.64,.83,5.02,3.15,4.32-5.11,1.56-2.93,9.59,2.21,8.02,5.64-1.72,5.47-6.91,3.75-11.63-2.13-5.86-4.36-11.68-6.54-17.52-.01-.03-.03-.06-.04-.09,0-.09,0-.17,0-.26-.24-3.7-.2-7.41,.21-11.09,.89,3.13,2.16,6.13,3.96,8.89,6.9,10.54,21.22,14.68,33.04,10.48,0,0,0,0,0,0-.57,1.09-.65,2.4-.27,3.55-7.99,25.34-24,47.31-40.84,67.81-.27,.26-.5,.54-.69,.84-2.77,3.36-5.55,6.68-8.33,9.97-4.95,5.87-10.4,11.54-17.79,14.2-6.92,2.48-14.53,2.46-21.63,.79-15.29-3.6-27.13-14.58-36.32-26.84-10.95-14.61-20.99-31.15-27.37-48.34,1.98-9.07,2.54-18.48,1.81-27.67-.07-.86-.35-1.58-.76-2.16,3.8-1.68,1.52-8.43-3.31-7.71-2.77,.42-6.73,1.12-9.29-.45Zm-16.08,68.36c4.8-.13,9.68-1.03,13.75-3.7,4.81-3.16,7.73-8.2,9.83-13.42,.1-.24,.19-.49,.28-.74,5.94,13.11,13.62,25.57,21.9,37.19,9.82,13.77,22.02,26.42,38.36,32.04,9.86,3.39,20.4,3.83,29.97,.82-1.9,12.99-14.91,20.83-27.03,22.12-13.49,1.44-27.63-2.56-39.46-8.88-12.54-6.71-22.44-16.5-30.62-28.04-7.31-10.31-18.41-23.87-16.98-37.4Zm-8.22-.22c-.73,11.96,5.16,22.47,11.63,32.37,7.44,11.39,15.39,22.64,26.1,31.22,18.54,14.84,47.07,25.55,70.4,16.29,11.96-4.75,20.84-14.88,22.54-27.77,.17-1.28-.2-2.25-.85-2.91,2.48-1.37,4.85-3.01,7.08-4.95,2.7-2.35,5.17-4.96,7.53-7.69-.74,13.88-2.71,27.82-10.23,39.75-4.2,6.67-10.12,12.34-17.48,15.37-8.07,3.32-17.07,3.61-25.66,2.97-32.27-2.44-62.81-20.41-80.64-47.38-9.47-14.33-15.51-30.75-17.45-47.79,2.34,.22,4.68,.41,7.02,.54Zm-188.82,223.97c-5.54-3.19-11.03-6.38-17.05-8.61-6.06-2.24-12.41-3.53-18.77-4.52-12-1.86-24.19-2.72-35.79-6.4,.37-25.42,1.29-50.83,2.75-76.21,11.74,3.15,24.02,5.21,35.6,.3,11.55-4.9,20.97-14.53,30.46-22.49,9.89-8.3,20.38-16.6,32.63-21.13,5.88-2.18,11.88-3.57,16.79-7.69,4.04-3.4,6.92-8,9.14-12.74,2.36-5.04,4.12-10.34,6.42-15.4,.86-1.89,2.06-5.56,4.13-6.5,2.85-1.3,4.11,5.28,4.47,7.34,2.3,13.11-5.3,25.87-12.9,35.86-3.99,5.24-8.27,10.24-12.2,15.52-3.55,4.79-8.08,10.54-9.54,16.44-1.56,6.31,3.22,9.76,7.94,12.72,5.43,3.41,11.3,6.58,17.66,7.83,12.48,2.44,33.64-1.71,37.83,15.08,2.41,9.65-5.1,13.69-13.29,14.96-4.18-1.18-8.76-.89-13.02,.3-4.86,1.35-3.28,7.6,1.11,8.17,3.61,.47,7.54,.6,11.41,.21,.53,.29,1.04,.62,1.51,1.04,2.49,2.16,3.55,5.85,1.25,8.52-3.58,4.16-11.32,3.91-16.25,3.72-5.45-.21-5.21,7.76,0,8.32,4.84,.53,12.92,2.42,9.13,8.94-3.72,6.42-12.86,4.99-18.98,4.1-4.16-.61-7.96,5.54-3.21,7.6,4.83,2.1,1.86,8.19-1.55,10.11-5.12,2.89-12,2.71-17.7,3.02-7.11,.39-14.37,.49-21.39-.87-6.74-1.31-12.66-4.13-18.57-7.53Zm457.96,39.88c-31.29-.09-62.58-.19-93.87-.28-82.06-.25-164.12-.49-246.18-.74-22.73-.07-45.47-.14-68.2-.21-5.82-.02-11.64-.03-17.47-.05-3.74-.01-11.91,1.63-14.31-1.91-1.27-1.87-1.77-4.62-2.53-6.75-.91-2.57-1.83-5.14-2.74-7.71-1.05-2.95-2.1-5.91-3.15-8.86,6.02,2.06,12.28,3.3,19.12,3.54,6.21,.22,12.46-.13,18.65-.69,5.38-.48,11.05-1.25,15.66-4.31,4.77-3.16,7.69-9.78,6.88-15.43,8.56,0,16.98-2.36,20.11-11.61,1.45-4.29,.82-8.83-1.98-12.29,4.58-1.74,8.36-4.8,9.76-9.98,1.12-4.15,.05-8.48-2.37-11.9,3.34-1.4,6.34-3.43,8.69-6.31,8.25-10.13,3.33-24.3-6.56-31.21-5.29-3.7-11.75-5.32-18.1-5.93-7.97-.76-15.59-.01-23.08-3.46-3-1.38-5.84-3.1-8.63-4.87-.93-.59-3.28-1.62-3.51-2.95-.26-1.44,2.14-4.5,2.85-5.73,3.62-6.18,8.13-11.73,12.6-17.3,8.52-10.64,17.02-21.93,19.24-35.75,1.35-8.42-.89-33.09-15.3-26.6-5.38,2.42-7.79,8.39-9.93,13.48-2.3,5.48-4.18,11.19-7.18,16.34-3.53,6.06-8.19,8.95-14.75,11.12-6.49,2.15-12.67,4.84-18.53,8.38-13.36,8.07-24.59,19.04-36.72,28.73-6.29,5.03-13.09,9.59-21.3,10.46-8.06,.85-16.11-1.21-23.85-3.42,.04-12.76-.45-25.51-1.5-38.23-.02-.25-.07-.49-.12-.72-.43-5.59-.64-11.19-.55-16.79,.05-3.17,.19-6.35,.41-9.51,.21-2.97-.13-7.55,1.48-10.2,1.43-2.36,4.87-3.16,7.26-4.12,3.02-1.2,6.04-2.38,9.07-3.55,6.06-2.33,12.15-4.6,18.25-6.83,25.16-9.19,50.5-17.91,75.81-26.71,12.79-4.45,25.67-8.28,39.18-9.79,12.57-1.4,25.26-1.33,37.86-.55,12.79,.79,25.51,2.3,38.23,3.81,5.54,.66,11.13,1.42,16.73,2.09,3.62,35.15,22.91,67.45,52.86,86.53,15.33,9.76,32.9,15.79,50.96,17.63,18.1,1.84,36.58-1.59,48.66-16.25,13.51-16.41,15.35-37.79,16.01-58.25,18.73,12.15,41.49,13.59,63.22,17.09,27.5,4.43,52.9,15.39,77.34,28.42,6,3.2,11.95,6.51,17.87,9.85,5.79,3.26,12.28,6.21,17.36,10.55,4.77,4.08,7.09,10.1,11.24,14.73,3.99,4.44,9.3,7.48,14.62,10.04,13.55,6.53,27.35,12.57,41.03,18.84,5.97,2.74,12.7,5.02,18.15,8.74,6.14,4.2,5.04,12.02,5.14,18.59,.01,.81,.02,1.62,.03,2.43-28.85-6.29-55.02-20.42-79.98-35.86-13.16-8.14-26.46-16.28-38.97-25.39-6.05-4.4-11.83-9.2-17.05-14.58-4.89-5.04-8.67-11.81-14.62-15.69-4.59-2.99-11.38-3.62-15.75,.15-4.91,4.24-4.74,11.49-3.03,17.22,3.62,12.12,14.41,19.99,22.99,28.53,10.06,10,16.8,22.94,18.89,37.02,.27,1.84,.45,3.69,.55,5.54,.11,2.12,.54,3.06-1.36,3.99-3.01,1.47-6.76,2.06-10,2.88-6.61,1.67-13.26,3.21-19.51,6.01-13.54,6.06-22.72,19.95-20.56,35.05,.65,4.58,2.87,7.55,6.07,9.31-5.85,4.33-6.6,11.47-3.14,18.84,1.91,4.07,4.23,8.22,8.37,10.36,4.86,2.51,10.63,1.48,15.84,1.03,.93-.08,1.86-.17,2.79-.25-3.15,3.5-3.7,8.69-1.43,12.19Zm88.89,.27c2.94-3.11,5.96-6.15,9.1-9.07,2.35-2.19,5.16-5.54,8.02-7.08,3.16-1.69,7.16,1,10.13,2.26,9.21,3.91,18.04,8.65,26.46,14.05-17.9-.05-35.81-.11-53.71-.16Zm59.69-5.85c-10.85-7.11-22.38-13.07-34.48-17.8-3.25-1.27-6.41-2.75-9.84-1.27-3.28,1.42-6.12,4.52-8.76,6.88-6.1,5.42-11.83,11.22-17.24,17.33-.2,.22-.36,.45-.5,.68-22.45-.07-44.9-.14-67.35-.2,.04-2.11-1.29-4.4-3.97-4.67,.7,.07,.17-.94,.49-1.4,.67-.95,1.83-1.49,2.87-1.93,2.75-1.18,5.87-1.77,8.73-2.57,6.49-1.82,12.98-3.65,19.47-5.47,4.34-1.22,3.7-8.73-1.11-8.17-9.28,1.09-18.58,2.09-27.88,2.97-4.52,.43-9.04,.84-13.57,1.22-4.49,.37-8.8,1.09-11.53-3.15-1.71-2.66-4.64-7.34-3.25-10.48,1.09-2.46,4.44-3.33,6.81-3.88,8.42-1.97,17.82-1.53,26.43-2.08,5.3-.34,5.41-8.26,0-8.32-7.72-.08-15.44-.21-23.17-.39-2.65-.06-6.6,.43-9.05-.86-2.72-1.43-2.33-5.92-2.12-8.54,1.14-14.16,12.98-21.11,25.36-24.55,6.07-1.68,12.27-2.91,18.24-4.94,2.41-.82,5.02-1.65,6.6-3.79,1.8-2.43,1.63-5.56,1.48-8.44-.69-12.74-4.74-25.33-11.71-36.02-6.81-10.45-16.8-17.55-24.85-26.87-3.56-4.12-6.92-9.4-6.96-15.04-.02-3.17,1.47-5.27,4.79-4.52,3.16,.71,5.41,3.64,7.34,6.03,17.52,21.72,41.81,35.88,65.25,50.42,26.37,16.35,54.24,31.38,84.9,37.58,.2,27.42-.28,54.85-1.42,82.25Z"/><path class="cls-1" d="M422.72,486.26c-12.32,.63-24.94,1.3-36.83-2.58-5.47-1.78-10.51-3.83-16.3-4.37-5.2-.48-10.41-.02-15.58,.58-.23-.14-.46-.29-.7-.43-3.8-2.2-7.3,2.22-5.89,5.37-.01,2.08,1.3,4.01,3.96,3.69,.2-.02,.4-.05,.59-.07,5.77,3.9,10.64,8.87,15.56,13.82,5.07,5.1,10.84,11.92,18.11,13.74,7.29,1.83,15.35-3.18,21.32-6.86,6.98-4.3,13.27-9.66,18.7-15.78,2.24-2.52,.88-7.3-2.94-7.1Zm-18.79,14.96c-5.58,3.58-13.37,9.25-19.76,4.99-5.68-3.78-10.3-9.47-15.13-14.22-1.59-1.57-3.22-3.1-4.89-4.57,1.82-.03,3.64,.02,5.45,.2,5.96,.6,11.29,3.4,17.02,4.95,8.34,2.26,16.98,2.63,25.59,2.43-2.6,2.26-5.35,4.34-8.27,6.21Z"/></svg>